B612MonoLigaNerdFont-Bold.ufo
<glyph name="quotedbl" format="2">
  <advance width="1300"/>
  <unicode hex="0022"/>
  <outline>
    <contour>
      <point x="615" y="1500" type="line"/>
      <point x="615" y="1367" type="line" smooth="yes"/>
      <point x="615" y="1319"/>
      <point x="617" y="1230"/>
      <point x="625" y="1168" type="curve"/>
      <point x="648" y="1013" type="line"/>
      <point x="828" y="1013" type="line"/>
      <point x="851" y="1168" type="line"/>
      <point x="859" y="1230"/>
      <point x="861" y="1319"/>
      <point x="861" y="1367" type="curve" smooth="yes"/>
      <point x="861" y="1500" type="line"/>
    </contour>
    <contour>
      <point x="315" y="1500" type="line"/>
      <point x="315" y="1367" type="line" smooth="yes"/>
      <point x="315" y="1319"/>
      <point x="317" y="1230"/>
      <point x="325" y="1168" type="curve"/>
      <point x="348" y="1013" type="line"/>
      <point x="528" y="1013" type="line"/>
      <point x="551" y="1168" type="line"/>
      <point x="559" y="1230"/>
      <point x="561" y="1319"/>
      <point x="561" y="1367" type="curve" smooth="yes"/>
      <point x="561" y="1500" type="line"/>
    </contour>
  </outline>
</glyph>
<glyph name="numbersign" format="2">
  <advance width="1300"/>
  <unicode hex="0023"/>
  <outline>
    <contour>
      <point x="1263" y="885" type="line"/>
      <point x="1263" y="1100" type="line"/>
      <point x="1077" y="1100" type="line"/>
      <point x="1134" y="1520" type="line"/>
      <point x="826" y="1500" type="line"/>
      <point x="813" y="1388"/>
      <point x="788" y="1217"/>
      <point x="775" y="1100" type="curve"/>
      <point x="608" y="1100" type="line"/>
      <point x="661" y="1520" type="line"/>
      <point x="324" y="1500" type="line"/>
      <point x="324" y="1235" type="line"/>
      <point x="317" y="1188"/>
      <point x="314" y="1147"/>
      <point x="307" y="1100" type="curve"/>
      <point x="65" y="1100" type="line"/>
      <point x="38" y="885" type="line"/>
      <point x="281" y="885" type="line"/>
      <point x="244" y="587" type="line"/>
      <point x="42" y="587" type="line"/>
      <point x="42" y="373" type="line"/>
      <point x="219" y="373" type="line"/>
      <point x="166" y="-17" type="line"/>
      <point x="471" y="0" type="line"/>
      <point x="484" y="112"/>
      <point x="507" y="256"/>
      <point x="520" y="373" type="curve"/>
      <point x="686" y="373" type="line"/>
      <point x="636" y="-17" type="line"/>
      <point x="942" y="0" type="line"/>
      <point x="955" y="112"/>
      <point x="976" y="256"/>
      <point x="989" y="373" type="curve"/>
      <point x="1239" y="373" type="line"/>
      <point x="1266" y="587" type="line"/>
      <point x="1013" y="587" type="line"/>
      <point x="1026" y="700"/>
      <point x="1038" y="778"/>
      <point x="1051" y="885" type="curve"/>
    </contour>
    <contour>
      <point x="711" y="587" type="line"/>
      <point x="547" y="587" type="line"/>
      <point x="560" y="700"/>
      <point x="571" y="778"/>
      <point x="584" y="885" type="curve"/>
      <point x="748" y="885" type="line"/>
    </contour>
  </outline>
</glyph>
<glyph name="percent" format="2">
  <advance width="1300"/>
  <unicode hex="0025"/>
  <outline>
    <contour>
      <point x="1125" y="1473" type="line"/>
      <point x="821" y="1473" type="line"/>
      <point x="683" y="1168" type="line"/>
      <point x="681" y="1203"/>
      <point x="676" y="1236"/>
      <point x="668" y="1268" type="curve" smooth="yes"/>
      <point x="633" y="1400"/>
      <point x="540" y="1489"/>
      <point x="370" y="1489" type="curve" smooth="yes"/>
      <point x="133" y="1489"/>
      <point x="54" y="1332"/>
      <point x="54" y="1121" type="curve" smooth="yes"/>
      <point x="54" y="907"/>
      <point x="141" y="746"/>
      <point x="370" y="746" type="curve" smooth="yes"/>
      <point x="421" y="746"/>
      <point x="466" y="753"/>
      <point x="503" y="768" type="curve"/>
      <point x="157" y="0" type="line"/>
      <point x="461" y="0" type="line"/>
      <point x="599" y="306" type="line"/>
      <point x="602" y="273"/>
      <point x="607" y="241"/>
      <point x="615" y="210" type="curve" smooth="yes"/>
      <point x="648" y="74"/>
      <point x="742" y="-16"/>
      <point x="913" y="-16" type="curve" smooth="yes"/>
      <point x="1149" y="-16"/>
      <point x="1228" y="145"/>
      <point x="1228" y="359" type="curve" smooth="yes"/>
      <point x="1228" y="571"/>
      <point x="1141" y="727"/>
      <point x="913" y="727" type="curve" smooth="yes"/>
      <point x="861" y="727"/>
      <point x="816" y="720"/>
      <point x="779" y="706" type="curve"/>
    </contour>
    <contour>
      <point x="423" y="1068" type="line" smooth="yes"/>
      <point x="423" y="1008"/>
      <point x="419" y="956"/>
      <point x="375" y="956" type="curve" smooth="yes"/>
      <point x="323" y="956"/>
      <point x="319" y="1016"/>
      <point x="319" y="1084" type="curve" smooth="yes"/>
      <point x="319" y="1178" type="line" smooth="yes"/>
      <point x="319" y="1239"/>
      <point x="321" y="1291"/>
      <point x="367" y="1291" type="curve" smooth="yes"/>
      <point x="419" y="1291"/>
      <point x="423" y="1232"/>
      <point x="423" y="1165" type="curve" smooth="yes"/>
    </contour>
    <contour>
      <point x="966" y="306" type="line" smooth="yes"/>
      <point x="966" y="246"/>
      <point x="962" y="194"/>
      <point x="920" y="194" type="curve" smooth="yes"/>
      <point x="867" y="194"/>
      <point x="862" y="254"/>
      <point x="862" y="323" type="curve" smooth="yes"/>
      <point x="862" y="417" type="line" smooth="yes"/>
      <point x="862" y="477"/>
      <point x="866" y="529"/>
      <point x="910" y="529" type="curve" smooth="yes"/>
      <point x="962" y="529"/>
      <point x="966" y="471"/>
      <point x="966" y="404" type="curve" smooth="yes"/>
    </contour>
  </outline>
</glyph>
<glyph name="ampersand" format="2">
  <advance width="1300"/>
  <unicode hex="0026"/>
  <outline>
    <contour>
      <point x="900" y="720" type="line"/>
      <point x="900" y="621" type="line"/>
      <point x="900" y="605" type="line" smooth="yes"/>
      <point x="900" y="569"/>
      <point x="898" y="543"/>
      <point x="894" y="527" type="curve" smooth="yes"/>
      <point x="889" y="508"/>
      <point x="881" y="492"/>
      <point x="872" y="480" type="curve"/>
      <point x="798" y="600"/>
      <point x="792" y="606"/>
      <point x="742" y="688" type="curve" smooth="yes"/>
      <point x="579" y="952"/>
      <point x="526" y="1031"/>
      <point x="513" y="1084" type="curve"/>
      <point x="508" y="1100"/>
      <point x="506" y="1117"/>
      <point x="506" y="1133" type="curve" smooth="yes"/>
      <point x="506" y="1183"/>
      <point x="525" y="1250"/>
      <point x="620" y="1250" type="curve" smooth="yes"/>
      <point x="722" y="1250"/>
      <point x="775" y="1199"/>
      <point x="850" y="1100" type="curve"/>
      <point x="991" y="1286" type="line"/>
      <point x="901" y="1400"/>
      <point x="804" y="1500"/>
      <point x="598" y="1500" type="curve" smooth="yes"/>
      <point x="305" y="1500"/>
      <point x="190" y="1331"/>
      <point x="190" y="1134" type="curve" smooth="yes"/>
      <point x="190" y="1054"/>
      <point x="240" y="944"/>
      <point x="285" y="867" type="curve"/>
      <point x="170" y="800"/>
      <point x="41" y="662"/>
      <point x="41" y="454" type="curve" smooth="yes"/>
      <point x="41" y="203"/>
      <point x="233" y="-17"/>
      <point x="534" y="-17" type="curve" smooth="yes"/>
      <point x="630" y="-17"/>
      <point x="688" y="-5"/>
      <point x="750" y="11" type="curve"/>
      <point x="786" y="100" type="line"/>
      <point x="862" y="-17" type="line"/>
      <point x="1241" y="-17" type="line"/>
      <point x="1077" y="200" type="line"/>
      <point x="1000" y="200" type="line"/>
      <point x="1110" y="299"/>
      <point x="1200" y="479"/>
      <point x="1200" y="740" type="curve"/>
    </contour>
    <contour>
      <point x="672" y="269" type="line"/>
      <point x="645" y="249"/>
      <point x="613" y="233"/>
      <point x="557" y="233" type="curve" smooth="yes"/>
      <point x="469" y="233"/>
      <point x="366" y="309"/>
      <point x="366" y="463" type="curve" smooth="yes"/>
      <point x="366" y="516"/>
      <point x="377" y="561"/>
      <point x="400" y="596" type="curve"/>
      <point x="400" y="694" type="line"/>
    </contour>
  </outline>
</glyph>
<glyph name="quotesingle" format="2">
  <advance width="1300"/>
  <unicode hex="0027"/>
  <outline>
    <contour>
      <point x="230" y="1367" type="line" smooth="yes"/>
      <point x="230" y="1279"/>
      <point x="223" y="1176"/>
      <point x="220" y="1068" type="curve"/>
      <point x="359" y="1068" type="line"/>
      <point x="466" y="1201"/>
      <point x="500" y="1271"/>
      <point x="500" y="1367" type="curve" smooth="yes"/>
      <point x="500" y="1500" type="line"/>
      <point x="230" y="1500" type="line"/>
    </contour>
  </outline>
</glyph>
<glyph name="parenleft" format="2">
  <advance width="1300"/>
  <unicode hex="0028"/>
  <outline>
    <contour>
      <point x="379" y="38" type="line" smooth="yes"/>
      <point x="379" y="-210"/>
      <point x="414" y="-420"/>
      <point x="719" y="-420" type="curve" smooth="yes"/>
      <point x="787" y="-420"/>
      <point x="875" y="-400"/>
      <point x="931" y="-365" type="curve"/>
      <point x="833" y="-245" type="line"/>
      <point x="794" y="-245"/>
      <point x="700" y="-242"/>
      <point x="700" y="-46" type="curve" smooth="yes"/>
      <point x="700" y="1227" type="line" smooth="yes"/>
      <point x="700" y="1417"/>
      <point x="792" y="1431"/>
      <point x="841" y="1431" type="curve"/>
      <point x="931" y="1545" type="line"/>
      <point x="875" y="1580"/>
      <point x="787" y="1600"/>
      <point x="719" y="1600" type="curve" smooth="yes"/>
      <point x="414" y="1600"/>
      <point x="379" y="1406"/>
      <point x="379" y="1158" type="curve" smooth="yes"/>
    </contour>
  </outline>
</glyph>
<glyph name="asterisk" format="2">
  <advance width="1300"/>
  <unicode hex="002A"/>
  <outline>
    <contour>
      <point x="744" y="1037" type="line"/>
      <point x="967" y="1037" type="line"/>
      <point x="1105" y="1083" type="line"/>
      <point x="1011" y="1294" type="line"/>
      <point x="867" y="1247" type="line"/>
      <point x="720" y="1117" type="line"/>
      <point x="797" y="1309" type="line"/>
      <point x="797" y="1470" type="line"/>
      <point x="568" y="1446" type="line"/>
      <point x="568" y="1315" type="line"/>
      <point x="635" y="1120" type="line"/>
      <point x="476" y="1259" type="line"/>
      <point x="291" y="1309" type="line"/>
      <point x="247" y="1090" type="line"/>
      <point x="398" y="1041" type="line"/>
      <point x="608" y="1041" type="line"/>
      <point x="447" y="950" type="line"/>
      <point x="325" y="781" type="line"/>
      <point x="524" y="656" type="line"/>
      <point x="625" y="800" type="line"/>
      <point x="675" y="990" type="line"/>
      <point x="730" y="800" type="line"/>
      <point x="842" y="654" type="line"/>
      <point x="1010" y="805" type="line"/>
      <point x="918" y="926" type="line"/>
    </contour>
  </outline>
</glyph>
<glyph name="plus" format="2">
  <advance width="1300"/>
  <unicode hex="002B"/>
  <outline>
    <contour>
      <point x="179" y="500" type="line"/>
      <point x="539" y="500" type="line"/>
      <point x="539" y="100" type="line"/>
      <point x="759" y="100" type="line"/>
      <point x="759" y="500" type="line"/>
      <point x="1119" y="500" type="line"/>
      <point x="1119" y="700" type="line"/>
      <point x="759" y="700" type="line"/>
      <point x="759" y="1117" type="line"/>
      <point x="539" y="1117" type="line"/>
      <point x="539" y="700" type="line"/>
      <point x="179" y="700" type="line"/>
    </contour>
  </outline>
</glyph>
<glyph name="comma" format="2">
  <advance width="1300"/>
  <unicode hex="002C"/>
  <outline>
    <contour>
      <point x="472" y="156" type="curve" smooth="yes"/>
      <point x="472" y="45"/>
      <point x="551" y="-14"/>
      <point x="632" y="-17" type="curve"/>
      <point x="632" y="-89"/>
      <point x="608" y="-164"/>
      <point x="584" y="-228" type="curve"/>
      <point x="569" y="-265"/>
      <point x="554" y="-302"/>
      <point x="535" y="-337" type="curve"/>
      <point x="597" y="-365" type="line"/>
      <point x="797" y="-181"/>
      <point x="828" y="-32"/>
      <point x="828" y="136" type="curve" smooth="yes"/>
      <point x="828" y="261"/>
      <point x="741" y="329"/>
      <point x="650" y="329" type="curve" smooth="yes"/>
      <point x="553" y="329"/>
      <point x="472" y="249"/>
    </contour>
  </outline>
</glyph>
<glyph name="period" format="2">
  <advance width="1300"/>
  <unicode hex="002E"/>
  <outline>
    <contour>
      <point x="453" y="183" type="curve" smooth="yes"/>
      <point x="453" y="74"/>
      <point x="542" y="-17"/>
      <point x="652" y="-17" type="curve" smooth="yes"/>
      <point x="760" y="-17"/>
      <point x="848" y="74"/>
      <point x="848" y="183" type="curve" smooth="yes"/>
      <point x="848" y="292"/>
      <point x="759" y="381"/>
      <point x="650" y="381" type="curve" smooth="yes"/>
      <point x="542" y="381"/>
      <point x="453" y="292"/>
    </contour>
  </outline>
</glyph>
<glyph name="slash" format="2">
  <advance width="1300"/>
  <unicode hex="002F"/>
  <outline>
    <contour>
      <point x="1153" y="1600" type="line"/>
      <point x="810" y="1600" type="line"/>
      <point x="101" y="-100" type="line"/>
      <point x="453" y="-100" type="line"/>
    </contour>
  </outline>
</glyph>
<glyph name="zero" format="2">
  <advance width="1300"/>
  <unicode hex="0030"/>
  <outline>
    <contour>
      <point x="628" y="-16" type="curve" smooth="yes"/>
      <point x="1034" y="-16"/>
      <point x="1188" y="390"/>
      <point x="1188" y="750" type="curve" smooth="yes"/>
      <point x="1188" y="1099"/>
      <point x="1001" y="1516"/>
      <point x="628" y="1516" type="curve" smooth="yes"/>
      <point x="221" y="1516"/>
      <point x="68" y="1110"/>
      <point x="68" y="750" type="curve" smooth="yes"/>
      <point x="68" y="401"/>
      <point x="255" y="-16"/>
    </contour>
    <contour>
      <point x="396" y="791" type="curve" smooth="yes"/>
      <point x="396" y="1008"/>
      <point x="451" y="1273"/>
      <point x="620" y="1273" type="curve" smooth="yes"/>
      <point x="812" y="1273"/>
      <point x="860" y="914"/>
      <point x="860" y="709" type="curve" smooth="yes"/>
      <point x="860" y="491"/>
      <point x="803" y="226"/>
      <point x="635" y="226" type="curve" smooth="yes"/>
      <point x="444" y="226"/>
      <point x="396" y="586"/>
    </contour>
    <contour>
      <point x="519" y="545" type="line"/>
      <point x="740" y="545" type="line"/>
      <point x="740" y="893" type="line"/>
      <point x="519" y="893" type="line"/>
    </contour>
  </outline>
</glyph>
<glyph name="two" format="2">
  <advance width="1300"/>
  <unicode hex="0032"/>
  <outline>
    <contour>
      <point x="1122" y="0" type="line"/>
      <point x="1122" y="200" type="line"/>
      <point x="480" y="200" type="line"/>
      <point x="539" y="283"/>
      <point x="701" y="460"/>
      <point x="835" y="621" type="curve" smooth="yes"/>
      <point x="968" y="781"/>
      <point x="1097" y="899"/>
      <point x="1097" y="1086" type="curve" smooth="yes"/>
      <point x="1097" y="1298"/>
      <point x="922" y="1517"/>
      <point x="618" y="1517" type="curve" smooth="yes"/>
      <point x="360" y="1517"/>
      <point x="193" y="1387"/>
      <point x="116" y="1183" type="curve"/>
      <point x="349" y="1096" type="line"/>
      <point x="413" y="1221"/>
      <point x="494" y="1300"/>
      <point x="603" y="1300" type="curve" smooth="yes"/>
      <point x="711" y="1300"/>
      <point x="780" y="1197"/>
      <point x="780" y="1097" type="curve" smooth="yes"/>
      <point x="780" y="971"/>
      <point x="728" y="931"/>
      <point x="583" y="775" type="curve" smooth="yes"/>
      <point x="457" y="639"/>
      <point x="237" y="387"/>
      <point x="112" y="190" type="curve"/>
      <point x="112" y="0" type="line"/>
    </contour>
  </outline>
</glyph>
<glyph name="three" format="2">
  <advance width="1300"/>
  <unicode hex="0033"/>
  <outline>
    <contour>
      <point x="283" y="760" type="line"/>
      <point x="321" y="763"/>
      <point x="448" y="770"/>
      <point x="489" y="770" type="curve" smooth="yes"/>
      <point x="654" y="770"/>
      <point x="795" y="718"/>
      <point x="795" y="563" type="curve" smooth="yes"/>
      <point x="795" y="347"/>
      <point x="484" y="211"/>
      <point x="170" y="200" type="curve"/>
      <point x="170" y="0" type="line"/>
      <point x="613" y="0"/>
      <point x="1136" y="177"/>
      <point x="1136" y="573" type="curve" smooth="yes"/>
      <point x="1136" y="818"/>
      <point x="950" y="969"/>
      <point x="669" y="969" type="curve"/>
      <point x="825" y="1052" type="line"/>
      <point x="920" y="1137"/>
      <point x="1002" y="1222"/>
      <point x="1043" y="1327" type="curve"/>
      <point x="1043" y="1500" type="line"/>
      <point x="201" y="1500" type="line"/>
      <point x="180" y="1300" type="line"/>
      <point x="511" y="1300" type="line"/>
      <point x="771" y="1374" type="line"/>
      <point x="675" y="1221"/>
      <point x="401" y="1023"/>
      <point x="283" y="938" type="curve"/>
    </contour>
  </outline>
</glyph>
<glyph name="four" format="2">
  <advance width="1300"/>
  <unicode hex="0034"/>
  <outline>
    <contour>
      <point x="1200" y="500" type="line"/>
      <point x="1001" y="500" type="line"/>
      <point x="1001" y="800" type="line"/>
      <point x="680" y="780" type="line"/>
      <point x="680" y="500" type="line"/>
      <point x="389" y="500" type="line"/>
      <point x="563" y="763" type="line"/>
      <point x="894" y="1500" type="line"/>
      <point x="613" y="1520" type="line"/>
      <point x="120" y="500" type="line"/>
      <point x="120" y="300" type="line"/>
      <point x="680" y="300" type="line"/>
      <point x="680" y="0" type="line"/>
      <point x="1001" y="0" type="line"/>
      <point x="1001" y="300" type="line"/>
      <point x="1179" y="300" type="line"/>
    </contour>
  </outline>
</glyph>
<glyph name="seven" format="2">
  <advance width="1300"/>
  <unicode hex="0037"/>
  <outline>
    <contour>
      <point x="140" y="1272" type="line"/>
      <point x="776" y="1272" type="line"/>
      <point x="760" y="1228"/>
      <point x="719" y="1162"/>
      <point x="672" y="1086" type="curve" smooth="yes"/>
      <point x="560" y="905"/>
      <point x="415" y="657"/>
      <point x="364" y="418" type="curve" smooth="yes"/>
      <point x="340" y="309"/>
      <point x="340" y="85"/>
      <point x="340" y="0" type="curve"/>
      <point x="677" y="0" type="line"/>
      <point x="677" y="103"/>
      <point x="677" y="250"/>
      <point x="688" y="346" type="curve" smooth="yes"/>
      <point x="712" y="546"/>
      <point x="857" y="789"/>
      <point x="969" y="976" type="curve"/>
      <point x="1065" y="1131"/>
      <point x="1147" y="1269"/>
      <point x="1147" y="1339" type="curve" smooth="yes"/>
      <point x="1147" y="1500" type="line"/>
      <point x="140" y="1500" type="line"/>
    </contour>
  </outline>
</glyph>
<glyph name="eight" format="2">
  <advance width="1300"/>
  <unicode hex="0038"/>
  <outline>
    <contour>
      <point x="862" y="422" type="curve" smooth="yes"/>
      <point x="862" y="282"/>
      <point x="743" y="200"/>
      <point x="623" y="200" type="curve" smooth="yes"/>
      <point x="519" y="200"/>
      <point x="406" y="292"/>
      <point x="406" y="421" type="curve" smooth="yes"/>
      <point x="406" y="564"/>
      <point x="493" y="656"/>
      <point x="607" y="711" type="curve"/>
      <point x="727" y="655"/>
      <point x="862" y="566"/>
    </contour>
    <contour>
      <point x="475" y="1156" type="curve" smooth="yes"/>
      <point x="475" y="1237"/>
      <point x="559" y="1300"/>
      <point x="634" y="1300" type="curve" smooth="yes"/>
      <point x="687" y="1300"/>
      <point x="774" y="1253"/>
      <point x="774" y="1152" type="curve" smooth="yes"/>
      <point x="774" y="1068"/>
      <point x="715" y="1004"/>
      <point x="643" y="964" type="curve"/>
      <point x="557" y="1004"/>
      <point x="475" y="1065"/>
    </contour>
    <contour>
      <point x="616" y="1517" type="curve" smooth="yes"/>
      <point x="416" y="1517"/>
      <point x="155" y="1397"/>
      <point x="155" y="1124" type="curve" smooth="yes"/>
      <point x="155" y="1009"/>
      <point x="248" y="920"/>
      <point x="370" y="848" type="curve"/>
      <point x="203" y="769"/>
      <point x="82" y="631"/>
      <point x="82" y="441" type="curve" smooth="yes"/>
      <point x="82" y="142"/>
      <point x="345" y="-17"/>
      <point x="622" y="-17" type="curve" smooth="yes"/>
      <point x="906" y="-17"/>
      <point x="1187" y="119"/>
      <point x="1187" y="427" type="curve" smooth="yes"/>
      <point x="1187" y="617"/>
      <point x="1047" y="758"/>
      <point x="870" y="844" type="curve"/>
      <point x="978" y="906"/>
      <point x="1094" y="998"/>
      <point x="1094" y="1134" type="curve" smooth="yes"/>
      <point x="1094" y="1371"/>
      <point x="891" y="1517"/>
    </contour>
  </outline>
</glyph>
<glyph name="nine" format="2">
  <advance width="1300"/>
  <unicode hex="0039"/>
  <outline>
    <contour>
      <point x="628" y="761" type="curve" smooth="yes"/>
      <point x="504" y="761"/>
      <point x="430" y="891"/>
      <point x="430" y="1034" type="curve" smooth="yes"/>
      <point x="430" y="1178"/>
      <point x="524" y="1300"/>
      <point x="648" y="1300" type="curve" smooth="yes"/>
      <point x="778" y="1300"/>
      <point x="859" y="1114"/>
      <point x="867" y="945" type="curve"/>
      <point x="824" y="854"/>
      <point x="720" y="761"/>
    </contour>
    <contour>
      <point x="361" y="-17" type="line"/>
      <point x="889" y="26"/>
      <point x="1195" y="400"/>
      <point x="1195" y="873" type="curve" smooth="yes"/>
      <point x="1195" y="1113"/>
      <point x="1082" y="1517"/>
      <point x="641" y="1517" type="curve" smooth="yes"/>
      <point x="310" y="1517"/>
      <point x="100" y="1313"/>
      <point x="100" y="1017" type="curve" smooth="yes"/>
      <point x="100" y="731"/>
      <point x="327" y="544"/>
      <point x="619" y="544" type="curve" smooth="yes"/>
      <point x="642" y="544"/>
      <point x="664" y="545"/>
      <point x="685" y="548" type="curve"/>
      <point x="863" y="700" type="line"/>
      <point x="859" y="456"/>
      <point x="593" y="207"/>
      <point x="318" y="199" type="curve"/>
    </contour>
  </outline>
</glyph>
<glyph name="colon" format="2">
  <advance width="1300"/>
  <unicode hex="003A"/>
  <outline>
    <contour>
      <point x="453" y="700" type="curve" smooth="yes"/>
      <point x="453" y="591"/>
      <point x="542" y="500"/>
      <point x="652" y="500" type="curve" smooth="yes"/>
      <point x="760" y="500"/>
      <point x="848" y="591"/>
      <point x="848" y="700" type="curve" smooth="yes"/>
      <point x="848" y="809"/>
      <point x="759" y="898"/>
      <point x="650" y="898" type="curve" smooth="yes"/>
      <point x="542" y="898"/>
      <point x="453" y="809"/>
    </contour>
    <contour>
      <point x="453" y="183" type="curve" smooth="yes"/>
      <point x="453" y="74"/>
      <point x="542" y="-17"/>
      <point x="652" y="-17" type="curve" smooth="yes"/>
      <point x="760" y="-17"/>
      <point x="848" y="74"/>
      <point x="848" y="183" type="curve" smooth="yes"/>
      <point x="848" y="292"/>
      <point x="759" y="381"/>
      <point x="650" y="381" type="curve" smooth="yes"/>
      <point x="542" y="381"/>
      <point x="453" y="292"/>
    </contour>
  </outline>
</glyph>
<glyph name="semicolon" format="2">
  <advance width="1300"/>
  <unicode hex="003B"/>
  <outline>
    <contour>
      <point x="453" y="700" type="curve" smooth="yes"/>
      <point x="453" y="591"/>
      <point x="542" y="500"/>
      <point x="652" y="500" type="curve" smooth="yes"/>
      <point x="760" y="500"/>
      <point x="848" y="591"/>
      <point x="848" y="700" type="curve" smooth="yes"/>
      <point x="848" y="809"/>
      <point x="759" y="898"/>
      <point x="650" y="898" type="curve" smooth="yes"/>
      <point x="542" y="898"/>
      <point x="453" y="809"/>
    </contour>
    <contour>
      <point x="472" y="156" type="curve" smooth="yes"/>
      <point x="472" y="45"/>
      <point x="551" y="-14"/>
      <point x="632" y="-17" type="curve"/>
      <point x="632" y="-89"/>
      <point x="608" y="-164"/>
      <point x="584" y="-228" type="curve"/>
      <point x="569" y="-265"/>
      <point x="554" y="-302"/>
      <point x="535" y="-337" type="curve"/>
      <point x="597" y="-365" type="line"/>
      <point x="797" y="-181"/>
      <point x="828" y="-32"/>
      <point x="828" y="136" type="curve" smooth="yes"/>
      <point x="828" y="261"/>
      <point x="741" y="329"/>
      <point x="650" y="329" type="curve" smooth="yes"/>
      <point x="553" y="329"/>
      <point x="472" y="249"/>
    </contour>
  </outline>
</glyph>
<glyph name="less" format="2">
  <advance width="1300"/>
  <unicode hex="003C"/>
  <outline>
    <contour>
      <point x="130" y="770" type="line"/>
      <point x="130" y="545" type="line"/>
      <point x="1137" y="34" type="line"/>
      <point x="1137" y="302" type="line"/>
      <point x="470" y="654" type="line"/>
      <point x="1137" y="1009" type="line"/>
      <point x="1137" y="1277" type="line"/>
    </contour>
  </outline>
</glyph>
<glyph name="question" format="2">
  <advance width="1300"/>
  <unicode hex="003F"/>
  <outline>
    <contour>
      <point x="1111" y="1124" type="curve" smooth="yes"/>
      <point x="1111" y="1393"/>
      <point x="871" y="1517"/>
      <point x="618" y="1517" type="curve" smooth="yes"/>
      <point x="460" y="1517"/>
      <point x="259" y="1471"/>
      <point x="107" y="1268" type="curve"/>
      <point x="289" y="1117" type="line"/>
      <point x="380" y="1241"/>
      <point x="525" y="1283"/>
      <point x="594" y="1283" type="curve" smooth="yes"/>
      <point x="686" y="1283"/>
      <point x="770" y="1239"/>
      <point x="770" y="1132" type="curve" smooth="yes"/>
      <point x="770" y="1045"/>
      <point x="713" y="993"/>
      <point x="654" y="942" type="curve"/>
      <point x="465" y="801"/>
      <point x="408" y="631"/>
      <point x="405" y="399" type="curve"/>
      <point x="716" y="434" type="line"/>
      <point x="716" y="602"/>
      <point x="802" y="698"/>
      <point x="880" y="765" type="curve" smooth="yes"/>
      <point x="995" y="866"/>
      <point x="1111" y="964"/>
    </contour>
    <contour>
      <point x="409" y="149" type="curve" smooth="yes"/>
      <point x="409" y="60"/>
      <point x="482" y="-17"/>
      <point x="573" y="-17" type="curve" smooth="yes"/>
      <point x="664" y="-17"/>
      <point x="735" y="60"/>
      <point x="735" y="149" type="curve" smooth="yes"/>
      <point x="735" y="239"/>
      <point x="662" y="313"/>
      <point x="572" y="313" type="curve" smooth="yes"/>
      <point x="482" y="313"/>
      <point x="409" y="239"/>
    </contour>
  </outline>
</glyph>
<glyph name="at" format="2">
  <advance width="1300"/>
  <unicode hex="0040"/>
  <outline>
    <contour>
      <point x="275" y="534" type="line" smooth="yes"/>
      <point x="275" y="1011"/>
      <point x="481" y="1240"/>
      <point x="681" y="1240" type="curve" smooth="yes"/>
      <point x="881" y="1240"/>
      <point x="1027" y="1011"/>
      <point x="1027" y="534" type="curve" smooth="yes"/>
      <point x="1027" y="500" type="line" smooth="yes"/>
      <point x="1027" y="394"/>
      <point x="1018" y="200"/>
      <point x="951" y="200" type="curve" smooth="yes"/>
      <point x="926" y="200"/>
      <point x="914" y="220"/>
      <point x="907" y="241" type="curve"/>
      <point x="904" y="253"/>
      <point x="902" y="267"/>
      <point x="901" y="283" type="curve"/>
      <point x="901" y="844" type="line" smooth="yes"/>
      <point x="901" y="1000"/>
      <point x="803" y="1040"/>
      <point x="691" y="1040" type="curve" smooth="yes"/>
      <point x="607" y="1040"/>
      <point x="548" y="1026"/>
      <point x="509" y="1013" type="curve" smooth="yes"/>
      <point x="484" y="1004"/>
      <point x="465" y="995"/>
      <point x="451" y="986" type="curve"/>
      <point x="451" y="810" type="line"/>
      <point x="468" y="818"/>
      <point x="501" y="831"/>
      <point x="537" y="840" type="curve" smooth="yes"/>
      <point x="572" y="849"/>
      <point x="601" y="853"/>
      <point x="620" y="853" type="curve" smooth="yes"/>
      <point x="639" y="853"/>
      <point x="690" y="852"/>
      <point x="690" y="800" type="curve" smooth="yes"/>
      <point x="690" y="700" type="line"/>
      <point x="670" y="700" type="line" smooth="yes"/>
      <point x="499" y="700"/>
      <point x="433" y="599"/>
      <point x="401" y="500" type="curve"/>
      <point x="392" y="467"/>
      <point x="386" y="407"/>
      <point x="386" y="356" type="curve" smooth="yes"/>
      <point x="386" y="333"/>
      <point x="385" y="284"/>
      <point x="400" y="204" type="curve" smooth="yes"/>
      <point x="421" y="88"/>
      <point x="482" y="-17"/>
      <point x="601" y="-17" type="curve" smooth="yes"/>
      <point x="632" y="-17"/>
      <point x="656" y="-13"/>
      <point x="672" y="-8" type="curve"/>
      <point x="696" y="1" type="line"/>
      <point x="730" y="100" type="line"/>
      <point x="730" y="75"/>
      <point x="799" y="-32"/>
      <point x="948" y="-32" type="curve" smooth="yes"/>
      <point x="1212" y="-32"/>
      <point x="1258" y="258"/>
      <point x="1258" y="576" type="curve" smooth="yes"/>
      <point x="1258" y="1058"/>
      <point x="1086" y="1460"/>
      <point x="682" y="1460" type="curve" smooth="yes"/>
      <point x="302" y="1460"/>
      <point x="40" y="1051"/>
      <point x="40" y="541" type="curve" smooth="yes"/>
      <point x="40" y="44"/>
      <point x="175" y="-382"/>
      <point x="681" y="-382" type="curve" smooth="yes"/>
      <point x="798" y="-382"/>
      <point x="876" y="-361"/>
      <point x="901" y="-346" type="curve"/>
      <point x="901" y="-120" type="line"/>
      <point x="883" y="-135"/>
      <point x="799" y="-172"/>
      <point x="681" y="-172" type="curve" smooth="yes"/>
      <point x="351" y="-172"/>
      <point x="275" y="183"/>
      <point x="275" y="500" type="curve" smooth="yes"/>
    </contour>
    <contour>
      <point x="690" y="283" type="line"/>
      <point x="689" y="266"/>
      <point x="686" y="252"/>
      <point x="683" y="241" type="curve"/>
      <point x="676" y="220"/>
      <point x="662" y="200"/>
      <point x="635" y="200" type="curve" smooth="yes"/>
      <point x="599" y="200"/>
      <point x="568" y="227"/>
      <point x="568" y="333" type="curve" smooth="yes"/>
      <point x="568" y="463"/>
      <point x="616" y="500"/>
      <point x="660" y="500" type="curve" smooth="yes"/>
      <point x="690" y="500" type="line"/>
    </contour>
  </outline>
</glyph>
<glyph name="B" format="2">
  <advance width="1300"/>
  <unicode hex="0042"/>
  <outline>
    <contour>
      <point x="586" y="0" type="line" smooth="yes"/>
      <point x="859" y="0"/>
      <point x="1177" y="123"/>
      <point x="1177" y="475" type="curve" smooth="yes"/>
      <point x="1177" y="663"/>
      <point x="1039" y="767"/>
      <point x="868" y="826" type="curve"/>
      <point x="996" y="890"/>
      <point x="1081" y="1004"/>
      <point x="1081" y="1148" type="curve" smooth="yes"/>
      <point x="1081" y="1440"/>
      <point x="780" y="1517"/>
      <point x="460" y="1517" type="curve" smooth="yes"/>
      <point x="372" y="1517"/>
      <point x="204" y="1505"/>
      <point x="89" y="1489" type="curve"/>
      <point x="121" y="1262" type="line"/>
      <point x="121" y="0" type="line"/>
    </contour>
    <contour>
      <point x="456" y="1301" type="line"/>
      <point x="476" y="1304"/>
      <point x="502" y="1305"/>
      <point x="521" y="1305" type="curve" smooth="yes"/>
      <point x="630" y="1305"/>
      <point x="767" y="1276"/>
      <point x="767" y="1128" type="curve" smooth="yes"/>
      <point x="767" y="966"/>
      <point x="626" y="900"/>
      <point x="501" y="900" type="curve" smooth="yes"/>
      <point x="472" y="900" type="line"/>
      <point x="472" y="1130" type="line"/>
    </contour>
    <contour>
      <point x="472" y="693" type="line"/>
      <point x="567" y="693" type="line" smooth="yes"/>
      <point x="727" y="693"/>
      <point x="845" y="637"/>
      <point x="845" y="465" type="curve" smooth="yes"/>
      <point x="845" y="285"/>
      <point x="728" y="228"/>
      <point x="529" y="228" type="curve" smooth="yes"/>
      <point x="472" y="228" type="line"/>
    </contour>
  </outline>
</glyph>
<glyph name="C" format="2">
  <advance width="1300"/>
  <unicode hex="0043"/>
  <outline>
    <contour>
      <point x="1101" y="340" type="line"/>
      <point x="957" y="260"/>
      <point x="879" y="233"/>
      <point x="788" y="233" type="curve" smooth="yes"/>
      <point x="549" y="233"/>
      <point x="450" y="528"/>
      <point x="450" y="772" type="curve" smooth="yes"/>
      <point x="450" y="1048"/>
      <point x="531" y="1270"/>
      <point x="784" y="1270" type="curve" smooth="yes"/>
      <point x="875" y="1270"/>
      <point x="984" y="1219"/>
      <point x="1072" y="1160" type="curve"/>
      <point x="1220" y="1344" type="line"/>
      <point x="1103" y="1457"/>
      <point x="941" y="1517"/>
      <point x="768" y="1517" type="curve" smooth="yes"/>
      <point x="299" y="1517"/>
      <point x="100" y="1173"/>
      <point x="100" y="769" type="curve" smooth="yes"/>
      <point x="100" y="340"/>
      <point x="351" y="-17"/>
      <point x="764" y="-17" type="curve" smooth="yes"/>
      <point x="939" y="-17"/>
      <point x="1084" y="25"/>
      <point x="1220" y="133" type="curve"/>
    </contour>
  </outline>
</glyph>
<glyph name="D" format="2">
  <advance width="1300"/>
  <unicode hex="0044"/>
  <outline>
    <contour>
      <point x="100" y="1262" type="line"/>
      <point x="100" y="0" type="line"/>
      <point x="452" y="0" type="line" smooth="yes"/>
      <point x="872" y="0"/>
      <point x="1239" y="226"/>
      <point x="1239" y="807" type="curve" smooth="yes"/>
      <point x="1239" y="1308"/>
      <point x="907" y="1517"/>
      <point x="460" y="1517" type="curve" smooth="yes"/>
      <point x="372" y="1517"/>
      <point x="196" y="1513"/>
      <point x="66" y="1500" type="curve"/>
    </contour>
    <contour>
      <point x="430" y="1282" type="line"/>
      <point x="438" y="1282" type="line" smooth="yes"/>
      <point x="443" y="1282"/>
      <point x="448" y="1283"/>
      <point x="452" y="1283" type="curve" smooth="yes"/>
      <point x="812" y="1283"/>
      <point x="888" y="1078"/>
      <point x="888" y="778" type="curve" smooth="yes"/>
      <point x="888" y="583"/>
      <point x="871" y="250"/>
      <point x="451" y="250" type="curve"/>
      <point x="451" y="1121" type="line"/>
    </contour>
  </outline>
</glyph>
<glyph name="E" format="2">
  <advance width="1300"/>
  <unicode hex="0045"/>
  <outline>
    <contour>
      <point x="510" y="228" type="line"/>
      <point x="518" y="360" type="line"/>
      <point x="518" y="703" type="line"/>
      <point x="1034" y="703" type="line"/>
      <point x="1034" y="916" type="line"/>
      <point x="518" y="916" type="line"/>
      <point x="518" y="1134" type="line"/>
      <point x="503" y="1272" type="line"/>
      <point x="1100" y="1272" type="line"/>
      <point x="1100" y="1500" type="line"/>
      <point x="132" y="1500" type="line"/>
      <point x="167" y="1263" type="line"/>
      <point x="167" y="231" type="line"/>
      <point x="150" y="0" type="line"/>
      <point x="1110" y="0" type="line"/>
      <point x="1137" y="228" type="line"/>
    </contour>
  </outline>
</glyph>
<glyph name="F" format="2">
  <advance width="1300"/>
  <unicode hex="0046"/>
  <outline>
    <contour>
      <point x="551" y="703" type="line"/>
      <point x="1064" y="703" type="line"/>
      <point x="1064" y="916" type="line"/>
      <point x="551" y="916" type="line"/>
      <point x="551" y="1134" type="line"/>
      <point x="536" y="1272" type="line"/>
      <point x="1140" y="1272" type="line"/>
      <point x="1167" y="1500" type="line"/>
      <point x="165" y="1500" type="line"/>
      <point x="200" y="1263" type="line"/>
      <point x="200" y="0" type="line"/>
      <point x="551" y="0" type="line"/>
    </contour>
  </outline>
</glyph>
<glyph name="H" format="2">
  <advance width="1300"/>
  <unicode hex="0048"/>
  <outline>
    <contour>
      <point x="1218" y="0" type="line"/>
      <point x="1218" y="1520" type="line"/>
      <point x="872" y="1500" type="line"/>
      <point x="872" y="916" type="line"/>
      <point x="426" y="916" type="line"/>
      <point x="426" y="1520" type="line"/>
      <point x="48" y="1500" type="line"/>
      <point x="79" y="1263" type="line"/>
      <point x="79" y="0" type="line"/>
      <point x="426" y="0" type="line"/>
      <point x="426" y="688" type="line"/>
      <point x="872" y="688" type="line"/>
      <point x="872" y="0" type="line"/>
    </contour>
  </outline>
</glyph>
<glyph name="K" format="2">
  <advance width="1300"/>
  <unicode hex="004B"/>
  <outline>
    <contour>
      <point x="473" y="0" type="line"/>
      <point x="473" y="540" type="line"/>
      <point x="873" y="0" type="line"/>
      <point x="1253" y="0" type="line"/>
      <point x="723" y="716" type="line"/>
      <point x="500" y="800" type="line"/>
      <point x="733" y="900" type="line"/>
      <point x="1232" y="1500" type="line"/>
      <point x="864" y="1500" type="line"/>
      <point x="473" y="1035" type="line"/>
      <point x="473" y="1520" type="line"/>
      <point x="89" y="1500" type="line"/>
      <point x="122" y="1263" type="line"/>
      <point x="122" y="0" type="line"/>
    </contour>
  </outline>
</glyph>
<glyph name="L" format="2">
  <advance width="1300"/>
  <unicode hex="004C"/>
  <outline>
    <contour>
      <point x="471" y="360" type="line"/>
      <point x="471" y="1520" type="line"/>
      <point x="89" y="1500" type="line"/>
      <point x="123" y="1263" type="line"/>
      <point x="123" y="232" type="line"/>
      <point x="100" y="0" type="line"/>
      <point x="1126" y="0" type="line"/>
      <point x="1153" y="228" type="line"/>
      <point x="463" y="228" type="line"/>
    </contour>
  </outline>
</glyph>
<glyph name="M" format="2">
  <advance width="1300"/>
  <unicode hex="004D"/>
  <outline>
    <contour>
      <point x="1206" y="0" type="line"/>
      <point x="1206" y="1520" type="line"/>
      <point x="870" y="1500" type="line"/>
      <point x="700" y="1082" type="line"/>
      <point x="651" y="800" type="line"/>
      <point x="600" y="1079" type="line"/>
      <point x="409" y="1520" type="line"/>
      <point x="69" y="1500" type="line"/>
      <point x="100" y="1263" type="line"/>
      <point x="100" y="0" type="line"/>
      <point x="422" y="0" type="line"/>
      <point x="422" y="449" type="line"/>
      <point x="310" y="1200" type="line"/>
      <point x="320" y="1200" type="line"/>
      <point x="459" y="700" type="line"/>
      <point x="544" y="475" type="line"/>
      <point x="755" y="475" type="line"/>
      <point x="843" y="700" type="line"/>
      <point x="980" y="1200" type="line"/>
      <point x="990" y="1200" type="line"/>
      <point x="883" y="449" type="line"/>
      <point x="883" y="0" type="line"/>
    </contour>
  </outline>
</glyph>
<glyph name="O" format="2">
  <advance width="1300"/>
  <unicode hex="004F"/>
  <outline>
    <contour>
      <point x="649" y="-17" type="curve" smooth="yes"/>
      <point x="1050" y="-17"/>
      <point x="1247" y="330"/>
      <point x="1247" y="750" type="curve" smooth="yes"/>
      <point x="1247" y="1170"/>
      <point x="1040" y="1517"/>
      <point x="649" y="1517" type="curve" smooth="yes"/>
      <point x="246" y="1517"/>
      <point x="50" y="1170"/>
      <point x="50" y="750" type="curve" smooth="yes"/>
      <point x="50" y="330"/>
      <point x="257" y="-17"/>
    </contour>
    <contour>
      <point x="897" y="721" type="curve" smooth="yes"/>
      <point x="897" y="506"/>
      <point x="861" y="226"/>
      <point x="654" y="226" type="curve" smooth="yes"/>
      <point x="433" y="226"/>
      <point x="400" y="532"/>
      <point x="400" y="783" type="curve" smooth="yes"/>
      <point x="400" y="999"/>
      <point x="435" y="1274"/>
      <point x="643" y="1274" type="curve" smooth="yes"/>
      <point x="865" y="1274"/>
      <point x="897" y="969"/>
    </contour>
  </outline>
</glyph>
<glyph name="Q" format="2">
  <advance width="1300"/>
  <unicode hex="0051"/>
  <outline>
    <contour>
      <point x="1200" y="50" type="line"/>
      <point x="1128" y="50"/>
      <point x="1038" y="47"/>
      <point x="990" y="127" type="curve"/>
      <point x="1163" y="258"/>
      <point x="1248" y="534"/>
      <point x="1248" y="780" type="curve" smooth="yes"/>
      <point x="1248" y="1201"/>
      <point x="1041" y="1517"/>
      <point x="650" y="1517" type="curve" smooth="yes"/>
      <point x="247" y="1517"/>
      <point x="51" y="1170"/>
      <point x="51" y="750" type="curve" smooth="yes"/>
      <point x="51" y="350"/>
      <point x="238" y="-17"/>
      <point x="602" y="-17" type="curve" smooth="yes"/>
      <point x="633" y="-17"/>
      <point x="666" y="-15"/>
      <point x="700" y="-11" type="curve"/>
      <point x="700" y="100" type="line"/>
      <point x="833" y="-137"/>
      <point x="945" y="-180"/>
      <point x="1200" y="-180" type="curve"/>
    </contour>
    <contour>
      <point x="393" y="783" type="curve"/>
      <point x="393" y="1000"/>
      <point x="447" y="1279"/>
      <point x="644" y="1279" type="curve" smooth="yes"/>
      <point x="853" y="1279"/>
      <point x="906" y="998"/>
      <point x="906" y="751" type="curve" smooth="yes"/>
      <point x="906" y="643"/>
      <point x="890" y="564"/>
      <point x="877" y="500" type="curve"/>
      <point x="877" y="300" type="line"/>
      <point x="727" y="601" type="line"/>
      <point x="500" y="500" type="line"/>
      <point x="513" y="476"/>
      <point x="537" y="426"/>
      <point x="564" y="374" type="curve" smooth="yes"/>
      <point x="565" y="371"/>
      <point x="566" y="369"/>
      <point x="567" y="367" type="curve" smooth="yes"/>
      <point x="569" y="362" type="line"/>
      <point x="571" y="359"/>
      <point x="573" y="355"/>
      <point x="575" y="351" type="curve" smooth="yes"/>
      <point x="576" y="349" type="line"/>
      <point x="576" y="348"/>
      <point x="576" y="348"/>
      <point x="577" y="348" type="curve"/>
      <point x="578" y="345" type="line"/>
      <point x="579" y="344"/>
      <point x="579" y="343"/>
      <point x="580" y="342" type="curve"/>
      <point x="581" y="340" type="line"/>
      <point x="581" y="338" type="line"/>
      <point x="582" y="336" type="line"/>
      <point x="583" y="335"/>
      <point x="583" y="334"/>
      <point x="584" y="333" type="curve"/>
      <point x="585" y="330" type="line"/>
      <point x="587" y="327"/>
      <point x="589" y="323"/>
      <point x="591" y="320" type="curve"/>
      <point x="592" y="316" type="line"/>
      <point x="594" y="313"/>
      <point x="596" y="310"/>
      <point x="597" y="307" type="curve" smooth="yes"/>
      <point x="601" y="299" type="line"/>
      <point x="602" y="298" type="line"/>
      <point x="614" y="273"/>
      <point x="624" y="254"/>
      <point x="632" y="239" type="curve"/>
      <point x="401" y="239"/>
      <point x="397" y="543"/>
    </contour>
  </outline>
</glyph>
<glyph name="R" format="2">
  <advance width="1300"/>
  <unicode hex="0052"/>
  <outline>
    <contour>
      <point x="835" y="0" type="line"/>
      <point x="1200" y="0" type="line"/>
      <point x="792" y="600" type="line"/>
      <point x="700" y="624" type="line"/>
      <point x="939" y="685"/>
      <point x="1096" y="845"/>
      <point x="1096" y="1081" type="curve" smooth="yes"/>
      <point x="1096" y="1362"/>
      <point x="828" y="1517"/>
      <point x="465" y="1517" type="curve" smooth="yes"/>
      <point x="345" y="1517"/>
      <point x="206" y="1501"/>
      <point x="86" y="1488" type="curve"/>
      <point x="124" y="1262" type="line"/>
      <point x="124" y="0" type="line"/>
      <point x="449" y="0" type="line"/>
      <point x="449" y="600" type="line"/>
    </contour>
    <contour>
      <point x="433" y="1294" type="line"/>
      <point x="449" y="1295"/>
      <point x="468" y="1296"/>
      <point x="489" y="1296" type="curve" smooth="yes"/>
      <point x="613" y="1296"/>
      <point x="767" y="1254"/>
      <point x="767" y="1066" type="curve" smooth="yes"/>
      <point x="767" y="924"/>
      <point x="666" y="800"/>
      <point x="485" y="800" type="curve" smooth="yes"/>
      <point x="449" y="800" type="line"/>
      <point x="449" y="1121" type="line"/>
    </contour>
  </outline>
</glyph>
<glyph name="S" format="2">
  <advance width="1300"/>
  <unicode hex="0053"/>
  <outline>
    <contour>
      <point x="1123" y="1369" type="line"/>
      <point x="974" y="1469"/>
      <point x="836" y="1517"/>
      <point x="679" y="1517" type="curve" smooth="yes"/>
      <point x="423" y="1517"/>
      <point x="173" y="1367"/>
      <point x="173" y="1097" type="curve" smooth="yes"/>
      <point x="173" y="889"/>
      <point x="362" y="783"/>
      <point x="553" y="693" type="curve" smooth="yes"/>
      <point x="689" y="629"/>
      <point x="832" y="574"/>
      <point x="832" y="430" type="curve" smooth="yes"/>
      <point x="832" y="282"/>
      <point x="712" y="236"/>
      <point x="594" y="236" type="curve" smooth="yes"/>
      <point x="493" y="236"/>
      <point x="361" y="300"/>
      <point x="288" y="348" type="curve"/>
      <point x="150" y="121" type="line"/>
      <point x="293" y="32"/>
      <point x="428" y="-17"/>
      <point x="596" y="-17" type="curve" smooth="yes"/>
      <point x="890" y="-17"/>
      <point x="1168" y="140"/>
      <point x="1168" y="448" type="curve" smooth="yes"/>
      <point x="1168" y="716"/>
      <point x="936" y="828"/>
      <point x="736" y="921" type="curve"/>
      <point x="619" y="974"/>
      <point x="499" y="1016"/>
      <point x="499" y="1125" type="curve" smooth="yes"/>
      <point x="499" y="1241"/>
      <point x="604" y="1274"/>
      <point x="703" y="1274" type="curve" smooth="yes"/>
      <point x="778" y="1274"/>
      <point x="850" y="1250"/>
      <point x="973" y="1178" type="curve"/>
    </contour>
  </outline>
</glyph>
<glyph name="V" format="2">
  <advance width="1300"/>
  <unicode hex="0056"/>
  <outline>
    <contour>
      <point x="961" y="1500" type="line"/>
      <point x="713" y="700" type="line"/>
      <point x="643" y="260" type="line"/>
      <point x="590" y="700" type="line"/>
      <point x="337" y="1520" type="line"/>
      <point x="15" y="1500" type="line"/>
      <point x="488" y="0" type="line"/>
      <point x="840" y="-17" type="line"/>
      <point x="868" y="200" type="line"/>
      <point x="1281" y="1500" type="line"/>
    </contour>
  </outline>
</glyph>
<glyph name="W" format="2">
  <advance width="1300"/>
  <unicode hex="0057"/>
  <outline>
    <contour>
      <point x="21" y="1500" type="line"/>
      <point x="104" y="1089"/>
      <point x="195" y="631"/>
      <point x="291" y="0" type="curve"/>
      <point x="541" y="0" type="line"/>
      <point x="603" y="300" type="line"/>
      <point x="644" y="650" type="line"/>
      <point x="684" y="300" type="line"/>
      <point x="745" y="0" type="line"/>
      <point x="998" y="0" type="line"/>
      <point x="1266" y="1500" type="line"/>
      <point x="975" y="1500" type="line"/>
      <point x="873" y="957" type="line"/>
      <point x="875" y="400" type="line"/>
      <point x="865" y="400" type="line"/>
      <point x="813" y="701" type="line"/>
      <point x="756" y="1000" type="line"/>
      <point x="530" y="1000" type="line"/>
      <point x="479" y="701" type="line"/>
      <point x="436" y="400" type="line"/>
      <point x="426" y="400" type="line"/>
      <point x="418" y="959" type="line"/>
      <point x="305" y="1520" type="line"/>
    </contour>
  </outline>
</glyph>
<glyph name="X" format="2">
  <advance width="1300"/>
  <unicode hex="0058"/>
  <outline>
    <contour>
      <point x="1283" y="0" type="line"/>
      <point x="854" y="800" type="line"/>
      <point x="1254" y="1500" type="line"/>
      <point x="909" y="1500" type="line"/>
      <point x="748" y="1199" type="line"/>
      <point x="717" y="995" type="line"/>
      <point x="423" y="1520" type="line"/>
      <point x="75" y="1500" type="line"/>
      <point x="312" y="1085"/>
      <point x="446" y="851"/>
      <point x="477" y="797" type="curve"/>
      <point x="16" y="0" type="line"/>
      <point x="359" y="0" type="line"/>
      <point x="587" y="400" type="line"/>
      <point x="608" y="583" type="line"/>
      <point x="920" y="0" type="line"/>
    </contour>
  </outline>
</glyph>
<glyph name="Y" format="2">
  <advance width="1300"/>
  <unicode hex="0059"/>
  <outline>
    <contour>
      <point x="379" y="1520" type="line"/>
      <point x="40" y="1500" type="line"/>
      <point x="469" y="650" type="line"/>
      <point x="469" y="0" type="line"/>
      <point x="820" y="0" type="line"/>
      <point x="820" y="650" type="line"/>
      <point x="1253" y="1500" type="line"/>
      <point x="918" y="1500" type="line"/>
      <point x="736" y="1143" type="line"/>
      <point x="678" y="773" type="line"/>
      <point x="571" y="1143" type="line"/>
    </contour>
  </outline>
</glyph>
<glyph name="Z" format="2">
  <advance width="1300"/>
  <unicode hex="005A"/>
  <outline>
    <contour>
      <point x="580" y="228" type="line"/>
      <point x="447" y="200" type="line"/>
      <point x="581" y="314" type="line"/>
      <point x="1128" y="1442" type="line"/>
      <point x="1087" y="1500" type="line"/>
      <point x="173" y="1500" type="line"/>
      <point x="200" y="1272" type="line"/>
      <point x="658" y="1272" type="line"/>
      <point x="789" y="1300" type="line"/>
      <point x="651" y="1187" type="line"/>
      <point x="110" y="86" type="line"/>
      <point x="144" y="0" type="line"/>
      <point x="1183" y="0" type="line"/>
      <point x="1156" y="228" type="line"/>
    </contour>
  </outline>
</glyph>
<glyph name="bracketleft" format="2">
  <advance width="1300"/>
  <unicode hex="005B"/>
  <outline>
    <contour>
      <point x="281" y="-166" type="line"/>
      <point x="255" y="-398" type="line"/>
      <point x="955" y="-398" type="line"/>
      <point x="955" y="-179" type="line"/>
      <point x="605" y="-179" type="line"/>
      <point x="620" y="-31" type="line"/>
      <point x="620" y="1154" type="line"/>
      <point x="605" y="1302" type="line"/>
      <point x="955" y="1302" type="line"/>
      <point x="955" y="1520" type="line"/>
      <point x="255" y="1520" type="line"/>
      <point x="281" y="1288" type="line"/>
    </contour>
  </outline>
</glyph>
<glyph name="backslash" format="2">
  <advance width="1300"/>
  <unicode hex="005C"/>
  <outline>
    <contour>
      <point x="788" y="-100" type="line"/>
      <point x="1141" y="-100" type="line"/>
      <point x="435" y="1600" type="line"/>
      <point x="93" y="1600" type="line"/>
    </contour>
  </outline>
</glyph>
<glyph name="bracketright" format="2">
  <advance width="1300"/>
  <unicode hex="005D"/>
  <outline>
    <contour>
      <point x="1041" y="1288" type="line"/>
      <point x="1067" y="1520" type="line"/>
      <point x="367" y="1520" type="line"/>
      <point x="367" y="1302" type="line"/>
      <point x="716" y="1302" type="line"/>
      <point x="701" y="1154" type="line"/>
      <point x="701" y="-31" type="line"/>
      <point x="716" y="-179" type="line"/>
      <point x="367" y="-179" type="line"/>
      <point x="367" y="-398" type="line"/>
      <point x="1067" y="-398" type="line"/>
      <point x="1041" y="-166" type="line"/>
    </contour>
  </outline>
</glyph>
<glyph name="asciicircum" format="2">
  <advance width="1300"/>
  <unicode hex="005E"/>
  <outline>
    <contour>
      <point x="743" y="1520" type="line"/>
      <point x="534" y="1500" type="line"/>
      <point x="50" y="868" type="line"/>
      <point x="350" y="868" type="line"/>
      <point x="650" y="1200" type="line"/>
      <point x="950" y="866" type="line"/>
      <point x="1250" y="866" type="line"/>
    </contour>
  </outline>
</glyph>
<glyph name="underscore" format="2">
  <advance width="1300"/>
  <unicode hex="005F"/>
  <outline>
    <contour>
      <point x="100" y="-455" type="line"/>
      <point x="1200" y="-455" type="line"/>
      <point x="1200" y="-200" type="line"/>
      <point x="100" y="-200" type="line"/>
    </contour>
  </outline>
</glyph>
<glyph name="grave" format="2">
  <advance width="1300"/>
  <unicode hex="0060"/>
  <outline>
    <contour>
      <point x="737" y="1500" type="line"/>
      <point x="400" y="1520" type="line"/>
      <point x="685" y="1200" type="line"/>
      <point x="900" y="1200" type="line"/>
    </contour>
  </outline>
</glyph>
<glyph name="b" format="2">
  <advance width="1300"/>
  <unicode hex="0062"/>
  <outline>
    <contour>
      <point x="173" y="54" type="line"/>
      <point x="253" y="22"/>
      <point x="448" y="-16"/>
      <point x="616" y="-16" type="curve" smooth="yes"/>
      <point x="932" y="-16"/>
      <point x="1162" y="227"/>
      <point x="1162" y="593" type="curve" smooth="yes"/>
      <point x="1162" y="930"/>
      <point x="963" y="1117"/>
      <point x="719" y="1117" type="curve" smooth="yes"/>
      <point x="682" y="1117"/>
      <point x="636" y="1107"/>
      <point x="597" y="1096" type="curve"/>
      <point x="500" y="974" type="line"/>
      <point x="500" y="1632" type="line"/>
      <point x="151" y="1601" type="line"/>
      <point x="173" y="1398" type="line"/>
    </contour>
    <contour>
      <point x="500" y="826" type="line"/>
      <point x="551" y="869"/>
      <point x="610" y="900"/>
      <point x="691" y="900" type="curve" smooth="yes"/>
      <point x="767" y="900"/>
      <point x="835" y="817"/>
      <point x="835" y="598" type="curve" smooth="yes"/>
      <point x="835" y="424"/>
      <point x="792" y="200"/>
      <point x="625" y="200" type="curve" smooth="yes"/>
      <point x="585" y="200"/>
      <point x="539" y="205"/>
      <point x="500" y="212" type="curve"/>
    </contour>
  </outline>
</glyph>
<glyph name="c" format="2">
  <advance width="1300"/>
  <unicode hex="0063"/>
  <outline>
    <contour>
      <point x="1130" y="957" type="line"/>
      <point x="1026" y="1070"/>
      <point x="878" y="1117"/>
      <point x="698" y="1117" type="curve" smooth="yes"/>
      <point x="329" y="1117"/>
      <point x="106" y="843"/>
      <point x="106" y="565" type="curve" smooth="yes"/>
      <point x="106" y="258"/>
      <point x="339" y="-17"/>
      <point x="694" y="-17" type="curve" smooth="yes"/>
      <point x="937" y="-17"/>
      <point x="1076" y="94"/>
      <point x="1124" y="137" type="curve"/>
      <point x="1000" y="353" type="line"/>
      <point x="952" y="292"/>
      <point x="866" y="236"/>
      <point x="727" y="236" type="curve" smooth="yes"/>
      <point x="571" y="236"/>
      <point x="436" y="368"/>
      <point x="436" y="553" type="curve" smooth="yes"/>
      <point x="436" y="729"/>
      <point x="564" y="881"/>
      <point x="727" y="881" type="curve" smooth="yes"/>
      <point x="828" y="881"/>
      <point x="904" y="848"/>
      <point x="968" y="772" type="curve"/>
    </contour>
  </outline>
</glyph>
<glyph name="d" format="2">
  <advance width="1300"/>
  <unicode hex="0064"/>
  <outline>
    <contour>
      <point x="1148" y="0" type="line"/>
      <point x="1126" y="209" type="line"/>
      <point x="1126" y="1600" type="line"/>
      <point x="800" y="1632" type="line"/>
      <point x="800" y="1100" type="line"/>
      <point x="730" y="1100" type="line" smooth="yes"/>
      <point x="375" y="1100"/>
      <point x="148" y="846"/>
      <point x="148" y="528" type="curve" smooth="yes"/>
      <point x="148" y="212"/>
      <point x="341" y="-17"/>
      <point x="586" y="-17" type="curve" smooth="yes"/>
      <point x="642" y="-17"/>
      <point x="654" y="-15"/>
      <point x="675" y="-10" type="curve"/>
      <point x="800" y="162" type="line"/>
      <point x="800" y="0" type="line"/>
    </contour>
    <contour>
      <point x="800" y="316" type="line"/>
      <point x="776" y="262"/>
      <point x="728" y="200"/>
      <point x="633" y="200" type="curve" smooth="yes"/>
      <point x="540" y="200"/>
      <point x="473" y="319"/>
      <point x="473" y="515" type="curve" smooth="yes"/>
      <point x="473" y="721"/>
      <point x="554" y="900"/>
      <point x="731" y="900" type="curve" smooth="yes"/>
      <point x="800" y="900" type="line"/>
    </contour>
  </outline>
</glyph>
<glyph name="e" format="2">
  <advance width="1300"/>
  <unicode hex="0065"/>
  <outline>
    <contour>
      <point x="343" y="653" type="line"/>
      <point x="434" y="756" type="line"/>
      <point x="456" y="808"/>
      <point x="522" y="900"/>
      <point x="657" y="900" type="curve" smooth="yes"/>
      <point x="793" y="900"/>
      <point x="865" y="794"/>
      <point x="865" y="672" type="curve"/>
      <point x="516" y="671" type="line"/>
    </contour>
    <contour>
      <point x="1000" y="300" type="line"/>
      <point x="963" y="268"/>
      <point x="843" y="200"/>
      <point x="706" y="200" type="curve" smooth="yes"/>
      <point x="563" y="200"/>
      <point x="405" y="322"/>
      <point x="400" y="466" type="curve"/>
      <point x="1147" y="466" type="line"/>
      <point x="1154" y="534"/>
      <point x="1159" y="596"/>
      <point x="1159" y="632" type="curve" smooth="yes"/>
      <point x="1159" y="919"/>
      <point x="973" y="1116"/>
      <point x="653" y="1116" type="curve" smooth="yes"/>
      <point x="309" y="1116"/>
      <point x="100" y="833"/>
      <point x="100" y="550" type="curve" smooth="yes"/>
      <point x="100" y="255"/>
      <point x="302" y="-16"/>
      <point x="686" y="-16" type="curve" smooth="yes"/>
      <point x="906" y="-16"/>
      <point x="1042" y="60"/>
      <point x="1148" y="158" type="curve"/>
    </contour>
  </outline>
</glyph>
<glyph name="f" format="2">
  <advance width="1300"/>
  <unicode hex="0066"/>
  <outline>
    <contour>
      <point x="100" y="876" type="line"/>
      <point x="320" y="876" type="line"/>
      <point x="320" y="0" type="line"/>
      <point x="647" y="0" type="line"/>
      <point x="647" y="876" type="line"/>
      <point x="1036" y="876" type="line"/>
      <point x="1063" y="1100" type="line"/>
      <point x="642" y="1100" type="line"/>
      <point x="642" y="1198" type="line" smooth="yes"/>
      <point x="642" y="1314"/>
      <point x="747" y="1376"/>
      <point x="824" y="1376" type="curve" smooth="yes"/>
      <point x="914" y="1376"/>
      <point x="997" y="1327"/>
      <point x="1037" y="1300" type="curve"/>
      <point x="1170" y="1486" type="line"/>
      <point x="1091" y="1539"/>
      <point x="964" y="1600"/>
      <point x="794" y="1600" type="curve" smooth="yes"/>
      <point x="534" y="1600"/>
      <point x="320" y="1441"/>
      <point x="320" y="1207" type="curve" smooth="yes"/>
      <point x="320" y="1100" type="line"/>
      <point x="100" y="1100" type="line"/>
    </contour>
  </outline>
</glyph>
<glyph name="g" format="2">
  <advance width="1300"/>
  <unicode hex="0067"/>
  <outline>
    <contour>
      <point x="827" y="287" type="line"/>
      <point x="784" y="238"/>
      <point x="735" y="200"/>
      <point x="656" y="200" type="curve" smooth="yes"/>
      <point x="557" y="200"/>
      <point x="452" y="345"/>
      <point x="452" y="534" type="curve" smooth="yes"/>
      <point x="452" y="685"/>
      <point x="519" y="900"/>
      <point x="679" y="900" type="curve" smooth="yes"/>
      <point x="739" y="900"/>
      <point x="790" y="863"/>
      <point x="827" y="820" type="curve"/>
    </contour>
    <contour>
      <point x="828" y="-27" type="line" smooth="yes"/>
      <point x="828" y="-176"/>
      <point x="718" y="-293"/>
      <point x="605" y="-293" type="curve" smooth="yes"/>
      <point x="513" y="-293"/>
      <point x="412" y="-229"/>
      <point x="369" y="-192" type="curve"/>
      <point x="225" y="-359" type="line"/>
      <point x="329" y="-460"/>
      <point x="440" y="-517"/>
      <point x="614" y="-517" type="curve" smooth="yes"/>
      <point x="944" y="-517"/>
      <point x="1153" y="-304"/>
      <point x="1153" y="-41" type="curve" smooth="yes"/>
      <point x="1153" y="1100" type="line"/>
      <point x="827" y="1120" type="line"/>
      <point x="827" y="958" type="line"/>
      <point x="736" y="1114" type="line"/>
      <point x="723" y="1117"/>
      <point x="708" y="1117"/>
      <point x="684" y="1117" type="curve" smooth="yes"/>
      <point x="341" y="1117"/>
      <point x="125" y="857"/>
      <point x="125" y="545" type="curve" smooth="yes"/>
      <point x="125" y="237"/>
      <point x="372" y="-17"/>
      <point x="641" y="-17" type="curve" smooth="yes"/>
      <point x="718" y="-17"/>
      <point x="785" y="-3"/>
      <point x="828" y="16" type="curve"/>
    </contour>
  </outline>
</glyph>
<glyph name="j" format="2">
  <advance width="1300"/>
  <unicode hex="006A"/>
  <outline>
    <contour>
      <point x="593" y="1240" type="line"/>
      <point x="930" y="1240" type="line"/>
      <point x="930" y="1501" type="line"/>
      <point x="593" y="1501" type="line"/>
    </contour>
    <contour>
      <point x="598" y="826" type="line"/>
      <point x="598" y="-77" type="line" smooth="yes"/>
      <point x="598" y="-186"/>
      <point x="542" y="-264"/>
      <point x="462" y="-264" type="curve" smooth="yes"/>
      <point x="374" y="-264"/>
      <point x="313" y="-237"/>
      <point x="244" y="-170" type="curve"/>
      <point x="185" y="-402" type="line"/>
      <point x="220" y="-432"/>
      <point x="292" y="-517"/>
      <point x="481" y="-517" type="curve" smooth="yes"/>
      <point x="787" y="-517"/>
      <point x="925" y="-311"/>
      <point x="925" y="-68" type="curve" smooth="yes"/>
      <point x="925" y="1100" type="line"/>
      <point x="295" y="1100" type="line"/>
      <point x="323" y="876" type="line"/>
      <point x="498" y="876" type="line"/>
      <point x="668" y="916" type="line"/>
    </contour>
  </outline>
</glyph>
<glyph name="k" format="2">
  <advance width="1300"/>
  <unicode hex="006B"/>
  <outline>
    <contour>
      <point x="493" y="0" type="line"/>
      <point x="493" y="458" type="line"/>
      <point x="852" y="0" type="line"/>
      <point x="1200" y="0" type="line"/>
      <point x="722" y="564" type="line"/>
      <point x="533" y="627" type="line"/>
      <point x="737" y="700" type="line"/>
      <point x="1099" y="1100" type="line"/>
      <point x="758" y="1100" type="line"/>
      <point x="493" y="769" type="line"/>
      <point x="493" y="1631" type="line"/>
      <point x="165" y="1600" type="line"/>
      <point x="187" y="1397" type="line"/>
      <point x="187" y="0" type="line"/>
    </contour>
  </outline>
</glyph>
<glyph name="l" format="2">
  <advance width="1300"/>
  <unicode hex="006C"/>
  <outline>
    <contour>
      <point x="423" y="1292" type="line"/>
      <point x="423" y="410" type="line" smooth="yes"/>
      <point x="423" y="177"/>
      <point x="551" y="-17"/>
      <point x="838" y="-17" type="curve" smooth="yes"/>
      <point x="1025" y="-17"/>
      <point x="1096" y="83"/>
      <point x="1125" y="107" type="curve"/>
      <point x="1017" y="300" type="line"/>
      <point x="982" y="257"/>
      <point x="930" y="208"/>
      <point x="856" y="208" type="curve" smooth="yes"/>
      <point x="799" y="208"/>
      <point x="740" y="252"/>
      <point x="740" y="388" type="curve" smooth="yes"/>
      <point x="740" y="1566" type="line"/>
      <point x="120" y="1566" type="line"/>
      <point x="147" y="1342" type="line"/>
      <point x="323" y="1342" type="line"/>
      <point x="493" y="1382" type="line"/>
    </contour>
  </outline>
</glyph>
<glyph name="n" format="2">
  <advance width="1300"/>
  <unicode hex="006E"/>
  <outline>
    <contour>
      <point x="461" y="808" type="line"/>
      <point x="514" y="865"/>
      <point x="567" y="892"/>
      <point x="651" y="892" type="curve" smooth="yes"/>
      <point x="725" y="892"/>
      <point x="796" y="845"/>
      <point x="796" y="736" type="curve" smooth="yes"/>
      <point x="796" y="0" type="line"/>
      <point x="1113" y="0" type="line"/>
      <point x="1113" y="736" type="line" smooth="yes"/>
      <point x="1113" y="968"/>
      <point x="965" y="1117"/>
      <point x="721" y="1117" type="curve" smooth="yes"/>
      <point x="644" y="1117"/>
      <point x="589" y="1113"/>
      <point x="538" y="1100" type="curve"/>
      <point x="461" y="1000" type="line"/>
      <point x="461" y="1120" type="line"/>
      <point x="144" y="1100" type="line"/>
      <point x="144" y="0" type="line"/>
      <point x="461" y="0" type="line"/>
    </contour>
  </outline>
</glyph>
<glyph name="o" format="2">
  <advance width="1300"/>
  <unicode hex="006F"/>
  <outline>
    <contour>
      <point x="838" y="528" type="curve" smooth="yes"/>
      <point x="838" y="364"/>
      <point x="776" y="203"/>
      <point x="631" y="203" type="curve" smooth="yes"/>
      <point x="475" y="203"/>
      <point x="408" y="388"/>
      <point x="408" y="571" type="curve" smooth="yes"/>
      <point x="408" y="736"/>
      <point x="475" y="897"/>
      <point x="623" y="897" type="curve" smooth="yes"/>
      <point x="779" y="897"/>
      <point x="838" y="709"/>
    </contour>
    <contour>
      <point x="627" y="-17" type="curve" smooth="yes"/>
      <point x="957" y="-17"/>
      <point x="1164" y="229"/>
      <point x="1164" y="553" type="curve" smooth="yes"/>
      <point x="1164" y="855"/>
      <point x="964" y="1117"/>
      <point x="647" y="1117" type="curve" smooth="yes"/>
      <point x="606" y="1117" type="line" smooth="yes"/>
      <point x="287" y="1117"/>
      <point x="81" y="860"/>
      <point x="81" y="553" type="curve" smooth="yes"/>
      <point x="81" y="229"/>
      <point x="308" y="-17"/>
    </contour>
  </outline>
</glyph>
<glyph name="p" format="2">
  <advance width="1300"/>
  <unicode hex="0070"/>
  <outline>
    <contour>
      <point x="476" y="811" type="line"/>
      <point x="521" y="854"/>
      <point x="590" y="900"/>
      <point x="663" y="900" type="curve" smooth="yes"/>
      <point x="784" y="900"/>
      <point x="880" y="793"/>
      <point x="880" y="576" type="curve" smooth="yes"/>
      <point x="880" y="368"/>
      <point x="733" y="200"/>
      <point x="554" y="200" type="curve" smooth="yes"/>
      <point x="476" y="200" type="line"/>
    </contour>
    <contour>
      <point x="476" y="0" type="line"/>
      <point x="537" y="0" type="line" smooth="yes"/>
      <point x="903" y="0"/>
      <point x="1178" y="236"/>
      <point x="1178" y="564" type="curve" smooth="yes"/>
      <point x="1178" y="900"/>
      <point x="937" y="1117"/>
      <point x="690" y="1117" type="curve" smooth="yes"/>
      <point x="658" y="1117"/>
      <point x="628" y="1114"/>
      <point x="600" y="1110" type="curve"/>
      <point x="476" y="944" type="line"/>
      <point x="476" y="1120" type="line"/>
      <point x="150" y="1100" type="line"/>
      <point x="150" y="-500" type="line"/>
      <point x="476" y="-500" type="line"/>
    </contour>
  </outline>
</glyph>
<glyph name="q" format="2">
  <advance width="1300"/>
  <unicode hex="0071"/>
  <outline>
    <contour>
      <point x="819" y="278" type="line"/>
      <point x="780" y="231"/>
      <point x="745" y="200"/>
      <point x="648" y="200" type="curve" smooth="yes"/>
      <point x="543" y="200"/>
      <point x="438" y="303"/>
      <point x="438" y="526" type="curve" smooth="yes"/>
      <point x="438" y="697"/>
      <point x="527" y="900"/>
      <point x="694" y="900" type="curve" smooth="yes"/>
      <point x="745" y="900"/>
      <point x="779" y="896"/>
      <point x="819" y="891" type="curve"/>
    </contour>
    <contour>
      <point x="1145" y="-500" type="line"/>
      <point x="1145" y="1038" type="line"/>
      <point x="1076" y="1062"/>
      <point x="868" y="1117"/>
      <point x="698" y="1117" type="curve" smooth="yes"/>
      <point x="381" y="1117"/>
      <point x="117" y="891"/>
      <point x="117" y="526" type="curve" smooth="yes"/>
      <point x="117" y="189"/>
      <point x="365" y="-17"/>
      <point x="610" y="-17" type="curve" smooth="yes"/>
      <point x="639" y="-17"/>
      <point x="670" y="-14"/>
      <point x="702" y="-8" type="curve"/>
      <point x="819" y="136" type="line"/>
      <point x="819" y="-500" type="line"/>
    </contour>
  </outline>
</glyph>
<glyph name="r" format="2">
  <advance width="1300"/>
  <unicode hex="0072"/>
  <outline>
    <contour>
      <point x="462" y="1120" type="line"/>
      <point x="145" y="1100" type="line"/>
      <point x="145" y="0" type="line"/>
      <point x="462" y="0" type="line"/>
      <point x="462" y="750" type="line"/>
      <point x="523" y="835"/>
      <point x="614" y="885"/>
      <point x="743" y="885" type="curve" smooth="yes"/>
      <point x="756" y="885"/>
      <point x="770" y="884"/>
      <point x="783" y="882" type="curve"/>
      <point x="788" y="881"/>
      <point x="793" y="881"/>
      <point x="798" y="880" type="curve"/>
      <point x="799" y="880" type="line"/>
      <point x="801" y="879"/>
      <point x="803" y="879"/>
      <point x="806" y="879" type="curve"/>
      <point x="807" y="878" type="line"/>
      <point x="812" y="877"/>
      <point x="818" y="877"/>
      <point x="823" y="876" type="curve"/>
      <point x="872" y="700" type="line"/>
      <point x="1152" y="735" type="line"/>
      <point x="1102" y="1032" type="line"/>
      <point x="1057" y="1061"/>
      <point x="957" y="1117"/>
      <point x="741" y="1117" type="curve" smooth="yes"/>
      <point x="677" y="1117"/>
      <point x="611" y="1120"/>
      <point x="539" y="1100" type="curve"/>
      <point x="462" y="1000" type="line"/>
    </contour>
  </outline>
</glyph>
<glyph name="s" format="2">
  <advance width="1300"/>
  <unicode hex="0073"/>
  <outline>
    <contour>
      <point x="1070" y="1022" type="line"/>
      <point x="998" y="1067"/>
      <point x="837" y="1117"/>
      <point x="688" y="1117" type="curve" smooth="yes"/>
      <point x="412" y="1117"/>
      <point x="158" y="1025"/>
      <point x="158" y="822" type="curve" smooth="yes"/>
      <point x="158" y="715"/>
      <point x="207" y="614"/>
      <point x="383" y="531" type="curve"/>
      <point x="382" y="531" type="line"/>
      <point x="425" y="510"/>
      <point x="509" y="491"/>
      <point x="586" y="475" type="curve" smooth="yes"/>
      <point x="693" y="454"/>
      <point x="836" y="427"/>
      <point x="836" y="354" type="curve" smooth="yes"/>
      <point x="836" y="235"/>
      <point x="633" y="208"/>
      <point x="542" y="208" type="curve" smooth="yes"/>
      <point x="418" y="208"/>
      <point x="317" y="249"/>
      <point x="225" y="305" type="curve"/>
      <point x="127" y="95" type="line"/>
      <point x="218" y="31"/>
      <point x="381" y="-17"/>
      <point x="540" y="-17" type="curve" smooth="yes"/>
      <point x="793" y="-17"/>
      <point x="1137" y="88"/>
      <point x="1137" y="355" type="curve" smooth="yes"/>
      <point x="1137" y="483"/>
      <point x="1025" y="587"/>
      <point x="892" y="640" type="curve"/>
      <point x="852" y="655"/>
      <point x="783" y="669"/>
      <point x="715" y="684" type="curve" smooth="yes"/>
      <point x="599" y="708"/>
      <point x="438" y="735"/>
      <point x="438" y="804" type="curve" smooth="yes"/>
      <point x="438" y="880"/>
      <point x="579" y="898"/>
      <point x="694" y="898" type="curve" smooth="yes"/>
      <point x="819" y="898"/>
      <point x="912" y="849"/>
      <point x="985" y="802" type="curve"/>
    </contour>
  </outline>
</glyph>
<glyph name="w" format="2">
  <advance width="1300"/>
  <unicode hex="0077"/>
  <outline>
    <contour>
      <point x="743" y="900" type="line"/>
      <point x="508" y="900" type="line"/>
      <point x="443" y="600" type="line"/>
      <point x="400" y="300" type="line"/>
      <point x="390" y="300" type="line"/>
      <point x="394" y="700" type="line"/>
      <point x="322" y="1120" type="line"/>
      <point x="34" y="1100" type="line"/>
      <point x="248" y="0" type="line"/>
      <point x="513" y="0" type="line"/>
      <point x="609" y="400" type="line"/>
      <point x="625" y="600" type="line"/>
      <point x="641" y="400" type="line"/>
      <point x="740" y="0" type="line"/>
      <point x="1006" y="0" type="line"/>
      <point x="1225" y="1120" type="line"/>
      <point x="932" y="1100" type="line"/>
      <point x="859" y="700" type="line"/>
      <point x="870" y="300" type="line"/>
      <point x="860" y="300" type="line"/>
      <point x="809" y="600" type="line"/>
    </contour>
  </outline>
</glyph>
<glyph name="y" format="2">
  <advance width="1300"/>
  <unicode hex="0079"/>
  <outline>
    <contour>
      <point x="408" y="1120" type="line"/>
      <point x="82" y="1100" type="line"/>
      <point x="501" y="-47" type="line"/>
      <point x="452" y="-164"/>
      <point x="409" y="-234"/>
      <point x="352" y="-234" type="curve" smooth="yes"/>
      <point x="316" y="-234"/>
      <point x="281" y="-214"/>
      <point x="250" y="-194" type="curve"/>
      <point x="127" y="-374" type="line"/>
      <point x="204" y="-442"/>
      <point x="294" y="-480"/>
      <point x="383" y="-480" type="curve" smooth="yes"/>
      <point x="606" y="-480"/>
      <point x="721" y="-213"/>
      <point x="802" y="8" type="curve" smooth="yes"/>
      <point x="1210" y="1120" type="line"/>
      <point x="890" y="1100" type="line"/>
      <point x="727" y="670" type="line"/>
      <point x="648" y="200" type="line"/>
      <point x="571" y="670" type="line"/>
    </contour>
  </outline>
</glyph>
<glyph name="z" format="2">
  <advance width="1300"/>
  <unicode hex="007A"/>
  <outline>
    <contour>
      <point x="464" y="175" type="line"/>
      <point x="671" y="339" type="line"/>
      <point x="1066" y="1017" type="line"/>
      <point x="1034" y="1100" type="line"/>
      <point x="238" y="1100" type="line"/>
      <point x="265" y="900" type="line"/>
      <point x="539" y="900" type="line"/>
      <point x="790" y="925" type="line"/>
      <point x="579" y="757" type="line"/>
      <point x="179" y="85" type="line"/>
      <point x="212" y="0" type="line"/>
      <point x="1115" y="0" type="line"/>
      <point x="1088" y="200" type="line"/>
      <point x="715" y="200" type="line"/>
    </contour>
  </outline>
</glyph>
<glyph name="bar" format="2">
  <advance width="1300"/>
  <unicode hex="007C"/>
  <outline>
    <contour>
      <point x="434" y="1500" type="line"/>
      <point x="434" y="-380" type="line"/>
      <point x="766" y="-380" type="line"/>
      <point x="766" y="1520" type="line"/>
    </contour>
  </outline>
</glyph>
<glyph name="braceright" format="2">
  <advance width="1300"/>
  <unicode hex="007D"/>
  <outline>
    <contour>
      <point x="297" y="1260" type="line"/>
      <point x="342" y="1287"/>
      <point x="406" y="1305"/>
      <point x="453" y="1305" type="curve"/>
      <point x="533" y="1300"/>
      <point x="543" y="1227"/>
      <point x="543" y="1099" type="curve" smooth="yes"/>
      <point x="543" y="864" type="line" smooth="yes"/>
      <point x="543" y="714"/>
      <point x="635" y="603"/>
      <point x="707" y="550" type="curve"/>
      <point x="635" y="497"/>
      <point x="543" y="386"/>
      <point x="543" y="238" type="curve" smooth="yes"/>
      <point x="543" y="-2" type="line" smooth="yes"/>
      <point x="543" y="-130"/>
      <point x="533" y="-208"/>
      <point x="453" y="-208" type="curve" smooth="yes"/>
      <point x="406" y="-208"/>
      <point x="342" y="-190"/>
      <point x="297" y="-163" type="curve"/>
      <point x="201" y="-348" type="line"/>
      <point x="289" y="-388"/>
      <point x="356" y="-420"/>
      <point x="496" y="-420" type="curve" smooth="yes"/>
      <point x="797" y="-420"/>
      <point x="885" y="-239"/>
      <point x="885" y="-2" type="curve" smooth="yes"/>
      <point x="885" y="238" type="line" smooth="yes"/>
      <point x="885" y="357"/>
      <point x="901" y="429"/>
      <point x="962" y="442" type="curve"/>
      <point x="1100" y="462" type="line"/>
      <point x="1100" y="640" type="line"/>
      <point x="962" y="660" type="line"/>
      <point x="901" y="675"/>
      <point x="885" y="747"/>
      <point x="885" y="864" type="curve" smooth="yes"/>
      <point x="885" y="1099" type="line" smooth="yes"/>
      <point x="885" y="1336"/>
      <point x="797" y="1517"/>
      <point x="496" y="1517" type="curve" smooth="yes"/>
      <point x="357" y="1517"/>
      <point x="288" y="1487"/>
      <point x="201" y="1445" type="curve"/>
    </contour>
  </outline>
</glyph>
<glyph name="exclamdown" format="2">
  <advance width="1300"/>
  <unicode hex="00A1"/>
  <outline>
    <contour>
      <point x="338" y="951" type="curve" smooth="yes"/>
      <point x="338" y="861"/>
      <point x="411" y="787"/>
      <point x="501" y="787" type="curve" smooth="yes"/>
      <point x="591" y="787"/>
      <point x="664" y="861"/>
      <point x="664" y="951" type="curve" smooth="yes"/>
      <point x="664" y="1040"/>
      <point x="593" y="1117"/>
      <point x="502" y="1117" type="curve" smooth="yes"/>
      <point x="411" y="1117"/>
      <point x="338" y="1040"/>
    </contour>
    <contour>
      <point x="652" y="-400" type="line"/>
      <point x="652" y="656" type="line"/>
      <point x="352" y="691" type="line"/>
      <point x="352" y="-400" type="line"/>
    </contour>
  </outline>
</glyph>
<glyph name="cent" format="2">
  <advance width="1300"/>
  <unicode hex="00A2"/>
  <outline>
    <contour>
      <point x="1140" y="961" type="line"/>
      <point x="1067" y="1041"/>
      <point x="990" y="1085"/>
      <point x="901" y="1105" type="curve"/>
      <point x="901" y="1340" type="line"/>
      <point x="611" y="1302" type="line"/>
      <point x="611" y="1095" type="line"/>
      <point x="356" y="1026"/>
      <point x="237" y="808"/>
      <point x="237" y="575" type="curve" smooth="yes"/>
      <point x="237" y="319"/>
      <point x="363" y="81"/>
      <point x="611" y="6" type="curve"/>
      <point x="611" y="-190" type="line"/>
      <point x="901" y="-190" type="line"/>
      <point x="901" y="-5" type="line"/>
      <point x="989" y="11"/>
      <point x="1067" y="46"/>
      <point x="1135" y="93" type="curve"/>
      <point x="1023" y="288" type="line"/>
      <point x="986" y="262"/>
      <point x="945" y="240"/>
      <point x="901" y="223" type="curve"/>
      <point x="901" y="877" type="line"/>
      <point x="928" y="864"/>
      <point x="957" y="845"/>
      <point x="989" y="814" type="curve"/>
    </contour>
    <contour>
      <point x="521" y="563" type="curve" smooth="yes"/>
      <point x="521" y="731"/>
      <point x="572" y="829"/>
      <point x="659" y="873" type="curve"/>
      <point x="659" y="232" type="line"/>
      <point x="570" y="284"/>
      <point x="521" y="394"/>
    </contour>
  </outline>
</glyph>
<glyph name="sterling" format="2">
  <advance width="1300"/>
  <unicode hex="00A3"/>
  <outline>
    <contour>
      <point x="531" y="157" type="line"/>
      <point x="673" y="331" type="line"/>
      <point x="700" y="439"/>
      <point x="707" y="495"/>
      <point x="728" y="665" type="curve"/>
      <point x="926" y="665" type="line"/>
      <point x="953" y="883" type="line"/>
      <point x="758" y="883" type="line"/>
      <point x="791" y="1116" type="line" smooth="yes"/>
      <point x="807" y="1228"/>
      <point x="829" y="1303"/>
      <point x="891" y="1303" type="curve" smooth="yes"/>
      <point x="931" y="1303"/>
      <point x="970" y="1288"/>
      <point x="1037" y="1228" type="curve"/>
      <point x="1167" y="1395" type="line"/>
      <point x="1065" y="1484"/>
      <point x="992" y="1517"/>
      <point x="847" y="1517" type="curve" smooth="yes"/>
      <point x="598" y="1517"/>
      <point x="504" y="1362"/>
      <point x="472" y="1150" type="curve"/>
      <point x="434" y="883" type="line"/>
      <point x="275" y="883" type="line"/>
      <point x="275" y="665" type="line"/>
      <point x="403" y="665" type="line"/>
      <point x="367" y="417"/>
      <point x="337" y="286"/>
      <point x="326" y="249" type="curve" smooth="yes"/>
      <point x="319" y="225"/>
      <point x="316" y="219"/>
      <point x="313" y="216" type="curve"/>
      <point x="180" y="216" type="line"/>
      <point x="151" y="0" type="line"/>
      <point x="1100" y="0" type="line"/>
      <point x="1100" y="216" type="line"/>
      <point x="779" y="216" type="line"/>
    </contour>
  </outline>
</glyph>
<glyph name="brokenbar" format="2">
  <advance width="1300"/>
  <unicode hex="00A6"/>
  <outline>
    <contour>
      <point x="529" y="1500" type="line"/>
      <point x="529" y="700" type="line"/>
      <point x="871" y="700" type="line"/>
      <point x="871" y="1520" type="line"/>
    </contour>
    <contour>
      <point x="529" y="362" type="line"/>
      <point x="529" y="-400" type="line"/>
      <point x="871" y="-400" type="line"/>
      <point x="871" y="362" type="line"/>
    </contour>
  </outline>
</glyph>
<glyph name="dieresis" format="2">
  <advance width="1300"/>
  <unicode hex="00A8"/>
  <outline>
    <contour>
      <point x="262" y="1300" type="line"/>
      <point x="538" y="1300" type="line"/>
      <point x="538" y="1566" type="line"/>
      <point x="262" y="1566" type="line"/>
    </contour>
    <contour>
      <point x="662" y="1300" type="line"/>
      <point x="938" y="1300" type="line"/>
      <point x="938" y="1566" type="line"/>
      <point x="662" y="1566" type="line"/>
    </contour>
  </outline>
</glyph>
<glyph name="copyright" format="2">
  <advance width="1300"/>
  <unicode hex="00A9"/>
  <outline>
    <contour>
      <point x="650" y="1517" type="curve" smooth="yes"/>
      <point x="391" y="1517"/>
      <point x="180" y="1306"/>
      <point x="180" y="1047" type="curve" smooth="yes"/>
      <point x="180" y="787"/>
      <point x="391" y="577"/>
      <point x="650" y="577" type="curve" smooth="yes"/>
      <point x="909" y="577"/>
      <point x="1120" y="787"/>
      <point x="1120" y="1047" type="curve" smooth="yes"/>
      <point x="1120" y="1306"/>
      <point x="909" y="1517"/>
    </contour>
    <contour>
      <point x="650" y="701" type="curve" smooth="yes"/>
      <point x="461" y="701"/>
      <point x="304" y="861"/>
      <point x="304" y="1047" type="curve" smooth="yes"/>
      <point x="304" y="1239"/>
      <point x="458" y="1393"/>
      <point x="650" y="1393" type="curve" smooth="yes"/>
      <point x="842" y="1393"/>
      <point x="996" y="1239"/>
      <point x="996" y="1047" type="curve" smooth="yes"/>
      <point x="996" y="858"/>
      <point x="836" y="701"/>
    </contour>
    <contour>
      <point x="860" y="1231" type="line"/>
      <point x="809" y="1282"/>
      <point x="754" y="1302"/>
      <point x="682" y="1302" type="curve" smooth="yes"/>
      <point x="495" y="1302"/>
      <point x="409" y="1183"/>
      <point x="409" y="1058" type="curve" smooth="yes"/>
      <point x="409" y="920"/>
      <point x="500" y="791"/>
      <point x="679" y="791" type="curve" smooth="yes"/>
      <point x="751" y="791"/>
      <point x="809" y="810"/>
      <point x="858" y="841" type="curve"/>
      <point x="802" y="929" type="line"/>
      <point x="767" y="906"/>
      <point x="721" y="889"/>
      <point x="686" y="889" type="curve" smooth="yes"/>
      <point x="601" y="889"/>
      <point x="574" y="969"/>
      <point x="574" y="1052" type="curve" smooth="yes"/>
      <point x="574" y="1132"/>
      <point x="603" y="1204"/>
      <point x="681" y="1204" type="curve" smooth="yes"/>
      <point x="713" y="1204"/>
      <point x="744" y="1200"/>
      <point x="785" y="1165" type="curve"/>
    </contour>
  </outline>
</glyph>
<glyph name="logicalnot" format="2">
  <advance width="1300"/>
  <unicode hex="00AC"/>
  <outline>
    <contour>
      <point x="62" y="827" type="line"/>
      <point x="62" y="600" type="line"/>
      <point x="912" y="600" type="line"/>
      <point x="900" y="459" type="line"/>
      <point x="900" y="258" type="line"/>
      <point x="1242" y="258" type="line"/>
      <point x="1242" y="586" type="line"/>
      <point x="1261" y="827" type="line"/>
    </contour>
  </outline>
</glyph>
<glyph name="registered" format="2">
  <advance width="1300"/>
  <unicode hex="00AE"/>
  <outline>
    <contour>
      <point x="650" y="1517" type="curve" smooth="yes"/>
      <point x="391" y="1517"/>
      <point x="180" y="1306"/>
      <point x="180" y="1047" type="curve" smooth="yes"/>
      <point x="180" y="787"/>
      <point x="391" y="577"/>
      <point x="650" y="577" type="curve" smooth="yes"/>
      <point x="909" y="577"/>
      <point x="1120" y="787"/>
      <point x="1120" y="1047" type="curve" smooth="yes"/>
      <point x="1120" y="1306"/>
      <point x="909" y="1517"/>
    </contour>
    <contour>
      <point x="650" y="701" type="curve" smooth="yes"/>
      <point x="461" y="701"/>
      <point x="304" y="861"/>
      <point x="304" y="1047" type="curve" smooth="yes"/>
      <point x="304" y="1239"/>
      <point x="458" y="1393"/>
      <point x="650" y="1393" type="curve" smooth="yes"/>
      <point x="842" y="1393"/>
      <point x="996" y="1239"/>
      <point x="996" y="1047" type="curve" smooth="yes"/>
      <point x="996" y="858"/>
      <point x="836" y="701"/>
    </contour>
    <contour>
      <point x="752" y="800" type="line"/>
      <point x="869" y="800" type="line"/>
      <point x="730" y="993" type="line"/>
      <point x="685" y="1004" type="line"/>
      <point x="755" y="1023"/>
      <point x="817" y="1064"/>
      <point x="817" y="1158" type="curve" smooth="yes"/>
      <point x="817" y="1251"/>
      <point x="738" y="1300"/>
      <point x="621" y="1300" type="curve" smooth="yes"/>
      <point x="584" y="1300"/>
      <point x="520" y="1294"/>
      <point x="482" y="1291" type="curve"/>
      <point x="494" y="1218" type="line"/>
      <point x="494" y="800" type="line"/>
      <point x="607" y="800" type="line"/>
      <point x="607" y="993" type="line"/>
      <point x="610" y="993"/>
      <point x="617" y="992"/>
      <point x="622" y="987" type="curve"/>
    </contour>
    <contour>
      <point x="601" y="1231" type="line"/>
      <point x="605" y="1232"/>
      <point x="609" y="1232"/>
      <point x="612" y="1232" type="curve"/>
      <point x="612" y="1232" type="line"/>
      <point x="615" y="1232" type="line"/>
      <point x="615" y="1232" type="line"/>
      <point x="628" y="1232" type="line" smooth="yes"/>
      <point x="667" y="1232"/>
      <point x="711" y="1215"/>
      <point x="711" y="1153" type="curve" smooth="yes"/>
      <point x="711" y="1106"/>
      <point x="684" y="1065"/>
      <point x="627" y="1065" type="curve" smooth="yes"/>
      <point x="607" y="1065" type="line"/>
      <point x="607" y="1174" type="line"/>
    </contour>
  </outline>
</glyph>
<glyph name="macron" format="2">
  <advance width="1300"/>
  <unicode hex="00AF"/>
  <outline>
    <contour>
      <point x="300" y="1282" type="line"/>
      <point x="1000" y="1282" type="line"/>
      <point x="1000" y="1500" type="line"/>
      <point x="300" y="1500" type="line"/>
    </contour>
  </outline>
</glyph>
<glyph name="degree" format="2">
  <advance width="1300"/>
  <unicode hex="00B0"/>
  <outline>
    <contour>
      <point x="500" y="1517" type="curve" smooth="yes"/>
      <point x="336" y="1517"/>
      <point x="204" y="1396"/>
      <point x="204" y="1247" type="curve" smooth="yes"/>
      <point x="204" y="1099"/>
      <point x="336" y="977"/>
      <point x="500" y="977" type="curve" smooth="yes"/>
      <point x="664" y="977"/>
      <point x="796" y="1099"/>
      <point x="796" y="1247" type="curve" smooth="yes"/>
      <point x="796" y="1396"/>
      <point x="664" y="1517"/>
    </contour>
    <contour>
      <point x="500" y="1145" type="curve" smooth="yes"/>
      <point x="439" y="1145"/>
      <point x="388" y="1191"/>
      <point x="388" y="1247" type="curve" smooth="yes"/>
      <point x="388" y="1303"/>
      <point x="439" y="1349"/>
      <point x="500" y="1349" type="curve" smooth="yes"/>
      <point x="561" y="1349"/>
      <point x="612" y="1303"/>
      <point x="612" y="1247" type="curve" smooth="yes"/>
      <point x="612" y="1191"/>
      <point x="561" y="1145"/>
    </contour>
  </outline>
</glyph>
<glyph name="threesuperior" format="2">
  <advance width="1300"/>
  <unicode hex="00B3"/>
  <outline>
    <contour>
      <point x="240" y="1100" type="line"/>
      <point x="259" y="1101"/>
      <point x="323" y="1105"/>
      <point x="343" y="1105" type="curve" smooth="yes"/>
      <point x="426" y="1105"/>
      <point x="496" y="1079"/>
      <point x="496" y="1001" type="curve" smooth="yes"/>
      <point x="496" y="893"/>
      <point x="341" y="825"/>
      <point x="184" y="820" type="curve"/>
      <point x="184" y="720" type="line"/>
      <point x="405" y="720"/>
      <point x="667" y="808"/>
      <point x="667" y="1006" type="curve" smooth="yes"/>
      <point x="667" y="1129"/>
      <point x="574" y="1204"/>
      <point x="433" y="1204" type="curve"/>
      <point x="511" y="1246" type="line"/>
      <point x="559" y="1288"/>
      <point x="600" y="1331"/>
      <point x="620" y="1383" type="curve"/>
      <point x="620" y="1470" type="line"/>
      <point x="199" y="1470" type="line"/>
      <point x="189" y="1370" type="line"/>
      <point x="354" y="1370" type="line"/>
      <point x="484" y="1407" type="line"/>
      <point x="436" y="1330"/>
      <point x="299" y="1231"/>
      <point x="240" y="1189" type="curve"/>
    </contour>
  </outline>
</glyph>
<glyph name="acute" format="2">
  <advance width="1300"/>
  <unicode hex="00B4"/>
  <outline>
    <contour>
      <point x="400" y="1200" type="line"/>
      <point x="615" y="1200" type="line"/>
      <point x="900" y="1520" type="line"/>
      <point x="563" y="1500" type="line"/>
    </contour>
  </outline>
</glyph>
<glyph name="paragraph" format="2">
  <advance width="1300"/>
  <unicode hex="00B6"/>
  <outline>
    <contour>
      <point x="933" y="-400" type="line"/>
      <point x="1200" y="-400" type="line"/>
      <point x="1200" y="1500" type="line"/>
      <point x="630" y="1500" type="line" smooth="yes"/>
      <point x="399" y="1500"/>
      <point x="115" y="1399"/>
      <point x="115" y="1050" type="curve" smooth="yes"/>
      <point x="115" y="749"/>
      <point x="325" y="631"/>
      <point x="530" y="604" type="curve"/>
      <point x="530" y="-400" type="line"/>
      <point x="799" y="-400" type="line"/>
      <point x="799" y="1298" type="line"/>
      <point x="933" y="1298" type="line"/>
    </contour>
  </outline>
</glyph>
<glyph name="periodcentered" format="2">
  <advance width="1300"/>
  <unicode hex="00B7"/>
  <outline>
    <contour>
      <point x="453" y="683" type="curve" smooth="yes"/>
      <point x="453" y="574"/>
      <point x="542" y="483"/>
      <point x="652" y="483" type="curve" smooth="yes"/>
      <point x="760" y="483"/>
      <point x="848" y="574"/>
      <point x="848" y="683" type="curve" smooth="yes"/>
      <point x="848" y="792"/>
      <point x="759" y="881"/>
      <point x="650" y="881" type="curve" smooth="yes"/>
      <point x="542" y="881"/>
      <point x="453" y="792"/>
    </contour>
  </outline>
</glyph>
<glyph name="ordmasculine" format="2">
  <advance width="1300"/>
  <unicode hex="00BA"/>
  <outline>
    <contour>
      <point x="402" y="950" type="curve" smooth="yes"/>
      <point x="566" y="950"/>
      <point x="671" y="1073"/>
      <point x="671" y="1235" type="curve" smooth="yes"/>
      <point x="671" y="1399"/>
      <point x="558" y="1517"/>
      <point x="412" y="1517" type="curve" smooth="yes"/>
      <point x="402" y="1517" type="line"/>
      <point x="392" y="1517" type="line" smooth="yes"/>
      <point x="243" y="1517"/>
      <point x="129" y="1399"/>
      <point x="129" y="1235" type="curve" smooth="yes"/>
      <point x="129" y="1073"/>
      <point x="243" y="950"/>
    </contour>
    <contour>
      <point x="508" y="1223" type="curve" smooth="yes"/>
      <point x="508" y="1141"/>
      <point x="477" y="1060"/>
      <point x="404" y="1060" type="curve" smooth="yes"/>
      <point x="327" y="1060"/>
      <point x="293" y="1153"/>
      <point x="293" y="1244" type="curve" smooth="yes"/>
      <point x="293" y="1328"/>
      <point x="326" y="1407"/>
      <point x="400" y="1407" type="curve" smooth="yes"/>
      <point x="477" y="1407"/>
      <point x="508" y="1314"/>
    </contour>
    <contour>
      <point x="179" y="690" type="line"/>
      <point x="621" y="690" type="line"/>
      <point x="621" y="810" type="line"/>
      <point x="179" y="810" type="line"/>
    </contour>
  </outline>
</glyph>
<glyph name="onequarter" format="2">
  <advance width="1300"/>
  <unicode hex="00BC"/>
  <outline>
    <contour>
      <point x="1220" y="1500" type="line"/>
      <point x="1044" y="1500" type="line"/>
      <point x="269" y="0" type="line"/>
      <point x="454" y="0" type="line"/>
    </contour>
    <contour>
      <point x="1274" y="250" type="line"/>
      <point x="1174" y="250" type="line"/>
      <point x="1174" y="400" type="line"/>
      <point x="1014" y="390" type="line"/>
      <point x="1014" y="250" type="line"/>
      <point x="868" y="250" type="line"/>
      <point x="955" y="381" type="line"/>
      <point x="1121" y="750" type="line"/>
      <point x="980" y="760" type="line"/>
      <point x="734" y="250" type="line"/>
      <point x="734" y="150" type="line"/>
      <point x="1014" y="150" type="line"/>
      <point x="1014" y="0" type="line"/>
      <point x="1174" y="0" type="line"/>
      <point x="1174" y="150" type="line"/>
      <point x="1263" y="150" type="line"/>
    </contour>
    <contour>
      <point x="284" y="820" type="line"/>
      <point x="163" y="820" type="line"/>
      <point x="163" y="720" type="line"/>
      <point x="571" y="720" type="line"/>
      <point x="571" y="820" type="line"/>
      <point x="450" y="820" type="line"/>
      <point x="450" y="1470" type="line"/>
      <point x="328" y="1480" type="line"/>
      <point x="88" y="1261" type="line"/>
      <point x="166" y="1169" type="line"/>
      <point x="208" y="1206" type="line"/>
      <point x="321" y="1341" type="line"/>
      <point x="284" y="1160" type="line"/>
    </contour>
  </outline>
</glyph>
<glyph name="Agrave" format="2">
  <advance width="1300"/>
  <unicode hex="00C0"/>
  <outline>
    <contour>
      <point x="753" y="646" type="line"/>
      <point x="529" y="646" type="line"/>
      <point x="604" y="990" type="line"/>
      <point x="643" y="1331" type="line"/>
      <point x="681" y="990" type="line"/>
    </contour>
    <contour>
      <point x="470" y="427" type="line"/>
      <point x="812" y="427" type="line"/>
      <point x="916" y="0" type="line"/>
      <point x="1250" y="0" type="line"/>
      <point x="819" y="1520" type="line"/>
      <point x="441" y="1500" type="line"/>
      <point x="405" y="1284" type="line"/>
      <point x="50" y="0" type="line"/>
      <point x="369" y="0" type="line"/>
    </contour>
    <contour>
      <point x="300" y="1920" type="line"/>
      <point x="585" y="1600" type="line"/>
      <point x="800" y="1600" type="line"/>
      <point x="637" y="1900" type="line"/>
    </contour>
  </outline>
</glyph>
<glyph name="Aacute" format="2">
  <advance width="1300"/>
  <unicode hex="00C1"/>
  <outline>
    <contour>
      <point x="753" y="646" type="line"/>
      <point x="529" y="646" type="line"/>
      <point x="604" y="990" type="line"/>
      <point x="643" y="1331" type="line"/>
      <point x="681" y="990" type="line"/>
    </contour>
    <contour>
      <point x="470" y="427" type="line"/>
      <point x="812" y="427" type="line"/>
      <point x="916" y="0" type="line"/>
      <point x="1250" y="0" type="line"/>
      <point x="819" y="1520" type="line"/>
      <point x="441" y="1500" type="line"/>
      <point x="405" y="1284" type="line"/>
      <point x="50" y="0" type="line"/>
      <point x="369" y="0" type="line"/>
    </contour>
    <contour>
      <point x="715" y="1600" type="line"/>
      <point x="1000" y="1920" type="line"/>
      <point x="663" y="1900" type="line"/>
      <point x="500" y="1600" type="line"/>
    </contour>
  </outline>
</glyph>
<glyph name="Acircumflex" format="2">
  <advance width="1300"/>
  <unicode hex="00C2"/>
  <outline>
    <contour>
      <point x="753" y="646" type="line"/>
      <point x="529" y="646" type="line"/>
      <point x="604" y="990" type="line"/>
      <point x="643" y="1331" type="line"/>
      <point x="681" y="990" type="line"/>
    </contour>
    <contour>
      <point x="470" y="427" type="line"/>
      <point x="812" y="427" type="line"/>
      <point x="916" y="0" type="line"/>
      <point x="1250" y="0" type="line"/>
      <point x="819" y="1520" type="line"/>
      <point x="441" y="1500" type="line"/>
      <point x="405" y="1284" type="line"/>
      <point x="50" y="0" type="line"/>
      <point x="369" y="0" type="line"/>
    </contour>
    <contour>
      <point x="483" y="1900" type="line"/>
      <point x="288" y="1620" type="line"/>
      <point x="527" y="1620" type="line"/>
      <point x="608" y="1723" type="line"/>
      <point x="638" y="1850" type="line"/>
      <point x="668" y="1723" type="line"/>
      <point x="738" y="1620" type="line"/>
      <point x="958" y="1620" type="line"/>
      <point x="773" y="1920" type="line"/>
    </contour>
  </outline>
</glyph>
<glyph name="Atilde" format="2">
  <advance width="1300"/>
  <unicode hex="00C3"/>
  <outline>
    <contour>
      <point x="437" y="1620" type="line"/>
      <point x="448" y="1660" name=".hr01"/>
      <point x="462" y="1700"/>
      <point x="510" y="1700" type="curve" smooth="yes"/>
      <point x="605" y="1700" name=".hr02"/>
      <point x="636" y="1620"/>
      <point x="759" y="1620" type="curve" smooth="yes"/>
      <point x="936" y="1620"/>
      <point x="996" y="1765"/>
      <point x="1004" y="1882" type="curve"/>
      <point x="837" y="1892" type="line"/>
      <point x="829" y="1844"/>
      <point x="812" y="1804"/>
      <point x="756" y="1804" type="curve" smooth="yes"/>
      <point x="674" y="1804" name=".hr03"/>
      <point x="636" y="1884"/>
      <point x="506" y="1884" type="curve" smooth="yes"/>
      <point x="337" y="1884"/>
      <point x="266" y="1735"/>
      <point x="255" y="1627" type="curve"/>
    </contour>
    <contour>
      <point x="369" y="0" type="line"/>
      <point x="470" y="427" type="line"/>
      <point x="812" y="427" type="line"/>
      <point x="916" y="0" type="line"/>
      <point x="1250" y="0" type="line"/>
      <point x="819" y="1520" type="line"/>
      <point x="441" y="1500" type="line"/>
      <point x="405" y="1284" type="line"/>
      <point x="50" y="0" type="line"/>
    </contour>
    <contour>
      <point x="681" y="990" type="line"/>
      <point x="753" y="646" type="line"/>
      <point x="529" y="646" type="line"/>
      <point x="604" y="990" type="line"/>
      <point x="643" y="1331" type="line"/>
    </contour>
  </outline>
</glyph>
<glyph name="Egrave" format="2">
  <advance width="1300"/>
  <unicode hex="00C8"/>
  <outline>
    <contour>
      <point x="510" y="228" type="line"/>
      <point x="518" y="360" type="line"/>
      <point x="518" y="703" type="line"/>
      <point x="1034" y="703" type="line"/>
      <point x="1034" y="916" type="line"/>
      <point x="518" y="916" type="line"/>
      <point x="518" y="1134" type="line"/>
      <point x="503" y="1272" type="line"/>
      <point x="1100" y="1272" type="line"/>
      <point x="1100" y="1500" type="line"/>
      <point x="132" y="1500" type="line"/>
      <point x="167" y="1263" type="line"/>
      <point x="167" y="231" type="line"/>
      <point x="150" y="0" type="line"/>
      <point x="1110" y="0" type="line"/>
      <point x="1137" y="228" type="line"/>
    </contour>
    <contour>
      <point x="637" y="1900" type="line"/>
      <point x="300" y="1920" type="line"/>
      <point x="585" y="1600" type="line"/>
      <point x="800" y="1600" type="line"/>
    </contour>
  </outline>
</glyph>
<glyph name="Eacute" format="2">
  <advance width="1300"/>
  <unicode hex="00C9"/>
  <outline>
    <contour>
      <point x="510" y="228" type="line"/>
      <point x="518" y="360" type="line"/>
      <point x="518" y="703" type="line"/>
      <point x="1034" y="703" type="line"/>
      <point x="1034" y="916" type="line"/>
      <point x="518" y="916" type="line"/>
      <point x="518" y="1134" type="line"/>
      <point x="503" y="1272" type="line"/>
      <point x="1100" y="1272" type="line"/>
      <point x="1100" y="1500" type="line"/>
      <point x="132" y="1500" type="line"/>
      <point x="167" y="1263" type="line"/>
      <point x="167" y="231" type="line"/>
      <point x="150" y="0" type="line"/>
      <point x="1110" y="0" type="line"/>
      <point x="1137" y="228" type="line"/>
    </contour>
    <contour>
      <point x="485" y="1600" type="line"/>
      <point x="700" y="1600" type="line"/>
      <point x="985" y="1920" type="line"/>
      <point x="648" y="1900" type="line"/>
    </contour>
  </outline>
</glyph>
<glyph name="Ecircumflex" format="2">
  <advance width="1300"/>
  <unicode hex="00CA"/>
  <outline>
    <contour>
      <point x="510" y="228" type="line"/>
      <point x="518" y="360" type="line"/>
      <point x="518" y="703" type="line"/>
      <point x="1034" y="703" type="line"/>
      <point x="1034" y="916" type="line"/>
      <point x="518" y="916" type="line"/>
      <point x="518" y="1134" type="line"/>
      <point x="503" y="1272" type="line"/>
      <point x="1100" y="1272" type="line"/>
      <point x="1100" y="1500" type="line"/>
      <point x="132" y="1500" type="line"/>
      <point x="167" y="1263" type="line"/>
      <point x="167" y="231" type="line"/>
      <point x="150" y="0" type="line"/>
      <point x="1110" y="0" type="line"/>
      <point x="1137" y="228" type="line"/>
    </contour>
    <contour>
      <point x="785" y="1920" type="line"/>
      <point x="495" y="1900" type="line"/>
      <point x="300" y="1620" type="line"/>
      <point x="539" y="1620" type="line"/>
      <point x="620" y="1723" type="line"/>
      <point x="650" y="1850" type="line"/>
      <point x="680" y="1723" type="line"/>
      <point x="750" y="1620" type="line"/>
      <point x="970" y="1620" type="line"/>
    </contour>
  </outline>
</glyph>
<glyph name="Igrave" format="2">
  <advance width="1300"/>
  <unicode hex="00CC"/>
  <outline>
    <contour>
      <point x="154" y="1272" type="line"/>
      <point x="460" y="1272" type="line"/>
      <point x="460" y="228" type="line"/>
      <point x="182" y="228" type="line"/>
      <point x="182" y="0" type="line"/>
      <point x="1060" y="0" type="line"/>
      <point x="1095" y="228" type="line"/>
      <point x="794" y="228" type="line"/>
      <point x="794" y="1272" type="line"/>
      <point x="1067" y="1272" type="line"/>
      <point x="1067" y="1500" type="line"/>
      <point x="189" y="1500" type="line"/>
    </contour>
    <contour>
      <point x="632" y="1900" type="line"/>
      <point x="295" y="1920" type="line"/>
      <point x="580" y="1600" type="line"/>
      <point x="795" y="1600" type="line"/>
    </contour>
  </outline>
</glyph>
<glyph name="Iacute" format="2">
  <advance width="1300"/>
  <unicode hex="00CD"/>
  <outline>
    <contour>
      <point x="154" y="1272" type="line"/>
      <point x="460" y="1272" type="line"/>
      <point x="460" y="228" type="line"/>
      <point x="182" y="228" type="line"/>
      <point x="182" y="0" type="line"/>
      <point x="1060" y="0" type="line"/>
      <point x="1095" y="228" type="line"/>
      <point x="794" y="228" type="line"/>
      <point x="794" y="1272" type="line"/>
      <point x="1067" y="1272" type="line"/>
      <point x="1067" y="1500" type="line"/>
      <point x="189" y="1500" type="line"/>
    </contour>
    <contour>
      <point x="463" y="1600" type="line"/>
      <point x="678" y="1600" type="line"/>
      <point x="963" y="1920" type="line"/>
      <point x="626" y="1900" type="line"/>
    </contour>
  </outline>
</glyph>
<glyph name="Icircumflex" format="2">
  <advance width="1300"/>
  <unicode hex="00CE"/>
  <outline>
    <contour>
      <point x="154" y="1272" type="line"/>
      <point x="460" y="1272" type="line"/>
      <point x="460" y="228" type="line"/>
      <point x="182" y="228" type="line"/>
      <point x="182" y="0" type="line"/>
      <point x="1060" y="0" type="line"/>
      <point x="1095" y="228" type="line"/>
      <point x="794" y="228" type="line"/>
      <point x="794" y="1272" type="line"/>
      <point x="1067" y="1272" type="line"/>
      <point x="1067" y="1500" type="line"/>
      <point x="189" y="1500" type="line"/>
    </contour>
    <contour>
      <point x="770" y="1924" type="line"/>
      <point x="480" y="1904" type="line"/>
      <point x="285" y="1624" type="line"/>
      <point x="524" y="1624" type="line"/>
      <point x="605" y="1727" type="line"/>
      <point x="635" y="1854" type="line"/>
      <point x="665" y="1727" type="line"/>
      <point x="735" y="1624" type="line"/>
      <point x="955" y="1624" type="line"/>
    </contour>
  </outline>
</glyph>
<glyph name="Idieresis" format="2">
  <advance width="1300"/>
  <unicode hex="00CF"/>
  <outline>
    <contour>
      <point x="154" y="1272" type="line"/>
      <point x="460" y="1272" type="line"/>
      <point x="460" y="228" type="line"/>
      <point x="182" y="228" type="line"/>
      <point x="182" y="0" type="line"/>
      <point x="1060" y="0" type="line"/>
      <point x="1095" y="228" type="line"/>
      <point x="794" y="228" type="line"/>
      <point x="794" y="1272" type="line"/>
      <point x="1067" y="1272" type="line"/>
      <point x="1067" y="1500" type="line"/>
      <point x="189" y="1500" type="line"/>
    </contour>
    <contour>
      <point x="291" y="1700" type="line"/>
      <point x="567" y="1700" type="line"/>
      <point x="567" y="1966" type="line"/>
      <point x="291" y="1966" type="line"/>
    </contour>
    <contour>
      <point x="691" y="1700" type="line"/>
      <point x="967" y="1700" type="line"/>
      <point x="967" y="1966" type="line"/>
      <point x="691" y="1966" type="line"/>
    </contour>
  </outline>
</glyph>
<glyph name="Ntilde" format="2">
  <advance width="1300"/>
  <unicode hex="00D1"/>
  <outline>
    <contour>
      <point x="456" y="1620" type="line"/>
      <point x="467" y="1660" name=".hr01"/>
      <point x="481" y="1700"/>
      <point x="529" y="1700" type="curve" smooth="yes"/>
      <point x="624" y="1700" name=".hr02"/>
      <point x="655" y="1620"/>
      <point x="778" y="1620" type="curve" smooth="yes"/>
      <point x="955" y="1620"/>
      <point x="1015" y="1765"/>
      <point x="1023" y="1882" type="curve"/>
      <point x="856" y="1892" type="line"/>
      <point x="848" y="1844"/>
      <point x="831" y="1804"/>
      <point x="775" y="1804" type="curve" smooth="yes"/>
      <point x="693" y="1804" name=".hr03"/>
      <point x="655" y="1884"/>
      <point x="525" y="1884" type="curve" smooth="yes"/>
      <point x="356" y="1884"/>
      <point x="285" y="1735"/>
      <point x="274" y="1627" type="curve"/>
    </contour>
    <contour>
      <point x="1173" y="0" type="line"/>
      <point x="1173" y="1520" type="line"/>
      <point x="851" y="1500" type="line"/>
      <point x="851" y="852" type="line"/>
      <point x="910" y="600" type="line"/>
      <point x="900" y="600" type="line"/>
      <point x="422" y="1520" type="line"/>
      <point x="96" y="1500" type="line"/>
      <point x="129" y="1263" type="line"/>
      <point x="129" y="0" type="line"/>
      <point x="452" y="0" type="line"/>
      <point x="452" y="649" type="line"/>
      <point x="390" y="950" type="line"/>
      <point x="400" y="950" type="line"/>
      <point x="884" y="0" type="line"/>
    </contour>
  </outline>
</glyph>
<glyph name="Odieresis" format="2">
  <advance width="1300"/>
  <unicode hex="00D6"/>
  <outline>
    <contour>
      <point x="282" y="1600" type="line"/>
      <point x="558" y="1600" type="line"/>
      <point x="558" y="1866" type="line"/>
      <point x="282" y="1866" type="line"/>
    </contour>
    <contour>
      <point x="682" y="1600" type="line"/>
      <point x="958" y="1600" type="line"/>
      <point x="958" y="1866" type="line"/>
      <point x="682" y="1866" type="line"/>
    </contour>
    <contour>
      <point x="623" y="-17" type="curve" smooth="yes"/>
      <point x="1024" y="-17"/>
      <point x="1221" y="330"/>
      <point x="1221" y="750" type="curve" smooth="yes"/>
      <point x="1221" y="1170"/>
      <point x="1014" y="1517"/>
      <point x="623" y="1517" type="curve" smooth="yes"/>
      <point x="220" y="1517"/>
      <point x="24" y="1170"/>
      <point x="24" y="750" type="curve" smooth="yes"/>
      <point x="24" y="330"/>
      <point x="231" y="-17"/>
    </contour>
    <contour>
      <point x="871" y="721" type="curve" smooth="yes"/>
      <point x="871" y="506"/>
      <point x="835" y="226"/>
      <point x="628" y="226" type="curve" smooth="yes"/>
      <point x="407" y="226"/>
      <point x="374" y="532"/>
      <point x="374" y="783" type="curve" smooth="yes"/>
      <point x="374" y="999"/>
      <point x="409" y="1274"/>
      <point x="617" y="1274" type="curve" smooth="yes"/>
      <point x="839" y="1274"/>
      <point x="871" y="969"/>
    </contour>
  </outline>
</glyph>
<glyph name="multiply" format="2">
  <advance width="1300"/>
  <unicode hex="00D7"/>
  <outline>
    <contour>
      <point x="604" y="419" type="line"/>
      <point x="626" y="538" type="line"/>
      <point x="696" y="419" type="line"/>
      <point x="996" y="119" type="line"/>
      <point x="1183" y="269" type="line"/>
      <point x="818" y="633" type="line"/>
      <point x="1183" y="998" type="line"/>
      <point x="996" y="1149" type="line"/>
      <point x="696" y="847" type="line"/>
      <point x="674" y="729" type="line"/>
      <point x="604" y="847" type="line"/>
      <point x="303" y="1149" type="line"/>
      <point x="116" y="998" type="line"/>
      <point x="482" y="633" type="line"/>
      <point x="116" y="269" type="line"/>
      <point x="303" y="119" type="line"/>
    </contour>
  </outline>
</glyph>
<glyph name="Oslash" format="2">
  <advance width="1300"/>
  <unicode hex="00D8"/>
  <outline>
    <contour>
      <point x="1180" y="1600" type="line"/>
      <point x="980" y="1600" type="line"/>
      <point x="907" y="1456" type="line"/>
      <point x="833" y="1497"/>
      <point x="747" y="1517"/>
      <point x="649" y="1517" type="curve" smooth="yes"/>
      <point x="246" y="1517"/>
      <point x="50" y="1170"/>
      <point x="50" y="750" type="curve" smooth="yes"/>
      <point x="50" y="540"/>
      <point x="101" y="349"/>
      <point x="203" y="209" type="curve" smooth="yes"/>
      <point x="217" y="189"/>
      <point x="232" y="170"/>
      <point x="249" y="153" type="curve"/>
      <point x="121" y="-100" type="line"/>
      <point x="331" y="-100" type="line"/>
      <point x="400" y="39" type="line"/>
      <point x="422" y="28"/>
      <point x="445" y="18"/>
      <point x="469" y="11" type="curve"/>
      <point x="524" y="-8"/>
      <point x="584" y="-17"/>
      <point x="649" y="-17" type="curve" smooth="yes"/>
      <point x="1050" y="-17"/>
      <point x="1247" y="330"/>
      <point x="1247" y="750" type="curve" smooth="yes"/>
      <point x="1247" y="959"/>
      <point x="1195" y="1152"/>
      <point x="1095" y="1291" type="curve" smooth="yes"/>
      <point x="1081" y="1310"/>
      <point x="1067" y="1327"/>
      <point x="1052" y="1343" type="curve"/>
    </contour>
    <contour>
      <point x="422" y="497" type="line"/>
      <point x="420" y="507"/>
      <point x="418" y="517"/>
      <point x="417" y="527" type="curve"/>
      <point x="404" y="610"/>
      <point x="400" y="699"/>
      <point x="400" y="783" type="curve" smooth="yes"/>
      <point x="400" y="999"/>
      <point x="435" y="1274"/>
      <point x="643" y="1274" type="curve" smooth="yes"/>
      <point x="680" y="1274"/>
      <point x="712" y="1266"/>
      <point x="739" y="1251" type="curve" smooth="yes"/>
      <point x="756" y="1241"/>
      <point x="771" y="1229"/>
      <point x="785" y="1214" type="curve"/>
    </contour>
    <contour>
      <point x="897" y="721" type="curve" smooth="yes"/>
      <point x="897" y="506"/>
      <point x="861" y="226"/>
      <point x="654" y="226" type="curve" smooth="yes"/>
      <point x="617" y="226"/>
      <point x="586" y="234"/>
      <point x="559" y="250" type="curve" smooth="yes"/>
      <point x="545" y="258"/>
      <point x="532" y="268"/>
      <point x="520" y="279" type="curve"/>
      <point x="877" y="994" type="line"/>
      <point x="878" y="987"/>
      <point x="880" y="981"/>
      <point x="881" y="975" type="curve" smooth="yes"/>
      <point x="893" y="892"/>
      <point x="897" y="804"/>
    </contour>
  </outline>
</glyph>
<glyph name="Ugrave" format="2">
  <advance width="1300"/>
  <unicode hex="00D9"/>
  <outline>
    <contour>
      <point x="637" y="1900" type="line"/>
      <point x="300" y="1920" type="line"/>
      <point x="585" y="1600" type="line"/>
      <point x="800" y="1600" type="line"/>
    </contour>
    <contour>
      <point x="828" y="1500" type="line"/>
      <point x="828" y="516" type="line" smooth="yes"/>
      <point x="828" y="320"/>
      <point x="783" y="221"/>
      <point x="650" y="221" type="curve" smooth="yes"/>
      <point x="483" y="221"/>
      <point x="458" y="347"/>
      <point x="458" y="564" type="curve" smooth="yes"/>
      <point x="458" y="1520" type="line"/>
      <point x="92" y="1500" type="line"/>
      <point x="126" y="1263" type="line"/>
      <point x="126" y="582" type="line" smooth="yes"/>
      <point x="126" y="224"/>
      <point x="256" y="-17"/>
      <point x="619" y="-17" type="curve" smooth="yes"/>
      <point x="956" y="-17"/>
      <point x="1160" y="163"/>
      <point x="1160" y="534" type="curve" smooth="yes"/>
      <point x="1160" y="1500" type="line"/>
    </contour>
  </outline>
</glyph>
<glyph name="Uacute" format="2">
  <advance width="1300"/>
  <unicode hex="00DA"/>
  <outline>
    <contour>
      <point x="500" y="1600" type="line"/>
      <point x="715" y="1600" type="line"/>
      <point x="1000" y="1920" type="line"/>
      <point x="663" y="1900" type="line"/>
    </contour>
    <contour>
      <point x="828" y="1500" type="line"/>
      <point x="828" y="516" type="line" smooth="yes"/>
      <point x="828" y="320"/>
      <point x="783" y="221"/>
      <point x="650" y="221" type="curve" smooth="yes"/>
      <point x="483" y="221"/>
      <point x="458" y="347"/>
      <point x="458" y="564" type="curve" smooth="yes"/>
      <point x="458" y="1520" type="line"/>
      <point x="92" y="1500" type="line"/>
      <point x="126" y="1263" type="line"/>
      <point x="126" y="582" type="line" smooth="yes"/>
      <point x="126" y="224"/>
      <point x="256" y="-17"/>
      <point x="619" y="-17" type="curve" smooth="yes"/>
      <point x="956" y="-17"/>
      <point x="1160" y="163"/>
      <point x="1160" y="534" type="curve" smooth="yes"/>
      <point x="1160" y="1500" type="line"/>
    </contour>
  </outline>
</glyph>
<glyph name="Yacute" format="2">
  <advance width="1300"/>
  <unicode hex="00DD"/>
  <outline>
    <contour>
      <point x="348" y="1520" type="line"/>
      <point x="9" y="1500" type="line"/>
      <point x="438" y="650" type="line"/>
      <point x="438" y="0" type="line"/>
      <point x="789" y="0" type="line"/>
      <point x="789" y="650" type="line"/>
      <point x="1222" y="1500" type="line"/>
      <point x="887" y="1500" type="line"/>
      <point x="705" y="1143" type="line"/>
      <point x="647" y="773" type="line"/>
      <point x="540" y="1143" type="line"/>
    </contour>
    <contour>
      <point x="400" y="1600" type="line"/>
      <point x="615" y="1600" type="line"/>
      <point x="900" y="1920" type="line"/>
      <point x="563" y="1900" type="line"/>
    </contour>
  </outline>
</glyph>
<glyph name="Thorn" format="2">
  <advance width="1300"/>
  <unicode hex="00DE"/>
  <outline>
    <contour>
      <point x="159" y="1267" type="line"/>
      <point x="159" y="0" type="line"/>
      <point x="501" y="0" type="line"/>
      <point x="501" y="381" type="line"/>
      <point x="577" y="381" type="line" smooth="yes"/>
      <point x="714" y="381"/>
      <point x="797" y="406"/>
      <point x="866" y="438" type="curve"/>
      <point x="1085" y="545"/>
      <point x="1118" y="730"/>
      <point x="1118" y="882" type="curve" smooth="yes"/>
      <point x="1118" y="1208"/>
      <point x="820" y="1311"/>
      <point x="615" y="1311" type="curve" smooth="yes"/>
      <point x="501" y="1311" type="line"/>
      <point x="501" y="1500" type="line"/>
      <point x="137" y="1500" type="line"/>
    </contour>
    <contour>
      <point x="586" y="1093" type="line" smooth="yes"/>
      <point x="715" y="1093"/>
      <point x="796" y="1017"/>
      <point x="796" y="882" type="curve" smooth="yes"/>
      <point x="796" y="725"/>
      <point x="737" y="605"/>
      <point x="605" y="605" type="curve" smooth="yes"/>
      <point x="501" y="605" type="line"/>
      <point x="501" y="1093" type="line"/>
    </contour>
  </outline>
</glyph>
<glyph name="agrave" format="2">
  <advance width="1300"/>
  <unicode hex="00E0"/>
  <outline>
    <contour>
      <point x="700" y="1500" type="line"/>
      <point x="363" y="1520" type="line"/>
      <point x="648" y="1200" type="line"/>
      <point x="863" y="1200" type="line"/>
    </contour>
    <contour>
      <point x="1112" y="200" type="line"/>
      <point x="1112" y="681" type="line" smooth="yes"/>
      <point x="1112" y="941"/>
      <point x="983" y="1117"/>
      <point x="642" y="1117" type="curve" smooth="yes"/>
      <point x="438" y="1117"/>
      <point x="349" y="1080"/>
      <point x="225" y="1023" type="curve"/>
      <point x="319" y="838" type="line"/>
      <point x="390" y="870"/>
      <point x="514" y="900"/>
      <point x="632" y="900" type="curve" smooth="yes"/>
      <point x="740" y="900"/>
      <point x="790" y="828"/>
      <point x="795" y="715" type="curve"/>
      <point x="742" y="724"/>
      <point x="680" y="729"/>
      <point x="604" y="729" type="curve" smooth="yes"/>
      <point x="357" y="729"/>
      <point x="106" y="614"/>
      <point x="106" y="358" type="curve" smooth="yes"/>
      <point x="106" y="115"/>
      <point x="356" y="-17"/>
      <point x="577" y="-17" type="curve" smooth="yes"/>
      <point x="617" y="-17"/>
      <point x="664" y="-10"/>
      <point x="711" y="5" type="curve"/>
      <point x="795" y="100" type="line"/>
      <point x="795" y="0" type="line"/>
      <point x="1135" y="0" type="line"/>
    </contour>
    <contour>
      <point x="795" y="300" type="line"/>
      <point x="730" y="244"/>
      <point x="661" y="208"/>
      <point x="585" y="208" type="curve" smooth="yes"/>
      <point x="508" y="208"/>
      <point x="435" y="269"/>
      <point x="435" y="359" type="curve" smooth="yes"/>
      <point x="435" y="471"/>
      <point x="540" y="505"/>
      <point x="642" y="505" type="curve" smooth="yes"/>
      <point x="683" y="505"/>
      <point x="755" y="503"/>
      <point x="795" y="500" type="curve"/>
    </contour>
  </outline>
</glyph>
<glyph name="acircumflex" format="2">
  <advance width="1300"/>
  <unicode hex="00E2"/>
  <outline>
    <contour>
      <point x="835" y="1520" type="line"/>
      <point x="545" y="1500" type="line"/>
      <point x="350" y="1220" type="line"/>
      <point x="589" y="1220" type="line"/>
      <point x="670" y="1323" type="line"/>
      <point x="700" y="1450" type="line"/>
      <point x="730" y="1323" type="line"/>
      <point x="800" y="1220" type="line"/>
      <point x="1020" y="1220" type="line"/>
    </contour>
    <contour>
      <point x="1112" y="200" type="line"/>
      <point x="1112" y="681" type="line" smooth="yes"/>
      <point x="1112" y="941"/>
      <point x="983" y="1117"/>
      <point x="642" y="1117" type="curve" smooth="yes"/>
      <point x="438" y="1117"/>
      <point x="349" y="1080"/>
      <point x="225" y="1023" type="curve"/>
      <point x="319" y="838" type="line"/>
      <point x="390" y="870"/>
      <point x="514" y="900"/>
      <point x="632" y="900" type="curve" smooth="yes"/>
      <point x="740" y="900"/>
      <point x="790" y="828"/>
      <point x="795" y="715" type="curve"/>
      <point x="742" y="724"/>
      <point x="680" y="729"/>
      <point x="604" y="729" type="curve" smooth="yes"/>
      <point x="357" y="729"/>
      <point x="106" y="614"/>
      <point x="106" y="358" type="curve" smooth="yes"/>
      <point x="106" y="115"/>
      <point x="356" y="-17"/>
      <point x="577" y="-17" type="curve" smooth="yes"/>
      <point x="617" y="-17"/>
      <point x="664" y="-10"/>
      <point x="711" y="5" type="curve"/>
      <point x="795" y="100" type="line"/>
      <point x="795" y="0" type="line"/>
      <point x="1135" y="0" type="line"/>
    </contour>
    <contour>
      <point x="795" y="300" type="line"/>
      <point x="730" y="244"/>
      <point x="661" y="208"/>
      <point x="585" y="208" type="curve" smooth="yes"/>
      <point x="508" y="208"/>
      <point x="435" y="269"/>
      <point x="435" y="359" type="curve" smooth="yes"/>
      <point x="435" y="471"/>
      <point x="540" y="505"/>
      <point x="642" y="505" type="curve" smooth="yes"/>
      <point x="683" y="505"/>
      <point x="755" y="503"/>
      <point x="795" y="500" type="curve"/>
    </contour>
  </outline>
</glyph>
<glyph name="atilde" format="2">
  <advance width="1300"/>
  <unicode hex="00E3"/>
  <outline>
    <contour>
      <point x="458" y="1240" type="line"/>
      <point x="469" y="1280"/>
      <point x="483" y="1320"/>
      <point x="531" y="1320" type="curve" smooth="yes"/>
      <point x="626" y="1320"/>
      <point x="657" y="1240"/>
      <point x="780" y="1240" type="curve" smooth="yes"/>
      <point x="957" y="1240"/>
      <point x="1017" y="1385"/>
      <point x="1025" y="1502" type="curve"/>
      <point x="858" y="1512" type="line"/>
      <point x="850" y="1464"/>
      <point x="833" y="1424"/>
      <point x="777" y="1424" type="curve" smooth="yes"/>
      <point x="695" y="1424"/>
      <point x="657" y="1504"/>
      <point x="527" y="1504" type="curve" smooth="yes"/>
      <point x="358" y="1504"/>
      <point x="287" y="1355"/>
      <point x="276" y="1247" type="curve"/>
    </contour>
    <contour>
      <point x="1112" y="200" type="line"/>
      <point x="1112" y="681" type="line" smooth="yes"/>
      <point x="1112" y="941"/>
      <point x="983" y="1117"/>
      <point x="642" y="1117" type="curve" smooth="yes"/>
      <point x="438" y="1117"/>
      <point x="349" y="1080"/>
      <point x="225" y="1023" type="curve"/>
      <point x="319" y="838" type="line"/>
      <point x="390" y="870"/>
      <point x="514" y="900"/>
      <point x="632" y="900" type="curve" smooth="yes"/>
      <point x="740" y="900"/>
      <point x="790" y="828"/>
      <point x="795" y="715" type="curve"/>
      <point x="742" y="724"/>
      <point x="680" y="729"/>
      <point x="604" y="729" type="curve" smooth="yes"/>
      <point x="357" y="729"/>
      <point x="106" y="614"/>
      <point x="106" y="358" type="curve" smooth="yes"/>
      <point x="106" y="115"/>
      <point x="356" y="-17"/>
      <point x="577" y="-17" type="curve" smooth="yes"/>
      <point x="617" y="-17"/>
      <point x="664" y="-10"/>
      <point x="711" y="5" type="curve"/>
      <point x="795" y="100" type="line"/>
      <point x="795" y="0" type="line"/>
      <point x="1135" y="0" type="line"/>
    </contour>
    <contour>
      <point x="795" y="300" type="line"/>
      <point x="730" y="244"/>
      <point x="661" y="208"/>
      <point x="585" y="208" type="curve" smooth="yes"/>
      <point x="508" y="208"/>
      <point x="435" y="269"/>
      <point x="435" y="359" type="curve" smooth="yes"/>
      <point x="435" y="471"/>
      <point x="540" y="505"/>
      <point x="642" y="505" type="curve" smooth="yes"/>
      <point x="683" y="505"/>
      <point x="755" y="503"/>
      <point x="795" y="500" type="curve"/>
    </contour>
  </outline>
</glyph>
<glyph name="aring" format="2">
  <advance width="1300"/>
  <unicode hex="00E5"/>
  <outline>
    <contour>
      <point x="1112" y="200" type="line"/>
      <point x="1112" y="681" type="line" smooth="yes"/>
      <point x="1112" y="877"/>
      <point x="1039" y="1022"/>
      <point x="860" y="1086" type="curve" smooth="yes"/>
      <point x="817" y="1101"/>
      <point x="768" y="1110"/>
      <point x="712" y="1114" type="curve"/>
      <point x="729" y="1118"/>
      <point x="746" y="1124"/>
      <point x="763" y="1131" type="curve"/>
      <point x="863" y="1176"/>
      <point x="934" y="1278"/>
      <point x="934" y="1397" type="curve" smooth="yes"/>
      <point x="934" y="1554"/>
      <point x="806" y="1682"/>
      <point x="650" y="1682" type="curve" smooth="yes"/>
      <point x="493" y="1682"/>
      <point x="364" y="1554"/>
      <point x="364" y="1397" type="curve" smooth="yes"/>
      <point x="364" y="1279"/>
      <point x="437" y="1176"/>
      <point x="541" y="1131" type="curve" smooth="yes"/>
      <point x="555" y="1125"/>
      <point x="570" y="1120"/>
      <point x="585" y="1116" type="curve"/>
      <point x="557" y="1115"/>
      <point x="531" y="1113"/>
      <point x="508" y="1111" type="curve"/>
      <point x="392" y="1097"/>
      <point x="317" y="1065"/>
      <point x="225" y="1023" type="curve"/>
      <point x="319" y="838" type="line"/>
      <point x="390" y="870"/>
      <point x="514" y="900"/>
      <point x="632" y="900" type="curve" smooth="yes"/>
      <point x="740" y="900"/>
      <point x="790" y="828"/>
      <point x="795" y="715" type="curve"/>
      <point x="742" y="724"/>
      <point x="680" y="729"/>
      <point x="604" y="729" type="curve" smooth="yes"/>
      <point x="357" y="729"/>
      <point x="106" y="614"/>
      <point x="106" y="358" type="curve" smooth="yes"/>
      <point x="106" y="115"/>
      <point x="356" y="-17"/>
      <point x="577" y="-17" type="curve" smooth="yes"/>
      <point x="617" y="-17"/>
      <point x="664" y="-10"/>
      <point x="711" y="5" type="curve"/>
      <point x="795" y="100" type="line"/>
      <point x="795" y="0" type="line"/>
      <point x="1135" y="0" type="line"/>
    </contour>
    <contour>
      <point x="651" y="1297" type="curve" smooth="yes"/>
      <point x="597" y="1297"/>
      <point x="553" y="1343"/>
      <point x="553" y="1396" type="curve" smooth="yes"/>
      <point x="553" y="1449"/>
      <point x="596" y="1493"/>
      <point x="650" y="1493" type="curve" smooth="yes"/>
      <point x="704" y="1493"/>
      <point x="747" y="1449"/>
      <point x="747" y="1396" type="curve" smooth="yes"/>
      <point x="747" y="1343"/>
      <point x="704" y="1297"/>
    </contour>
    <contour>
      <point x="795" y="300" type="line"/>
      <point x="730" y="244"/>
      <point x="661" y="208"/>
      <point x="585" y="208" type="curve" smooth="yes"/>
      <point x="508" y="208"/>
      <point x="435" y="269"/>
      <point x="435" y="359" type="curve" smooth="yes"/>
      <point x="435" y="471"/>
      <point x="540" y="505"/>
      <point x="642" y="505" type="curve" smooth="yes"/>
      <point x="683" y="505"/>
      <point x="755" y="503"/>
      <point x="795" y="500" type="curve"/>
    </contour>
  </outline>
</glyph>
<glyph name="ae" format="2">
  <advance width="1300"/>
  <unicode hex="00E6"/>
  <outline>
    <contour>
      <point x="659" y="87" type="curve"/>
      <point x="726" y="23"/>
      <point x="823" y="-17"/>
      <point x="924" y="-17" type="curve" smooth="yes"/>
      <point x="1133" y="-17"/>
      <point x="1185" y="64"/>
      <point x="1266" y="161" type="curve"/>
      <point x="1100" y="299" type="line"/>
      <point x="1074" y="265"/>
      <point x="1024" y="200"/>
      <point x="950" y="200" type="curve" smooth="yes"/>
      <point x="801" y="200"/>
      <point x="800" y="349"/>
      <point x="800" y="466" type="curve"/>
      <point x="1250" y="466" type="line"/>
      <point x="1266" y="511"/>
      <point x="1285" y="601"/>
      <point x="1285" y="681" type="curve" smooth="yes"/>
      <point x="1285" y="900"/>
      <point x="1218" y="1117"/>
      <point x="886" y="1117" type="curve" smooth="yes"/>
      <point x="783" y="1117"/>
      <point x="707" y="1090"/>
      <point x="654" y="1051" type="curve"/>
      <point x="611" y="1088"/>
      <point x="546" y="1117"/>
      <point x="462" y="1117" type="curve" smooth="yes"/>
      <point x="354" y="1117"/>
      <point x="265" y="1094"/>
      <point x="201" y="1071" type="curve" smooth="yes"/>
      <point x="164" y="1058"/>
      <point x="130" y="1042"/>
      <point x="100" y="1025" type="curve"/>
      <point x="200" y="836" type="line"/>
      <point x="217" y="847"/>
      <point x="236" y="856"/>
      <point x="256" y="864" type="curve" smooth="yes"/>
      <point x="291" y="879"/>
      <point x="335" y="892"/>
      <point x="386" y="892" type="curve" smooth="yes"/>
      <point x="447" y="892"/>
      <point x="448" y="832"/>
      <point x="448" y="734" type="curve"/>
      <point x="437" y="735"/>
      <point x="426" y="736"/>
      <point x="415" y="736" type="curve" smooth="yes"/>
      <point x="411" y="736" type="line"/>
      <point x="409" y="736" type="line"/>
      <point x="408" y="736" type="line"/>
      <point x="406" y="736" type="line"/>
      <point x="405" y="736" type="line"/>
      <point x="404" y="736" type="line"/>
      <point x="401" y="736" type="line"/>
      <point x="400" y="736" type="line"/>
      <point x="399" y="736" type="line"/>
      <point x="398" y="736" type="line"/>
      <point x="380" y="736" type="line"/>
      <point x="378" y="736" type="line" smooth="yes"/>
      <point x="161" y="736"/>
      <point x="19" y="614"/>
      <point x="19" y="358" type="curve" smooth="yes"/>
      <point x="19" y="115"/>
      <point x="165" y="-17"/>
      <point x="397" y="-17" type="curve" smooth="yes"/>
      <point x="524" y="-17"/>
      <point x="608" y="27"/>
    </contour>
    <contour>
      <point x="790" y="768" type="line"/>
      <point x="800" y="815"/>
      <point x="830" y="892"/>
      <point x="910" y="892" type="curve" smooth="yes"/>
      <point x="993" y="892"/>
      <point x="1020" y="815"/>
      <point x="1020" y="768" type="curve" smooth="yes"/>
      <point x="1020" y="681" type="line"/>
      <point x="710" y="681" type="line"/>
    </contour>
    <contour>
      <point x="448" y="294" type="line"/>
      <point x="447" y="277"/>
      <point x="444" y="263"/>
      <point x="439" y="251" type="curve" smooth="yes"/>
      <point x="430" y="228"/>
      <point x="415" y="208"/>
      <point x="380" y="208" type="curve" smooth="yes"/>
      <point x="323" y="208"/>
      <point x="286" y="264"/>
      <point x="286" y="359" type="curve" smooth="yes"/>
      <point x="286" y="471"/>
      <point x="372" y="513"/>
      <point x="439" y="513" type="curve" smooth="yes"/>
      <point x="448" y="513" type="line"/>
    </contour>
  </outline>
</glyph>
<glyph name="ccedilla" format="2">
  <advance width="1300"/>
  <unicode hex="00E7"/>
  <outline>
    <contour>
      <point x="1129" y="957" type="line"/>
      <point x="1025" y="1070"/>
      <point x="877" y="1117"/>
      <point x="697" y="1117" type="curve" smooth="yes"/>
      <point x="328" y="1117"/>
      <point x="105" y="843"/>
      <point x="105" y="565" type="curve" smooth="yes"/>
      <point x="105" y="488"/>
      <point x="119" y="415"/>
      <point x="147" y="345" type="curve" smooth="yes"/>
      <point x="203" y="204"/>
      <point x="307" y="95"/>
      <point x="452" y="31" type="curve" smooth="yes"/>
      <point x="487" y="16"/>
      <point x="524" y="4"/>
      <point x="563" y="-4" type="curve"/>
      <point x="581" y="-22" type="line" smooth="yes"/>
      <point x="610" y="-51"/>
      <point x="652" y="-106"/>
      <point x="652" y="-147" type="curve" smooth="yes"/>
      <point x="652" y="-184"/>
      <point x="619" y="-200"/>
      <point x="588" y="-200" type="curve" smooth="yes"/>
      <point x="559" y="-200"/>
      <point x="516" y="-183"/>
      <point x="481" y="-166" type="curve" smooth="yes"/>
      <point x="460" y="-156"/>
      <point x="438" y="-144"/>
      <point x="417" y="-131" type="curve"/>
      <point x="302" y="-290" type="line"/>
      <point x="336" y="-312"/>
      <point x="371" y="-332"/>
      <point x="408" y="-349" type="curve" smooth="yes"/>
      <point x="472" y="-378"/>
      <point x="551" y="-407"/>
      <point x="631" y="-407" type="curve" smooth="yes"/>
      <point x="783" y="-407"/>
      <point x="919" y="-303"/>
      <point x="919" y="-171" type="curve" smooth="yes"/>
      <point x="919" y="-119"/>
      <point x="894" y="-77"/>
      <point x="869" y="-46" type="curve"/>
      <point x="856" y="-31"/>
      <point x="842" y="-17"/>
      <point x="827" y="-5" type="curve"/>
      <point x="837" y="-4"/>
      <point x="847" y="-2"/>
      <point x="856" y="1" type="curve"/>
      <point x="1000" y="37"/>
      <point x="1086" y="104"/>
      <point x="1123" y="137" type="curve"/>
      <point x="999" y="353" type="line"/>
      <point x="951" y="292"/>
      <point x="865" y="236"/>
      <point x="726" y="236" type="curve" smooth="yes"/>
      <point x="570" y="236"/>
      <point x="435" y="368"/>
      <point x="435" y="553" type="curve" smooth="yes"/>
      <point x="435" y="729"/>
      <point x="563" y="881"/>
      <point x="726" y="881" type="curve" smooth="yes"/>
      <point x="827" y="881"/>
      <point x="903" y="848"/>
      <point x="967" y="772" type="curve"/>
    </contour>
  </outline>
</glyph>
<glyph name="egrave" format="2">
  <advance width="1300"/>
  <unicode hex="00E8"/>
  <outline>
    <contour>
      <point x="637" y="1500" type="line"/>
      <point x="300" y="1520" type="line"/>
      <point x="585" y="1200" type="line"/>
      <point x="800" y="1200" type="line"/>
    </contour>
    <contour>
      <point x="1000" y="300" type="line"/>
      <point x="963" y="268"/>
      <point x="843" y="200"/>
      <point x="706" y="200" type="curve" smooth="yes"/>
      <point x="563" y="200"/>
      <point x="405" y="322"/>
      <point x="400" y="466" type="curve"/>
      <point x="1147" y="466" type="line"/>
      <point x="1154" y="534"/>
      <point x="1159" y="596"/>
      <point x="1159" y="632" type="curve" smooth="yes"/>
      <point x="1159" y="919"/>
      <point x="973" y="1116"/>
      <point x="653" y="1116" type="curve" smooth="yes"/>
      <point x="309" y="1116"/>
      <point x="100" y="833"/>
      <point x="100" y="550" type="curve" smooth="yes"/>
      <point x="100" y="255"/>
      <point x="302" y="-16"/>
      <point x="686" y="-16" type="curve" smooth="yes"/>
      <point x="906" y="-16"/>
      <point x="1042" y="60"/>
      <point x="1148" y="158" type="curve"/>
    </contour>
    <contour>
      <point x="516" y="671" type="line"/>
      <point x="343" y="653" type="line"/>
      <point x="434" y="756" type="line"/>
      <point x="456" y="808"/>
      <point x="522" y="900"/>
      <point x="657" y="900" type="curve" smooth="yes"/>
      <point x="793" y="900"/>
      <point x="865" y="794"/>
      <point x="865" y="672" type="curve"/>
    </contour>
  </outline>
</glyph>
<glyph name="ecircumflex" format="2">
  <advance width="1300"/>
  <unicode hex="00EA"/>
  <outline>
    <contour>
      <point x="798" y="1520" type="line"/>
      <point x="508" y="1500" type="line"/>
      <point x="313" y="1220" type="line"/>
      <point x="552" y="1220" type="line"/>
      <point x="633" y="1323" type="line"/>
      <point x="663" y="1450" type="line"/>
      <point x="693" y="1323" type="line"/>
      <point x="763" y="1220" type="line"/>
      <point x="983" y="1220" type="line"/>
    </contour>
    <contour>
      <point x="1000" y="300" type="line"/>
      <point x="963" y="268"/>
      <point x="843" y="200"/>
      <point x="706" y="200" type="curve" smooth="yes"/>
      <point x="563" y="200"/>
      <point x="405" y="322"/>
      <point x="400" y="466" type="curve"/>
      <point x="1147" y="466" type="line"/>
      <point x="1154" y="534"/>
      <point x="1159" y="596"/>
      <point x="1159" y="632" type="curve" smooth="yes"/>
      <point x="1159" y="919"/>
      <point x="973" y="1116"/>
      <point x="653" y="1116" type="curve" smooth="yes"/>
      <point x="309" y="1116"/>
      <point x="100" y="833"/>
      <point x="100" y="550" type="curve" smooth="yes"/>
      <point x="100" y="255"/>
      <point x="302" y="-16"/>
      <point x="686" y="-16" type="curve" smooth="yes"/>
      <point x="906" y="-16"/>
      <point x="1042" y="60"/>
      <point x="1148" y="158" type="curve"/>
    </contour>
    <contour>
      <point x="516" y="671" type="line"/>
      <point x="343" y="653" type="line"/>
      <point x="434" y="756" type="line"/>
      <point x="456" y="808"/>
      <point x="522" y="900"/>
      <point x="657" y="900" type="curve" smooth="yes"/>
      <point x="793" y="900"/>
      <point x="865" y="794"/>
      <point x="865" y="672" type="curve"/>
    </contour>
  </outline>
</glyph>
<glyph name="edieresis" format="2">
  <advance width="1300"/>
  <unicode hex="00EB"/>
  <outline>
    <contour>
      <point x="312" y="1300" type="line"/>
      <point x="588" y="1300" type="line"/>
      <point x="588" y="1566" type="line"/>
      <point x="312" y="1566" type="line"/>
    </contour>
    <contour>
      <point x="712" y="1300" type="line"/>
      <point x="988" y="1300" type="line"/>
      <point x="988" y="1566" type="line"/>
      <point x="712" y="1566" type="line"/>
    </contour>
    <contour>
      <point x="1000" y="300" type="line"/>
      <point x="963" y="268"/>
      <point x="843" y="200"/>
      <point x="706" y="200" type="curve" smooth="yes"/>
      <point x="563" y="200"/>
      <point x="405" y="322"/>
      <point x="400" y="466" type="curve"/>
      <point x="1147" y="466" type="line"/>
      <point x="1154" y="534"/>
      <point x="1159" y="596"/>
      <point x="1159" y="632" type="curve" smooth="yes"/>
      <point x="1159" y="919"/>
      <point x="973" y="1116"/>
      <point x="653" y="1116" type="curve" smooth="yes"/>
      <point x="309" y="1116"/>
      <point x="100" y="833"/>
      <point x="100" y="550" type="curve" smooth="yes"/>
      <point x="100" y="255"/>
      <point x="302" y="-16"/>
      <point x="686" y="-16" type="curve" smooth="yes"/>
      <point x="906" y="-16"/>
      <point x="1042" y="60"/>
      <point x="1148" y="158" type="curve"/>
    </contour>
    <contour>
      <point x="516" y="671" type="line"/>
      <point x="343" y="653" type="line"/>
      <point x="434" y="756" type="line"/>
      <point x="456" y="808"/>
      <point x="522" y="900"/>
      <point x="657" y="900" type="curve" smooth="yes"/>
      <point x="793" y="900"/>
      <point x="865" y="794"/>
      <point x="865" y="672" type="curve"/>
    </contour>
  </outline>
</glyph>
<glyph name="igrave" format="2">
  <advance width="1300"/>
  <unicode hex="00EC"/>
  <outline>
    <contour>
      <point x="627" y="1500" type="line"/>
      <point x="290" y="1520" type="line"/>
      <point x="575" y="1200" type="line"/>
      <point x="790" y="1200" type="line"/>
    </contour>
    <contour>
      <point x="464" y="432" type="line" smooth="yes"/>
      <point x="464" y="189"/>
      <point x="602" y="-17"/>
      <point x="908" y="-17" type="curve" smooth="yes"/>
      <point x="1097" y="-17"/>
      <point x="1168" y="70"/>
      <point x="1204" y="98" type="curve"/>
      <point x="1145" y="330" type="line"/>
      <point x="1076" y="263"/>
      <point x="1015" y="236"/>
      <point x="927" y="236" type="curve" smooth="yes"/>
      <point x="847" y="236"/>
      <point x="791" y="314"/>
      <point x="791" y="423" type="curve" smooth="yes"/>
      <point x="791" y="1100" type="line"/>
      <point x="161" y="1100" type="line"/>
      <point x="189" y="876" type="line"/>
      <point x="452" y="876" type="line"/>
      <point x="544" y="896" type="line"/>
      <point x="464" y="834" type="line"/>
    </contour>
  </outline>
</glyph>
<glyph name="icircumflex" format="2">
  <advance width="1300"/>
  <unicode hex="00EE"/>
  <outline>
    <contour>
      <point x="736" y="1520" type="line"/>
      <point x="446" y="1500" type="line"/>
      <point x="251" y="1220" type="line"/>
      <point x="490" y="1220" type="line"/>
      <point x="571" y="1323" type="line"/>
      <point x="601" y="1450" type="line"/>
      <point x="631" y="1323" type="line"/>
      <point x="701" y="1220" type="line"/>
      <point x="921" y="1220" type="line"/>
    </contour>
    <contour>
      <point x="464" y="432" type="line" smooth="yes"/>
      <point x="464" y="189"/>
      <point x="602" y="-17"/>
      <point x="908" y="-17" type="curve" smooth="yes"/>
      <point x="1097" y="-17"/>
      <point x="1168" y="70"/>
      <point x="1204" y="98" type="curve"/>
      <point x="1145" y="330" type="line"/>
      <point x="1076" y="263"/>
      <point x="1015" y="236"/>
      <point x="927" y="236" type="curve" smooth="yes"/>
      <point x="847" y="236"/>
      <point x="791" y="314"/>
      <point x="791" y="423" type="curve" smooth="yes"/>
      <point x="791" y="1100" type="line"/>
      <point x="161" y="1100" type="line"/>
      <point x="189" y="876" type="line"/>
      <point x="452" y="876" type="line"/>
      <point x="544" y="896" type="line"/>
      <point x="464" y="834" type="line"/>
    </contour>
  </outline>
</glyph>
<glyph name="eth" format="2">
  <advance width="1300"/>
  <unicode hex="00F0"/>
  <outline>
    <contour>
      <point x="535" y="993" type="line"/>
      <point x="693" y="1126" type="line"/>
      <point x="752" y="1067"/>
      <point x="793" y="971"/>
      <point x="801" y="904" type="curve"/>
      <point x="737" y="928"/>
      <point x="672" y="936"/>
      <point x="608" y="936" type="curve" smooth="yes"/>
      <point x="321" y="936"/>
      <point x="140" y="772"/>
      <point x="140" y="472" type="curve" smooth="yes"/>
      <point x="140" y="181"/>
      <point x="315" y="-17"/>
      <point x="630" y="-17" type="curve" smooth="yes"/>
      <point x="1054" y="-17"/>
      <point x="1161" y="398"/>
      <point x="1161" y="612" type="curve" smooth="yes"/>
      <point x="1161" y="837"/>
      <point x="1094" y="1073"/>
      <point x="955" y="1239" type="curve"/>
      <point x="827" y="1239" type="line"/>
      <point x="1012" y="1395" type="line"/>
      <point x="872" y="1561" type="line"/>
      <point x="723" y="1433" type="line"/>
      <point x="623" y="1486"/>
      <point x="505" y="1517"/>
      <point x="372" y="1517" type="curve"/>
      <point x="371" y="1517" type="line"/>
      <point x="370" y="1517" type="line"/>
      <point x="369" y="1517" type="line"/>
      <point x="369" y="1517" type="line"/>
      <point x="368" y="1517" type="line"/>
      <point x="366" y="1517" type="line"/>
      <point x="365" y="1517" type="line"/>
      <point x="364" y="1517" type="line"/>
      <point x="363" y="1517" type="line"/>
      <point x="363" y="1517" type="line"/>
      <point x="355" y="1517" type="line"/>
      <point x="354" y="1517" type="line"/>
      <point x="353" y="1517" type="line"/>
      <point x="330" y="1517"/>
      <point x="301" y="1514"/>
      <point x="235" y="1508" type="curve"/>
      <point x="271" y="1300" type="line"/>
      <point x="302" y="1307"/>
      <point x="335" y="1310"/>
      <point x="371" y="1310" type="curve" smooth="yes"/>
      <point x="394" y="1310"/>
      <point x="421" y="1305"/>
      <point x="450" y="1296" type="curve"/>
      <point x="594" y="1320" type="line"/>
      <point x="392" y="1154" type="line"/>
    </contour>
    <contour>
      <point x="839" y="596" type="curve"/>
      <point x="839" y="536"/>
      <point x="838" y="483"/>
      <point x="826" y="426" type="curve" smooth="yes"/>
      <point x="802" y="307"/>
      <point x="734" y="208"/>
      <point x="629" y="208" type="curve" smooth="yes"/>
      <point x="522" y="208"/>
      <point x="440" y="312"/>
      <point x="440" y="455" type="curve" smooth="yes"/>
      <point x="440" y="599"/>
      <point x="500" y="712"/>
      <point x="622" y="712" type="curve" smooth="yes"/>
      <point x="729" y="712"/>
      <point x="790" y="650"/>
    </contour>
  </outline>
</glyph>
<glyph name="ograve" format="2">
  <advance width="1300"/>
  <unicode hex="00F2"/>
  <outline>
    <contour>
      <point x="637" y="1500" type="line"/>
      <point x="300" y="1520" type="line"/>
      <point x="585" y="1200" type="line"/>
      <point x="800" y="1200" type="line"/>
    </contour>
    <contour>
      <point x="627" y="-17" type="curve" smooth="yes"/>
      <point x="957" y="-17"/>
      <point x="1164" y="229"/>
      <point x="1164" y="553" type="curve" smooth="yes"/>
      <point x="1164" y="714"/>
      <point x="1110" y="857"/>
      <point x="1016" y="958" type="curve" smooth="yes"/>
      <point x="922" y="1059"/>
      <point x="791" y="1117"/>
      <point x="647" y="1117" type="curve" smooth="yes"/>
      <point x="627" y="1117" type="line"/>
      <point x="606" y="1117" type="line" smooth="yes"/>
      <point x="458" y="1117"/>
      <point x="326" y="1059"/>
      <point x="231" y="958" type="curve" smooth="yes"/>
      <point x="135" y="857"/>
      <point x="81" y="714"/>
      <point x="81" y="553" type="curve" smooth="yes"/>
      <point x="81" y="229"/>
      <point x="308" y="-17"/>
    </contour>
    <contour>
      <point x="838" y="528" type="curve" smooth="yes"/>
      <point x="838" y="364"/>
      <point x="776" y="203"/>
      <point x="631" y="203" type="curve" smooth="yes"/>
      <point x="475" y="203"/>
      <point x="408" y="388"/>
      <point x="408" y="571" type="curve" smooth="yes"/>
      <point x="408" y="736"/>
      <point x="475" y="897"/>
      <point x="623" y="897" type="curve" smooth="yes"/>
      <point x="779" y="897"/>
      <point x="838" y="709"/>
    </contour>
  </outline>
</glyph>
<glyph name="otilde" format="2">
  <advance width="1300"/>
  <unicode hex="00F5"/>
  <outline>
    <contour>
      <point x="450" y="1240" type="line"/>
      <point x="461" y="1280"/>
      <point x="475" y="1320"/>
      <point x="523" y="1320" type="curve" smooth="yes"/>
      <point x="618" y="1320"/>
      <point x="649" y="1240"/>
      <point x="772" y="1240" type="curve" smooth="yes"/>
      <point x="949" y="1240"/>
      <point x="1009" y="1385"/>
      <point x="1017" y="1502" type="curve"/>
      <point x="850" y="1512" type="line"/>
      <point x="842" y="1464"/>
      <point x="825" y="1424"/>
      <point x="769" y="1424" type="curve" smooth="yes"/>
      <point x="687" y="1424"/>
      <point x="649" y="1504"/>
      <point x="519" y="1504" type="curve" smooth="yes"/>
      <point x="350" y="1504"/>
      <point x="279" y="1355"/>
      <point x="268" y="1247" type="curve"/>
    </contour>
    <contour>
      <point x="627" y="-17" type="curve" smooth="yes"/>
      <point x="957" y="-17"/>
      <point x="1164" y="229"/>
      <point x="1164" y="553" type="curve" smooth="yes"/>
      <point x="1164" y="714"/>
      <point x="1110" y="857"/>
      <point x="1016" y="958" type="curve" smooth="yes"/>
      <point x="922" y="1059"/>
      <point x="791" y="1117"/>
      <point x="647" y="1117" type="curve" smooth="yes"/>
      <point x="627" y="1117" type="line"/>
      <point x="606" y="1117" type="line" smooth="yes"/>
      <point x="458" y="1117"/>
      <point x="326" y="1059"/>
      <point x="231" y="958" type="curve" smooth="yes"/>
      <point x="135" y="857"/>
      <point x="81" y="714"/>
      <point x="81" y="553" type="curve" smooth="yes"/>
      <point x="81" y="229"/>
      <point x="308" y="-17"/>
    </contour>
    <contour>
      <point x="838" y="528" type="curve" smooth="yes"/>
      <point x="838" y="364"/>
      <point x="776" y="203"/>
      <point x="631" y="203" type="curve" smooth="yes"/>
      <point x="475" y="203"/>
      <point x="408" y="388"/>
      <point x="408" y="571" type="curve" smooth="yes"/>
      <point x="408" y="736"/>
      <point x="475" y="897"/>
      <point x="623" y="897" type="curve" smooth="yes"/>
      <point x="779" y="897"/>
      <point x="838" y="709"/>
    </contour>
  </outline>
</glyph>
<glyph name="odieresis" format="2">
  <advance width="1300"/>
  <unicode hex="00F6"/>
  <outline>
    <contour>
      <point x="282" y="1300" type="line"/>
      <point x="558" y="1300" type="line"/>
      <point x="558" y="1566" type="line"/>
      <point x="282" y="1566" type="line"/>
    </contour>
    <contour>
      <point x="682" y="1300" type="line"/>
      <point x="958" y="1300" type="line"/>
      <point x="958" y="1566" type="line"/>
      <point x="682" y="1566" type="line"/>
    </contour>
    <contour>
      <point x="627" y="-17" type="curve" smooth="yes"/>
      <point x="957" y="-17"/>
      <point x="1164" y="229"/>
      <point x="1164" y="553" type="curve" smooth="yes"/>
      <point x="1164" y="714"/>
      <point x="1110" y="857"/>
      <point x="1016" y="958" type="curve" smooth="yes"/>
      <point x="922" y="1059"/>
      <point x="791" y="1117"/>
      <point x="647" y="1117" type="curve" smooth="yes"/>
      <point x="627" y="1117" type="line"/>
      <point x="606" y="1117" type="line" smooth="yes"/>
      <point x="458" y="1117"/>
      <point x="326" y="1059"/>
      <point x="231" y="958" type="curve" smooth="yes"/>
      <point x="135" y="857"/>
      <point x="81" y="714"/>
      <point x="81" y="553" type="curve" smooth="yes"/>
      <point x="81" y="229"/>
      <point x="308" y="-17"/>
    </contour>
    <contour>
      <point x="838" y="528" type="curve" smooth="yes"/>
      <point x="838" y="364"/>
      <point x="776" y="203"/>
      <point x="631" y="203" type="curve" smooth="yes"/>
      <point x="475" y="203"/>
      <point x="408" y="388"/>
      <point x="408" y="571" type="curve" smooth="yes"/>
      <point x="408" y="736"/>
      <point x="475" y="897"/>
      <point x="623" y="897" type="curve" smooth="yes"/>
      <point x="779" y="897"/>
      <point x="838" y="709"/>
    </contour>
  </outline>
</glyph>
<glyph name="divide" format="2">
  <advance width="1300"/>
  <unicode hex="00F7"/>
  <outline>
    <contour>
      <point x="509" y="940" type="curve" smooth="yes"/>
      <point x="509" y="865"/>
      <point x="573" y="797"/>
      <point x="650" y="797" type="curve" smooth="yes"/>
      <point x="727" y="797"/>
      <point x="789" y="865"/>
      <point x="789" y="940" type="curve" smooth="yes"/>
      <point x="789" y="1017"/>
      <point x="725" y="1081"/>
      <point x="649" y="1081" type="curve" smooth="yes"/>
      <point x="573" y="1081"/>
      <point x="509" y="1017"/>
    </contour>
    <contour>
      <point x="200" y="500" type="line"/>
      <point x="1100" y="500" type="line"/>
      <point x="1100" y="724" type="line"/>
      <point x="200" y="724" type="line"/>
    </contour>
    <contour>
      <point x="509" y="287" type="curve" smooth="yes"/>
      <point x="509" y="212"/>
      <point x="573" y="144"/>
      <point x="650" y="144" type="curve" smooth="yes"/>
      <point x="727" y="144"/>
      <point x="789" y="212"/>
      <point x="789" y="287" type="curve" smooth="yes"/>
      <point x="789" y="364"/>
      <point x="725" y="428"/>
      <point x="649" y="428" type="curve" smooth="yes"/>
      <point x="573" y="428"/>
      <point x="509" y="364"/>
    </contour>
  </outline>
</glyph>
<glyph name="oslash" format="2">
  <advance width="1300"/>
  <unicode hex="00F8"/>
  <outline>
    <contour>
      <point x="1111" y="1209" type="line"/>
      <point x="861" y="1209" type="line"/>
      <point x="785" y="1084" type="line"/>
      <point x="729" y="1106"/>
      <point x="668" y="1117"/>
      <point x="603" y="1117" type="curve" smooth="yes"/>
      <point x="582" y="1117" type="line"/>
      <point x="561" y="1117" type="line" smooth="yes"/>
      <point x="413" y="1117"/>
      <point x="281" y="1059"/>
      <point x="186" y="958" type="curve" smooth="yes"/>
      <point x="90" y="857"/>
      <point x="36" y="714"/>
      <point x="36" y="553" type="curve" smooth="yes"/>
      <point x="36" y="390"/>
      <point x="93" y="248"/>
      <point x="190" y="147" type="curve" smooth="yes"/>
      <point x="194" y="142"/>
      <point x="198" y="137"/>
      <point x="203" y="133" type="curve"/>
      <point x="61" y="-100" type="line"/>
      <point x="321" y="-100" type="line"/>
      <point x="390" y="15" type="line"/>
      <point x="449" y="-6"/>
      <point x="513" y="-17"/>
      <point x="582" y="-17" type="curve" smooth="yes"/>
      <point x="912" y="-17"/>
      <point x="1119" y="229"/>
      <point x="1119" y="553" type="curve" smooth="yes"/>
      <point x="1119" y="714"/>
      <point x="1064" y="857"/>
      <point x="971" y="958" type="curve"/>
      <point x="964" y="965" type="line"/>
    </contour>
    <contour>
      <point x="379" y="421" type="line"/>
      <point x="376" y="436" type="line" smooth="yes"/>
      <point x="367" y="480"/>
      <point x="363" y="525"/>
      <point x="363" y="571" type="curve" smooth="yes"/>
      <point x="363" y="736"/>
      <point x="430" y="897"/>
      <point x="578" y="897" type="curve" smooth="yes"/>
      <point x="608" y="897"/>
      <point x="635" y="890"/>
      <point x="658" y="877" type="curve"/>
    </contour>
    <contour>
      <point x="793" y="528" type="curve" smooth="yes"/>
      <point x="793" y="364"/>
      <point x="731" y="203"/>
      <point x="586" y="203" type="curve" smooth="yes"/>
      <point x="559" y="203"/>
      <point x="534" y="208"/>
      <point x="513" y="218" type="curve"/>
      <point x="781" y="663" type="line"/>
      <point x="781" y="662"/>
      <point x="781" y="662"/>
      <point x="782" y="662" type="curve"/>
      <point x="789" y="618"/>
      <point x="793" y="573"/>
    </contour>
  </outline>
</glyph>
<glyph name="ucircumflex" format="2">
  <advance width="1300"/>
  <unicode hex="00FB"/>
  <outline>
    <contour>
      <point x="780" y="1520" type="line"/>
      <point x="490" y="1500" type="line"/>
      <point x="295" y="1220" type="line"/>
      <point x="534" y="1220" type="line"/>
      <point x="615" y="1323" type="line"/>
      <point x="645" y="1450" type="line"/>
      <point x="675" y="1323" type="line"/>
      <point x="745" y="1220" type="line"/>
      <point x="965" y="1220" type="line"/>
    </contour>
    <contour>
      <point x="815" y="318" type="line"/>
      <point x="789" y="274"/>
      <point x="727" y="213"/>
      <point x="639" y="213" type="curve" smooth="yes"/>
      <point x="502" y="213"/>
      <point x="460" y="299"/>
      <point x="460" y="438" type="curve" smooth="yes"/>
      <point x="460" y="1120" type="line"/>
      <point x="144" y="1100" type="line"/>
      <point x="144" y="438" type="line" smooth="yes"/>
      <point x="144" y="203"/>
      <point x="256" y="-17"/>
      <point x="613" y="-17" type="curve" smooth="yes"/>
      <point x="656" y="-17"/>
      <point x="697" y="-11"/>
      <point x="734" y="0" type="curve"/>
      <point x="815" y="100" type="line"/>
      <point x="815" y="0" type="line"/>
      <point x="1132" y="0" type="line"/>
      <point x="1132" y="1120" type="line"/>
      <point x="815" y="1100" type="line"/>
    </contour>
  </outline>
</glyph>
<glyph name="udieresis" format="2">
  <advance width="1300"/>
  <unicode hex="00FC"/>
  <outline>
    <contour>
      <point x="300" y="1300" type="line"/>
      <point x="576" y="1300" type="line"/>
      <point x="576" y="1566" type="line"/>
      <point x="300" y="1566" type="line"/>
    </contour>
    <contour>
      <point x="700" y="1300" type="line"/>
      <point x="976" y="1300" type="line"/>
      <point x="976" y="1566" type="line"/>
      <point x="700" y="1566" type="line"/>
    </contour>
    <contour>
      <point x="815" y="318" type="line"/>
      <point x="789" y="274"/>
      <point x="727" y="213"/>
      <point x="639" y="213" type="curve" smooth="yes"/>
      <point x="502" y="213"/>
      <point x="460" y="299"/>
      <point x="460" y="438" type="curve" smooth="yes"/>
      <point x="460" y="1120" type="line"/>
      <point x="144" y="1100" type="line"/>
      <point x="144" y="438" type="line" smooth="yes"/>
      <point x="144" y="203"/>
      <point x="256" y="-17"/>
      <point x="613" y="-17" type="curve" smooth="yes"/>
      <point x="656" y="-17"/>
      <point x="697" y="-11"/>
      <point x="734" y="0" type="curve"/>
      <point x="815" y="100" type="line"/>
      <point x="815" y="0" type="line"/>
      <point x="1132" y="0" type="line"/>
      <point x="1132" y="1120" type="line"/>
      <point x="815" y="1100" type="line"/>
    </contour>
  </outline>
</glyph>
<glyph name="yacute" format="2">
  <advance width="1300"/>
  <unicode hex="00FD"/>
  <outline>
    <contour>
      <point x="503" y="1200" type="line"/>
      <point x="718" y="1200" type="line"/>
      <point x="1003" y="1520" type="line"/>
      <point x="666" y="1500" type="line"/>
    </contour>
    <contour>
      <point x="417" y="1120" type="line"/>
      <point x="91" y="1100" type="line"/>
      <point x="510" y="-47" type="line"/>
      <point x="461" y="-164"/>
      <point x="418" y="-234"/>
      <point x="361" y="-234" type="curve" smooth="yes"/>
      <point x="325" y="-234"/>
      <point x="290" y="-214"/>
      <point x="259" y="-194" type="curve"/>
      <point x="136" y="-374" type="line"/>
      <point x="213" y="-442"/>
      <point x="303" y="-480"/>
      <point x="392" y="-480" type="curve" smooth="yes"/>
      <point x="615" y="-480"/>
      <point x="730" y="-213"/>
      <point x="811" y="8" type="curve" smooth="yes"/>
      <point x="1219" y="1120" type="line"/>
      <point x="899" y="1100" type="line"/>
      <point x="736" y="670" type="line"/>
      <point x="657" y="200" type="line"/>
      <point x="580" y="670" type="line"/>
    </contour>
  </outline>
</glyph>
<glyph name="Scaron" format="2">
  <advance width="1300"/>
  <unicode hex="0160"/>
  <outline>
    <contour>
      <point x="966" y="1900" type="line"/>
      <point x="761" y="1900" type="line"/>
      <point x="685" y="1807" type="line"/>
      <point x="651" y="1680" type="line"/>
      <point x="615" y="1807" type="line"/>
      <point x="540" y="1900" type="line"/>
      <point x="310" y="1900" type="line"/>
      <point x="483" y="1625" type="line"/>
      <point x="779" y="1596" type="line"/>
    </contour>
    <contour>
      <point x="1125" y="1369" type="line"/>
      <point x="976" y="1469"/>
      <point x="838" y="1517"/>
      <point x="681" y="1517" type="curve" smooth="yes"/>
      <point x="425" y="1517"/>
      <point x="175" y="1367"/>
      <point x="175" y="1097" type="curve" smooth="yes"/>
      <point x="175" y="889"/>
      <point x="364" y="783"/>
      <point x="555" y="693" type="curve" smooth="yes"/>
      <point x="691" y="629"/>
      <point x="834" y="574"/>
      <point x="834" y="430" type="curve" smooth="yes"/>
      <point x="834" y="282"/>
      <point x="714" y="236"/>
      <point x="596" y="236" type="curve" smooth="yes"/>
      <point x="495" y="236"/>
      <point x="363" y="300"/>
      <point x="290" y="348" type="curve"/>
      <point x="152" y="121" type="line"/>
      <point x="295" y="32"/>
      <point x="430" y="-17"/>
      <point x="598" y="-17" type="curve" smooth="yes"/>
      <point x="892" y="-17"/>
      <point x="1170" y="140"/>
      <point x="1170" y="448" type="curve" smooth="yes"/>
      <point x="1170" y="716"/>
      <point x="938" y="828"/>
      <point x="738" y="921" type="curve"/>
      <point x="621" y="974"/>
      <point x="501" y="1016"/>
      <point x="501" y="1125" type="curve" smooth="yes"/>
      <point x="501" y="1241"/>
      <point x="606" y="1274"/>
      <point x="705" y="1274" type="curve" smooth="yes"/>
      <point x="780" y="1274"/>
      <point x="852" y="1250"/>
      <point x="975" y="1178" type="curve"/>
    </contour>
  </outline>
</glyph>
<glyph name="scaron" format="2">
  <advance width="1300"/>
  <unicode hex="0161"/>
  <outline>
    <contour>
      <point x="966" y="1520" type="line"/>
      <point x="761" y="1520" type="line"/>
      <point x="685" y="1427" type="line"/>
      <point x="651" y="1300" type="line"/>
      <point x="615" y="1427" type="line"/>
      <point x="540" y="1520" type="line"/>
      <point x="310" y="1520" type="line"/>
      <point x="483" y="1245" type="line"/>
      <point x="779" y="1216" type="line"/>
    </contour>
    <contour>
      <point x="1088" y="1022" type="line"/>
      <point x="1016" y="1067"/>
      <point x="855" y="1117"/>
      <point x="706" y="1117" type="curve" smooth="yes"/>
      <point x="430" y="1117"/>
      <point x="176" y="1025"/>
      <point x="176" y="822" type="curve" smooth="yes"/>
      <point x="176" y="715"/>
      <point x="225" y="614"/>
      <point x="401" y="531" type="curve"/>
      <point x="400" y="531" type="line"/>
      <point x="443" y="510"/>
      <point x="527" y="491"/>
      <point x="604" y="475" type="curve" smooth="yes"/>
      <point x="711" y="454"/>
      <point x="854" y="427"/>
      <point x="854" y="354" type="curve" smooth="yes"/>
      <point x="854" y="235"/>
      <point x="651" y="208"/>
      <point x="560" y="208" type="curve" smooth="yes"/>
      <point x="436" y="208"/>
      <point x="335" y="249"/>
      <point x="243" y="305" type="curve"/>
      <point x="145" y="95" type="line"/>
      <point x="236" y="31"/>
      <point x="399" y="-17"/>
      <point x="558" y="-17" type="curve" smooth="yes"/>
      <point x="811" y="-17"/>
      <point x="1155" y="88"/>
      <point x="1155" y="355" type="curve" smooth="yes"/>
      <point x="1155" y="483"/>
      <point x="1043" y="587"/>
      <point x="910" y="640" type="curve"/>
      <point x="870" y="655"/>
      <point x="801" y="669"/>
      <point x="733" y="684" type="curve" smooth="yes"/>
      <point x="617" y="708"/>
      <point x="456" y="735"/>
      <point x="456" y="804" type="curve" smooth="yes"/>
      <point x="456" y="880"/>
      <point x="597" y="898"/>
      <point x="712" y="898" type="curve" smooth="yes"/>
      <point x="837" y="898"/>
      <point x="930" y="849"/>
      <point x="1003" y="802" type="curve"/>
    </contour>
  </outline>
</glyph>
<glyph name="Ydieresis" format="2">
  <advance width="1300"/>
  <unicode hex="0178"/>
  <outline>
    <contour>
      <point x="382" y="1520" type="line"/>
      <point x="43" y="1500" type="line"/>
      <point x="472" y="650" type="line"/>
      <point x="472" y="0" type="line"/>
      <point x="823" y="0" type="line"/>
      <point x="823" y="650" type="line"/>
      <point x="1256" y="1500" type="line"/>
      <point x="921" y="1500" type="line"/>
      <point x="739" y="1143" type="line"/>
      <point x="681" y="773" type="line"/>
      <point x="574" y="1143" type="line"/>
    </contour>
    <contour>
      <point x="341" y="1600" type="line"/>
      <point x="617" y="1600" type="line"/>
      <point x="617" y="1866" type="line"/>
      <point x="341" y="1866" type="line"/>
    </contour>
    <contour>
      <point x="741" y="1600" type="line"/>
      <point x="1017" y="1600" type="line"/>
      <point x="1017" y="1866" type="line"/>
      <point x="741" y="1866" type="line"/>
    </contour>
  </outline>
</glyph>
<glyph name="circumflex" format="2">
  <advance width="1300"/>
  <unicode hex="02C6"/>
  <outline>
    <contour>
      <point x="735" y="1520" type="line"/>
      <point x="445" y="1500" type="line"/>
      <point x="250" y="1220" type="line"/>
      <point x="489" y="1220" type="line"/>
      <point x="570" y="1323" type="line"/>
      <point x="600" y="1450" type="line"/>
      <point x="630" y="1323" type="line"/>
      <point x="700" y="1220" type="line"/>
      <point x="920" y="1220" type="line"/>
    </contour>
  </outline>
</glyph>
<glyph name="ring" format="2">
  <advance width="1300"/>
  <unicode hex="02DA"/>
  <outline>
    <contour>
      <point x="600" y="1682" type="curve" smooth="yes"/>
      <point x="443" y="1682"/>
      <point x="314" y="1554"/>
      <point x="314" y="1397" type="curve" smooth="yes"/>
      <point x="314" y="1240"/>
      <point x="445" y="1108"/>
      <point x="602" y="1108" type="curve" smooth="yes"/>
      <point x="759" y="1108"/>
      <point x="884" y="1240"/>
      <point x="884" y="1397" type="curve" smooth="yes"/>
      <point x="884" y="1554"/>
      <point x="756" y="1682"/>
    </contour>
    <contour>
      <point x="601" y="1297" type="curve" smooth="yes"/>
      <point x="547" y="1297"/>
      <point x="503" y="1343"/>
      <point x="503" y="1396" type="curve" smooth="yes"/>
      <point x="503" y="1449"/>
      <point x="546" y="1493"/>
      <point x="600" y="1493" type="curve" smooth="yes"/>
      <point x="654" y="1493"/>
      <point x="697" y="1449"/>
      <point x="697" y="1396" type="curve" smooth="yes"/>
      <point x="697" y="1343"/>
      <point x="654" y="1297"/>
    </contour>
  </outline>
</glyph>
<glyph name="ogonek" format="2">
  <advance width="1300"/>
  <unicode hex="02DB"/>
  <outline>
    <contour>
      <point x="416" y="0" type="line"/>
      <point x="398" y="-13"/>
      <point x="382" y="-29"/>
      <point x="367" y="-46" type="curve"/>
      <point x="342" y="-77"/>
      <point x="317" y="-119"/>
      <point x="317" y="-171" type="curve" smooth="yes"/>
      <point x="317" y="-303"/>
      <point x="453" y="-407"/>
      <point x="605" y="-407" type="curve" smooth="yes"/>
      <point x="685" y="-407"/>
      <point x="764" y="-378"/>
      <point x="828" y="-349" type="curve" smooth="yes"/>
      <point x="865" y="-332"/>
      <point x="900" y="-312"/>
      <point x="934" y="-290" type="curve"/>
      <point x="819" y="-131" type="line"/>
      <point x="798" y="-144"/>
      <point x="776" y="-156"/>
      <point x="755" y="-166" type="curve" smooth="yes"/>
      <point x="720" y="-183"/>
      <point x="677" y="-200"/>
      <point x="648" y="-200" type="curve" smooth="yes"/>
      <point x="617" y="-200"/>
      <point x="584" y="-184"/>
      <point x="584" y="-147" type="curve" smooth="yes"/>
      <point x="584" y="-90"/>
      <point x="660" y="-16"/>
      <point x="678" y="0" type="curve"/>
    </contour>
  </outline>
</glyph>
<glyph name="tilde" format="2">
  <advance width="1300"/>
  <unicode hex="02DC"/>
  <outline>
    <contour>
      <point x="500" y="1300" type="line"/>
      <point x="511" y="1340"/>
      <point x="525" y="1380"/>
      <point x="573" y="1380" type="curve" smooth="yes"/>
      <point x="668" y="1380"/>
      <point x="699" y="1300"/>
      <point x="822" y="1300" type="curve" smooth="yes"/>
      <point x="999" y="1300"/>
      <point x="1059" y="1445"/>
      <point x="1067" y="1562" type="curve"/>
      <point x="900" y="1572" type="line"/>
      <point x="892" y="1524"/>
      <point x="875" y="1484"/>
      <point x="819" y="1484" type="curve" smooth="yes"/>
      <point x="737" y="1484"/>
      <point x="699" y="1564"/>
      <point x="569" y="1564" type="curve" smooth="yes"/>
      <point x="400" y="1564"/>
      <point x="329" y="1415"/>
      <point x="318" y="1307" type="curve"/>
    </contour>
  </outline>
</glyph>
<glyph name="hungarumlaut" format="2">
  <advance width="1300"/>
  <unicode hex="02DD"/>
  <outline>
    <contour>
      <point x="156" y="1117" type="line"/>
      <point x="385" y="1117" type="line"/>
      <point x="667" y="1518" type="line"/>
      <point x="336" y="1496" type="line"/>
    </contour>
    <contour>
      <point x="519" y="1117" type="line"/>
      <point x="748" y="1117" type="line"/>
      <point x="1030" y="1518" type="line"/>
      <point x="699" y="1496" type="line"/>
    </contour>
  </outline>
</glyph>
<glyph name="Gamma" format="2">
  <advance width="1300"/>
  <unicode hex="0393"/>
  <outline>
    <contour>
      <point x="509" y="1282" type="line"/>
      <point x="1109" y="1282" type="line"/>
      <point x="1109" y="1500" type="line"/>
      <point x="160" y="1500" type="line"/>
      <point x="179" y="1269" type="line"/>
      <point x="179" y="0" type="line"/>
      <point x="521" y="0" type="line"/>
      <point x="521" y="1131" type="line"/>
    </contour>
  </outline>
</glyph>
<glyph name="uni0394" format="2">
  <advance width="1300"/>
  <unicode hex="0394"/>
  <outline>
    <contour>
      <point x="897" y="228" type="line"/>
      <point x="402" y="228" type="line"/>
      <point x="650" y="1117" type="line"/>
    </contour>
    <contour>
      <point x="1294" y="0" type="line"/>
      <point x="809" y="1520" type="line"/>
      <point x="477" y="1500" type="line"/>
      <point x="5" y="0" type="line"/>
    </contour>
  </outline>
</glyph>
<glyph name="Eta" format="2">
  <advance width="1300"/>
  <unicode hex="0397"/>
  <outline>
    <contour>
      <point x="1147" y="0" type="line"/>
      <point x="1147" y="1520" type="line"/>
      <point x="801" y="1500" type="line"/>
      <point x="801" y="916" type="line"/>
      <point x="355" y="916" type="line"/>
      <point x="355" y="1520" type="line"/>
      <point x="-23" y="1500" type="line"/>
      <point x="8" y="1263" type="line"/>
      <point x="8" y="0" type="line"/>
      <point x="355" y="0" type="line"/>
      <point x="355" y="688" type="line"/>
      <point x="801" y="688" type="line"/>
      <point x="801" y="0" type="line"/>
    </contour>
  </outline>
</glyph>
<glyph name="Theta" format="2">
  <advance width="1200"/>
  <unicode hex="0398"/>
  <outline>
    <contour>
      <point x="623" y="-17" type="curve" smooth="yes"/>
      <point x="1024" y="-17"/>
      <point x="1221" y="330"/>
      <point x="1221" y="750" type="curve" smooth="yes"/>
      <point x="1221" y="1170"/>
      <point x="1014" y="1517"/>
      <point x="623" y="1517" type="curve" smooth="yes"/>
      <point x="220" y="1517"/>
      <point x="24" y="1170"/>
      <point x="24" y="750" type="curve" smooth="yes"/>
      <point x="24" y="330"/>
      <point x="231" y="-17"/>
    </contour>
    <contour>
      <point x="871" y="721" type="curve" smooth="yes"/>
      <point x="871" y="506"/>
      <point x="835" y="226"/>
      <point x="628" y="226" type="curve" smooth="yes"/>
      <point x="407" y="226"/>
      <point x="374" y="532"/>
      <point x="374" y="783" type="curve" smooth="yes"/>
      <point x="374" y="999"/>
      <point x="409" y="1274"/>
      <point x="617" y="1274" type="curve" smooth="yes"/>
      <point x="839" y="1274"/>
      <point x="871" y="969"/>
    </contour>
    <contour>
      <point x="440" y="662" type="line"/>
      <point x="780" y="662" type="line"/>
      <point x="800" y="900" type="line"/>
      <point x="460" y="900" type="line"/>
    </contour>
  </outline>
</glyph>
<glyph name="Kappa" format="2">
  <advance width="1300"/>
  <unicode hex="039A"/>
  <outline>
    <contour>
      <point x="472" y="0" type="line"/>
      <point x="472" y="540" type="line"/>
      <point x="872" y="0" type="line"/>
      <point x="1252" y="0" type="line"/>
      <point x="722" y="716" type="line"/>
      <point x="499" y="800" type="line"/>
      <point x="732" y="900" type="line"/>
      <point x="1231" y="1500" type="line"/>
      <point x="863" y="1500" type="line"/>
      <point x="472" y="1035" type="line"/>
      <point x="472" y="1520" type="line"/>
      <point x="88" y="1500" type="line"/>
      <point x="121" y="1263" type="line"/>
      <point x="121" y="0" type="line"/>
    </contour>
  </outline>
</glyph>
<glyph name="Xi" format="2">
  <advance width="1300"/>
  <unicode hex="039E"/>
  <outline>
    <contour>
      <point x="165" y="675" type="line"/>
      <point x="1037" y="675" type="line"/>
      <point x="1037" y="916" type="line"/>
      <point x="165" y="916" type="line"/>
    </contour>
    <contour>
      <point x="70" y="0" type="line"/>
      <point x="1131" y="0" type="line"/>
      <point x="1131" y="241" type="line"/>
      <point x="70" y="241" type="line"/>
    </contour>
    <contour>
      <point x="70" y="1259" type="line"/>
      <point x="1131" y="1259" type="line"/>
      <point x="1131" y="1500" type="line"/>
      <point x="70" y="1500" type="line"/>
    </contour>
  </outline>
</glyph>
<glyph name="Sigma" format="2">
  <advance width="1300"/>
  <unicode hex="03A3"/>
  <outline>
    <contour>
      <point x="943" y="801" type="line"/>
      <point x="564" y="1200" type="line"/>
      <point x="434" y="1300" type="line"/>
      <point x="594" y="1283" type="line"/>
      <point x="1200" y="1283" type="line"/>
      <point x="1200" y="1500" type="line"/>
      <point x="75" y="1500" type="line"/>
      <point x="98" y="1284" type="line"/>
      <point x="554" y="810" type="line"/>
      <point x="764" y="750" type="line"/>
      <point x="554" y="690" type="line"/>
      <point x="98" y="216" type="line"/>
      <point x="75" y="0" type="line"/>
      <point x="1200" y="0" type="line"/>
      <point x="1200" y="217" type="line"/>
      <point x="594" y="217" type="line"/>
      <point x="434" y="200" type="line"/>
      <point x="564" y="300" type="line"/>
      <point x="943" y="699" type="line"/>
    </contour>
  </outline>
</glyph>
<glyph name="Phi" format="2">
  <advance width="1300"/>
  <unicode hex="03A6"/>
  <outline>
    <contour>
      <point x="477" y="0" type="line"/>
      <point x="818" y="0" type="line"/>
      <point x="818" y="204" type="line"/>
      <point x="845" y="211"/>
      <point x="873" y="216"/>
      <point x="898" y="224" type="curve"/>
      <point x="897" y="224" type="line"/>
      <point x="1145" y="300"/>
      <point x="1275" y="473"/>
      <point x="1275" y="750" type="curve" smooth="yes"/>
      <point x="1275" y="1025"/>
      <point x="1144" y="1201"/>
      <point x="896" y="1276" type="curve"/>
      <point x="897" y="1276" type="line"/>
      <point x="872" y="1284"/>
      <point x="846" y="1289"/>
      <point x="818" y="1296" type="curve"/>
      <point x="818" y="1520" type="line"/>
      <point x="477" y="1500" type="line"/>
      <point x="477" y="1296" type="line"/>
      <point x="449" y="1289"/>
      <point x="424" y="1284"/>
      <point x="399" y="1276" type="curve"/>
      <point x="400" y="1276" type="line"/>
      <point x="151" y="1201"/>
      <point x="22" y="1025"/>
      <point x="22" y="750" type="curve" smooth="yes"/>
      <point x="22" y="473"/>
      <point x="151" y="300"/>
      <point x="400" y="224" type="curve"/>
      <point x="399" y="224" type="line"/>
      <point x="424" y="216"/>
      <point x="449" y="211"/>
      <point x="477" y="204" type="curve"/>
    </contour>
    <contour>
      <point x="818" y="1055" type="line"/>
      <point x="906" y="1007"/>
      <point x="974" y="910"/>
      <point x="974" y="750" type="curve" smooth="yes"/>
      <point x="974" y="592"/>
      <point x="906" y="492"/>
      <point x="818" y="444" type="curve"/>
    </contour>
    <contour>
      <point x="477" y="445" type="line"/>
      <point x="386" y="490"/>
      <point x="323" y="590"/>
      <point x="323" y="750" type="curve" smooth="yes"/>
      <point x="323" y="910"/>
      <point x="385" y="1008"/>
      <point x="477" y="1055" type="curve"/>
    </contour>
  </outline>
</glyph>
<glyph name="Psi" format="2">
  <advance width="1300"/>
  <unicode hex="03A8"/>
  <outline>
    <contour>
      <point x="480" y="1500" type="line"/>
      <point x="480" y="688" type="line"/>
      <point x="443" y="723"/>
      <point x="398" y="785"/>
      <point x="398" y="896" type="curve" smooth="yes"/>
      <point x="398" y="1520" type="line"/>
      <point x="49" y="1500" type="line"/>
      <point x="82" y="1263" type="line"/>
      <point x="82" y="914" type="line" smooth="yes"/>
      <point x="82" y="613"/>
      <point x="215" y="465"/>
      <point x="480" y="422" type="curve"/>
      <point x="480" y="1" type="line"/>
      <point x="822" y="1" type="line"/>
      <point x="822" y="422" type="line"/>
      <point x="1076" y="457"/>
      <point x="1221" y="567"/>
      <point x="1221" y="867" type="curve" smooth="yes"/>
      <point x="1221" y="1500" type="line"/>
      <point x="904" y="1500" type="line"/>
      <point x="904" y="849" type="line" smooth="yes"/>
      <point x="904" y="746"/>
      <point x="861" y="695"/>
      <point x="822" y="671" type="curve"/>
      <point x="822" y="1520" type="line"/>
    </contour>
  </outline>
</glyph>
<glyph name="alpha" format="2">
  <advance width="1300"/>
  <unicode hex="03B1"/>
  <outline>
    <contour>
      <point x="985" y="1120" type="line"/>
      <point x="905" y="1085"/>
      <point x="846" y="1054"/>
      <point x="807" y="1025" type="curve"/>
      <point x="731" y="1094"/>
      <point x="658" y="1117"/>
      <point x="565" y="1117" type="curve" smooth="yes"/>
      <point x="226" y="1117"/>
      <point x="100" y="877"/>
      <point x="100" y="553" type="curve" smooth="yes"/>
      <point x="100" y="229"/>
      <point x="237" y="-17"/>
      <point x="565" y="-17" type="curve" smooth="yes"/>
      <point x="658" y="-17"/>
      <point x="729" y="0"/>
      <point x="803" y="68" type="curve"/>
      <point x="865" y="11"/>
      <point x="948" y="-17"/>
      <point x="1051" y="-17" type="curve" smooth="yes"/>
      <point x="1108" y="-17"/>
      <point x="1170" y="2"/>
      <point x="1241" y="35" type="curve"/>
      <point x="1166" y="203" type="line"/>
      <point x="1145" y="196"/>
      <point x="1115" y="187"/>
      <point x="1083" y="187" type="curve" smooth="yes"/>
      <point x="1032" y="187"/>
      <point x="1032" y="228"/>
      <point x="1032" y="291" type="curve" smooth="yes"/>
      <point x="1032" y="552" type="line" smooth="yes"/>
      <point x="1032" y="684"/>
      <point x="1034" y="773"/>
      <point x="1037" y="829" type="curve" smooth="yes"/>
      <point x="1040" y="879"/>
      <point x="1068" y="923"/>
      <point x="1119" y="962" type="curve"/>
    </contour>
    <contour>
      <point x="706" y="528" type="curve" smooth="yes"/>
      <point x="706" y="364"/>
      <point x="697" y="203"/>
      <point x="569" y="203" type="curve" smooth="yes"/>
      <point x="432" y="203"/>
      <point x="426" y="388"/>
      <point x="426" y="571" type="curve" smooth="yes"/>
      <point x="426" y="736"/>
      <point x="433" y="897"/>
      <point x="562" y="897" type="curve" smooth="yes"/>
      <point x="699" y="897"/>
      <point x="706" y="709"/>
    </contour>
  </outline>
</glyph>
<glyph name="beta" format="2">
  <advance width="1300"/>
  <unicode hex="03B2"/>
  <outline>
    <contour>
      <point x="602" y="-17" type="curve" smooth="yes"/>
      <point x="1050" y="-17"/>
      <point x="1149" y="270"/>
      <point x="1149" y="460" type="curve" smooth="yes"/>
      <point x="1149" y="575"/>
      <point x="1111" y="637"/>
      <point x="1050" y="701" type="curve" smooth="yes"/>
      <point x="1019" y="734"/>
      <point x="977" y="761"/>
      <point x="926" y="784" type="curve"/>
      <point x="734" y="809" type="line"/>
      <point x="938" y="871" type="line"/>
      <point x="1005" y="935"/>
      <point x="1059" y="1035"/>
      <point x="1059" y="1155" type="curve" smooth="yes"/>
      <point x="1059" y="1390"/>
      <point x="858" y="1517"/>
      <point x="623" y="1517" type="curve" smooth="yes"/>
      <point x="342" y="1517"/>
      <point x="134" y="1385"/>
      <point x="134" y="1101" type="curve" smooth="yes"/>
      <point x="134" y="-500" type="line"/>
      <point x="470" y="-517" type="line"/>
      <point x="470" y="-7" type="line"/>
      <point x="509" y="-12"/>
      <point x="555" y="-17"/>
    </contour>
    <contour>
      <point x="461" y="1147" type="line" smooth="yes"/>
      <point x="461" y="1258"/>
      <point x="521" y="1317"/>
      <point x="600" y="1317" type="curve" smooth="yes"/>
      <point x="683" y="1317"/>
      <point x="750" y="1229"/>
      <point x="750" y="1135" type="curve" smooth="yes"/>
      <point x="750" y="945"/>
      <point x="589" y="905"/>
      <point x="510" y="900" type="curve"/>
      <point x="600" y="700" type="line"/>
      <point x="761" y="700"/>
      <point x="832" y="612"/>
      <point x="832" y="451" type="curve" smooth="yes"/>
      <point x="832" y="282"/>
      <point x="719" y="183"/>
      <point x="576" y="183" type="curve" smooth="yes"/>
      <point x="537" y="183"/>
      <point x="493" y="195"/>
      <point x="461" y="211" type="curve"/>
    </contour>
  </outline>
</glyph>
<glyph name="gamma" format="2">
  <advance width="1300"/>
  <unicode hex="03B3"/>
  <outline>
    <contour>
      <point x="80" y="920" type="line"/>
      <point x="96" y="918"/>
      <point x="111" y="914"/>
      <point x="126" y="907" type="curve" smooth="yes"/>
      <point x="151" y="896"/>
      <point x="179" y="874"/>
      <point x="194" y="834" type="curve" smooth="yes"/>
      <point x="500" y="-7" type="line"/>
      <point x="500" y="-500" type="line"/>
      <point x="828" y="-500" type="line"/>
      <point x="828" y="21" type="line"/>
      <point x="1224" y="1120" type="line"/>
      <point x="914" y="1100" type="line"/>
      <point x="746" y="643" type="line"/>
      <point x="667" y="220" type="line"/>
      <point x="587" y="641" type="line"/>
      <point x="482" y="927" type="line" smooth="yes"/>
      <point x="415" y="1109"/>
      <point x="231" y="1114"/>
      <point x="80" y="1117" type="curve"/>
    </contour>
  </outline>
</glyph>
<glyph name="epsilon" format="2">
  <advance width="1300"/>
  <unicode hex="03B5"/>
  <outline>
    <contour>
      <point x="661" y="665" type="line" smooth="yes"/>
      <point x="609" y="665"/>
      <point x="562" y="714"/>
      <point x="562" y="775" type="curve" smooth="yes"/>
      <point x="562" y="842"/>
      <point x="622" y="917"/>
      <point x="726" y="917" type="curve" smooth="yes"/>
      <point x="781" y="917"/>
      <point x="838" y="912"/>
      <point x="882" y="905" type="curve"/>
      <point x="908" y="902"/>
      <point x="933" y="898"/>
      <point x="957" y="894" type="curve"/>
      <point x="1029" y="1042" type="line"/>
      <point x="994" y="1055"/>
      <point x="957" y="1068"/>
      <point x="919" y="1079" type="curve" smooth="yes"/>
      <point x="854" y="1098"/>
      <point x="769" y="1117"/>
      <point x="688" y="1117" type="curve" smooth="yes"/>
      <point x="483" y="1117"/>
      <point x="236" y="1027"/>
      <point x="236" y="792" type="curve" smooth="yes"/>
      <point x="236" y="696"/>
      <point x="277" y="622"/>
      <point x="348" y="562" type="curve"/>
      <point x="279" y="502"/>
      <point x="236" y="425"/>
      <point x="236" y="329" type="curve" smooth="yes"/>
      <point x="236" y="96"/>
      <point x="483" y="-17"/>
      <point x="688" y="-17" type="curve" smooth="yes"/>
      <point x="843" y="-17"/>
      <point x="948" y="20"/>
      <point x="1015" y="57" type="curve" smooth="yes"/>
      <point x="1054" y="79"/>
      <point x="1086" y="104"/>
      <point x="1110" y="131" type="curve"/>
      <point x="971" y="268" type="line"/>
      <point x="944" y="252"/>
      <point x="917" y="238"/>
      <point x="890" y="226" type="curve" smooth="yes"/>
      <point x="843" y="205"/>
      <point x="782" y="184"/>
      <point x="726" y="184" type="curve" smooth="yes"/>
      <point x="631" y="184"/>
      <point x="562" y="253"/>
      <point x="562" y="328" type="curve" smooth="yes"/>
      <point x="562" y="406"/>
      <point x="600" y="466"/>
      <point x="661" y="466" type="curve" smooth="yes"/>
      <point x="930" y="466" type="line"/>
      <point x="959" y="665" type="line"/>
    </contour>
  </outline>
</glyph>
<glyph name="zeta" format="2">
  <advance width="1300"/>
  <unicode hex="03B6"/>
  <outline>
    <contour>
      <point x="274" y="1500" type="line"/>
      <point x="247" y="1300" type="line"/>
      <point x="519" y="1300" type="line"/>
      <point x="760" y="1318" type="line"/>
      <point x="544" y="1202" type="line"/>
      <point x="412" y="1065"/>
      <point x="190" y="782"/>
      <point x="190" y="496" type="curve" smooth="yes"/>
      <point x="190" y="289"/>
      <point x="294" y="146"/>
      <point x="493" y="33" type="curve" smooth="yes"/>
      <point x="568" y="-10"/>
      <point x="736" y="-68"/>
      <point x="736" y="-180" type="curve" smooth="yes"/>
      <point x="736" y="-230"/>
      <point x="665" y="-281"/>
      <point x="582" y="-324" type="curve"/>
      <point x="716" y="-517" type="line"/>
      <point x="912" y="-428"/>
      <point x="1067" y="-296"/>
      <point x="1067" y="-162" type="curve" smooth="yes"/>
      <point x="1067" y="40"/>
      <point x="847" y="116"/>
      <point x="681" y="223" type="curve" smooth="yes"/>
      <point x="550" y="307"/>
      <point x="493" y="398"/>
      <point x="493" y="519" type="curve" smooth="yes"/>
      <point x="493" y="794"/>
      <point x="846" y="1120"/>
      <point x="1070" y="1308" type="curve"/>
      <point x="1094" y="1500" type="line"/>
    </contour>
  </outline>
</glyph>
<glyph name="eta" format="2">
  <advance width="1300"/>
  <unicode hex="03B7"/>
  <outline>
    <contour>
      <point x="478" y="841" type="line"/>
      <point x="535" y="879"/>
      <point x="600" y="917"/>
      <point x="646" y="917" type="curve" smooth="yes"/>
      <point x="705" y="917"/>
      <point x="721" y="870"/>
      <point x="721" y="761" type="curve" smooth="yes"/>
      <point x="721" y="-500" type="line"/>
      <point x="1047" y="-500" type="line"/>
      <point x="1047" y="736" type="line" smooth="yes"/>
      <point x="1047" y="969"/>
      <point x="960" y="1116"/>
      <point x="707" y="1116" type="curve" smooth="yes"/>
      <point x="624" y="1116"/>
      <point x="543" y="1094"/>
      <point x="478" y="1067" type="curve"/>
      <point x="478" y="1120" type="line"/>
      <point x="152" y="1100" type="line"/>
      <point x="152" y="0" type="line"/>
      <point x="478" y="0" type="line"/>
    </contour>
  </outline>
</glyph>
<glyph name="theta" format="2">
  <advance width="1300"/>
  <unicode hex="03B8"/>
  <outline>
    <contour>
      <point x="600" y="-17" type="curve" smooth="yes"/>
      <point x="1000" y="-17"/>
      <point x="1140" y="404"/>
      <point x="1140" y="746" type="curve" smooth="yes"/>
      <point x="1140" y="1090"/>
      <point x="1000" y="1517"/>
      <point x="600" y="1517" type="curve" smooth="yes"/>
      <point x="199" y="1517"/>
      <point x="59" y="1090"/>
      <point x="59" y="746" type="curve" smooth="yes"/>
      <point x="59" y="403"/>
      <point x="200" y="-17"/>
    </contour>
    <contour>
      <point x="371" y="845" type="line"/>
      <point x="387" y="1041"/>
      <point x="458" y="1290"/>
      <point x="600" y="1290" type="curve" smooth="yes"/>
      <point x="740" y="1290"/>
      <point x="813" y="1041"/>
      <point x="829" y="845" type="curve"/>
    </contour>
    <contour>
      <point x="826" y="651" type="line"/>
      <point x="799" y="427"/>
      <point x="726" y="210"/>
      <point x="600" y="210" type="curve" smooth="yes"/>
      <point x="461" y="210"/>
      <point x="387" y="456"/>
      <point x="371" y="651" type="curve"/>
    </contour>
  </outline>
</glyph>
<glyph name="lambda" format="2">
  <advance width="1300"/>
  <unicode hex="03BB"/>
  <outline>
    <contour>
      <point x="1210" y="0" type="line"/>
      <point x="811" y="1092" type="line" smooth="yes"/>
      <point x="731" y="1313"/>
      <point x="606" y="1581"/>
      <point x="382" y="1581" type="curve" smooth="yes"/>
      <point x="293" y="1581"/>
      <point x="203" y="1542"/>
      <point x="126" y="1475" type="curve"/>
      <point x="245" y="1317" type="line"/>
      <point x="295" y="1351"/>
      <point x="314" y="1365"/>
      <point x="352" y="1365" type="curve" smooth="yes"/>
      <point x="397" y="1365"/>
      <point x="502" y="1265"/>
      <point x="526" y="1148" type="curve"/>
      <point x="100" y="0" type="line"/>
      <point x="413" y="0" type="line"/>
      <point x="570" y="454" type="line"/>
      <point x="650" y="875" type="line"/>
      <point x="729" y="452" type="line"/>
      <point x="897" y="0" type="line"/>
    </contour>
  </outline>
</glyph>
<glyph name="uni03BC" format="2">
  <advance width="1300"/>
  <unicode hex="03BC"/>
  <outline>
    <contour>
      <point x="740" y="0" type="line"/>
      <point x="1051" y="0" type="line"/>
      <point x="1051" y="1120" type="line"/>
      <point x="740" y="1100" type="line"/>
      <point x="740" y="251" type="line"/>
      <point x="701" y="214"/>
      <point x="652" y="183"/>
      <point x="595" y="183" type="curve" smooth="yes"/>
      <point x="524" y="183"/>
      <point x="451" y="244"/>
      <point x="451" y="345" type="curve" smooth="yes"/>
      <point x="451" y="1120" type="line"/>
      <point x="140" y="1100" type="line"/>
      <point x="140" y="-500" type="line"/>
      <point x="451" y="-500" type="line"/>
      <point x="451" y="-166" type="line"/>
      <point x="386" y="40" type="line"/>
      <point x="418" y="14"/>
      <point x="532" y="-17"/>
      <point x="585" y="-17" type="curve" smooth="yes"/>
      <point x="648" y="-17"/>
      <point x="697" y="2"/>
      <point x="740" y="27" type="curve"/>
    </contour>
  </outline>
</glyph>
<glyph name="nu" format="2">
  <advance width="1300"/>
  <unicode hex="03BD"/>
  <outline>
    <contour>
      <point x="411" y="1100" type="line"/>
      <point x="91" y="1100" type="line"/>
      <point x="473" y="0" type="line"/>
      <point x="827" y="0" type="line"/>
      <point x="1209" y="1100" type="line"/>
      <point x="888" y="1100" type="line"/>
      <point x="739" y="650" type="line"/>
      <point x="657" y="250" type="line"/>
      <point x="573" y="650" type="line"/>
    </contour>
  </outline>
</glyph>
<glyph name="xi" format="2">
  <advance width="1300"/>
  <unicode hex="03BE"/>
  <outline>
    <contour>
      <point x="484" y="33" type="curve" smooth="yes"/>
      <point x="564" y="-12"/>
      <point x="726" y="-73"/>
      <point x="726" y="-170" type="curve" smooth="yes"/>
      <point x="726" y="-220"/>
      <point x="655" y="-281"/>
      <point x="572" y="-324" type="curve"/>
      <point x="706" y="-517" type="line"/>
      <point x="902" y="-428"/>
      <point x="1057" y="-296"/>
      <point x="1057" y="-162" type="curve" smooth="yes"/>
      <point x="1057" y="9"/>
      <point x="930" y="58"/>
      <point x="667" y="223" type="curve" smooth="yes"/>
      <point x="574" y="282"/>
      <point x="491" y="377"/>
      <point x="491" y="454" type="curve" smooth="yes"/>
      <point x="491" y="674"/>
      <point x="780" y="700"/>
      <point x="967" y="700" type="curve"/>
      <point x="1002" y="911" type="line"/>
      <point x="708" y="911" type="line" smooth="yes"/>
      <point x="647" y="911"/>
      <point x="534" y="970"/>
      <point x="534" y="1110" type="curve" smooth="yes"/>
      <point x="534" y="1250"/>
      <point x="681" y="1302"/>
      <point x="741" y="1302" type="curve" smooth="yes"/>
      <point x="1056" y="1302" type="line"/>
      <point x="1085" y="1500" type="line"/>
      <point x="556" y="1500" type="line" smooth="yes"/>
      <point x="521" y="1500"/>
      <point x="511" y="1562"/>
      <point x="511" y="1581" type="curve"/>
      <point x="180" y="1581" type="line"/>
      <point x="180" y="1455"/>
      <point x="251" y="1392"/>
      <point x="368" y="1360" type="curve"/>
      <point x="275" y="1292"/>
      <point x="242" y="1199"/>
      <point x="242" y="1100" type="curve" smooth="yes"/>
      <point x="242" y="999"/>
      <point x="303" y="921"/>
      <point x="372" y="855" type="curve"/>
      <point x="534" y="790" type="line"/>
      <point x="374" y="777" type="line"/>
      <point x="268" y="716"/>
      <point x="181" y="623"/>
      <point x="181" y="445" type="curve" smooth="yes"/>
      <point x="181" y="251"/>
      <point x="351" y="107"/>
    </contour>
  </outline>
</glyph>
<glyph name="omicron" format="2">
  <advance width="1300"/>
  <unicode hex="03BF"/>
  <outline>
    <contour>
      <point x="655" y="-17" type="curve" smooth="yes"/>
      <point x="985" y="-17"/>
      <point x="1192" y="229"/>
      <point x="1192" y="553" type="curve" smooth="yes"/>
      <point x="1192" y="714"/>
      <point x="1138" y="857"/>
      <point x="1044" y="958" type="curve" smooth="yes"/>
      <point x="950" y="1059"/>
      <point x="819" y="1117"/>
      <point x="675" y="1117" type="curve" smooth="yes"/>
      <point x="655" y="1117" type="line"/>
      <point x="634" y="1117" type="line" smooth="yes"/>
      <point x="486" y="1117"/>
      <point x="354" y="1059"/>
      <point x="259" y="958" type="curve" smooth="yes"/>
      <point x="163" y="857"/>
      <point x="109" y="714"/>
      <point x="109" y="553" type="curve" smooth="yes"/>
      <point x="109" y="229"/>
      <point x="336" y="-17"/>
    </contour>
    <contour>
      <point x="866" y="528" type="curve" smooth="yes"/>
      <point x="866" y="364"/>
      <point x="804" y="203"/>
      <point x="659" y="203" type="curve" smooth="yes"/>
      <point x="503" y="203"/>
      <point x="436" y="388"/>
      <point x="436" y="571" type="curve" smooth="yes"/>
      <point x="436" y="736"/>
      <point x="503" y="897"/>
      <point x="651" y="897" type="curve" smooth="yes"/>
      <point x="807" y="897"/>
      <point x="866" y="709"/>
    </contour>
  </outline>
</glyph>
<glyph name="tau" format="2">
  <advance width="1300"/>
  <unicode hex="03C4"/>
  <outline>
    <contour>
      <point x="1077" y="900" type="line"/>
      <point x="1104" y="1100" type="line"/>
      <point x="176" y="1100" type="line"/>
      <point x="149" y="900" type="line"/>
      <point x="484" y="900" type="line"/>
      <point x="484" y="320" type="line" smooth="yes"/>
      <point x="484" y="173"/>
      <point x="507" y="67"/>
      <point x="600" y="0" type="curve"/>
      <point x="915" y="0" type="line"/>
      <point x="817" y="132"/>
      <point x="793" y="193"/>
      <point x="793" y="284" type="curve" smooth="yes"/>
      <point x="793" y="900" type="line"/>
    </contour>
  </outline>
</glyph>
<glyph name="upsilon" format="2">
  <advance width="1300"/>
  <unicode hex="03C5"/>
  <outline>
    <contour>
      <point x="668" y="824" type="line" smooth="yes"/>
      <point x="668" y="997"/>
      <point x="536" y="1117"/>
      <point x="344" y="1117" type="curve" smooth="yes"/>
      <point x="157" y="1117"/>
      <point x="54" y="951"/>
      <point x="54" y="787" type="curve"/>
      <point x="300" y="787" type="line"/>
      <point x="300" y="862"/>
      <point x="300" y="907"/>
      <point x="324" y="907" type="curve" smooth="yes"/>
      <point x="344" y="907"/>
      <point x="344" y="875"/>
      <point x="344" y="824" type="curve" smooth="yes"/>
      <point x="344" y="424" type="line" smooth="yes"/>
      <point x="344" y="243"/>
      <point x="371" y="-17"/>
      <point x="771" y="-17" type="curve" smooth="yes"/>
      <point x="1166" y="-17"/>
      <point x="1200" y="224"/>
      <point x="1200" y="401" type="curve" smooth="yes"/>
      <point x="1200" y="744" type="line" smooth="yes"/>
      <point x="1200" y="976"/>
      <point x="992" y="1117"/>
      <point x="700" y="1117" type="curve"/>
      <point x="700" y="938" type="line"/>
      <point x="759" y="938"/>
      <point x="874" y="889"/>
      <point x="874" y="719" type="curve" smooth="yes"/>
      <point x="874" y="409" type="line" smooth="yes"/>
      <point x="874" y="290"/>
      <point x="864" y="194"/>
      <point x="771" y="194" type="curve" smooth="yes"/>
      <point x="675" y="194"/>
      <point x="668" y="300"/>
      <point x="668" y="500" type="curve" smooth="yes"/>
    </contour>
  </outline>
</glyph>
